<svg width="812" height="579" viewBox="0 0 812 579" fill="none" xmlns="http://www.w3.org/2000/svg">
<g id="Group 1">
<g id="coincont1">
<path id="Vector" d="M348.946 207C347.9 207.001 346.897 207.416 346.157 208.154C345.417 208.893 345.001 209.893 345 210.937V345.229C345.001 346.273 345.417 347.274 346.157 348.012C346.897 348.75 347.9 349.165 348.946 349.167H807.836C808.882 349.165 809.885 348.75 810.625 348.012C811.365 347.274 811.781 346.273 811.782 345.229V210.937C811.781 209.893 811.365 208.893 810.625 208.154C809.885 207.416 808.882 207.001 807.836 207L348.946 207Z" fill="#03DAC6"/>
<path id="Vector_2" d="M354.888 339.3H801.893V216.867H354.888V339.3Z" fill="white"/>
<path id="Vector_3" d="M745.471 313.9C743.737 313.9 742.075 314.588 740.849 315.811C739.623 317.034 738.935 318.693 738.935 320.423C738.935 322.152 739.623 323.811 740.849 325.034C742.075 326.258 743.737 326.945 745.471 326.945H771.615C773.348 326.945 775.011 326.258 776.237 325.034C777.462 323.811 778.151 322.152 778.151 320.423C778.151 318.693 777.462 317.034 776.237 315.811C775.011 314.588 773.348 313.9 771.615 313.9H745.471Z" fill="#02786D"/>
<path id="Vector_4" d="M778.151 301.25H476.347V302.966H778.151V301.25Z" fill="url(#paint0_linear)"/>
<g id="Vector_5">
<path d="M476.824 291.667L475.87 290.239L507.231 269.376L528.738 279.677L559.671 259.957L560.089 260.134L621.205 286.149L670.208 262.129L717.791 281.378L777.581 228.534L778.722 229.82L718.134 283.369L670.275 264.008L621.255 288.037L559.833 261.891L528.857 281.638L507.371 271.347L476.824 291.667Z" fill="#3F3D56"/>
<path d="M476.824 291.667L475.87 290.239L507.231 269.376L528.738 279.677L559.671 259.957L560.089 260.134L621.205 286.149L670.208 262.129L717.791 281.378L777.581 228.534L778.722 229.82L718.134 283.369L670.275 264.008L621.255 288.037L559.833 261.891L528.857 281.638L507.371 271.347L476.824 291.667Z" fill="url(#paint1_linear)"/>
</g>
<g id="Vector_6">
<path d="M481.936 314.798C480.454 314.798 479.032 315.385 477.984 316.431C476.936 317.477 476.347 318.896 476.347 320.375C476.347 321.854 476.936 323.272 477.984 324.318C479.032 325.364 480.454 325.952 481.936 325.952H540.405C541.887 325.952 543.309 325.364 544.357 324.318C545.405 323.272 545.994 321.854 545.994 320.375C545.994 318.896 545.405 317.477 544.357 316.431C543.309 315.385 541.887 314.798 540.405 314.798H481.936Z" fill="#E6E6E6"/>
<path d="M481.936 314.798C480.454 314.798 479.032 315.385 477.984 316.431C476.936 317.477 476.347 318.896 476.347 320.375C476.347 321.854 476.936 323.272 477.984 324.318C479.032 325.364 480.454 325.952 481.936 325.952H540.405C541.887 325.952 543.309 325.364 544.357 324.318C545.405 323.272 545.994 321.854 545.994 320.375C545.994 318.896 545.405 317.477 544.357 316.431C543.309 315.385 541.887 314.798 540.405 314.798H481.936Z" fill="url(#paint2_linear)"/>
</g>
<g id="coin2">
<path id="Vector_7" d="M413.26 316.071C434.285 316.071 451.33 299.064 451.33 278.083C451.33 257.103 434.285 240.095 413.26 240.095C392.235 240.095 375.191 257.103 375.191 278.083C375.191 299.064 392.235 316.071 413.26 316.071Z" fill="#03DAC6"/>
<path id="Vector_8" d="M413.256 303.12L428.667 281.463L413.256 290.542L397.854 281.463L413.256 303.12Z" fill="white"/>
<path id="Vector_9" d="M413.255 287.632L428.658 278.548L413.256 253.047L397.854 278.548L413.255 287.632Z" fill="white"/>
</g>
</g>
<g id="coincont2">
<path id="Vector_10" d="M217.627 0.81085C216.581 0.81207 215.578 1.2273 214.838 1.96544C214.098 2.70358 213.682 3.70435 213.681 4.74824V139.04C213.682 140.084 214.098 141.085 214.838 141.823C215.578 142.561 216.581 142.976 217.627 142.977H676.517C677.563 142.976 678.566 142.561 679.306 141.823C680.046 141.085 680.462 140.084 680.463 139.04V4.74821C680.462 3.70433 680.046 2.70356 679.306 1.96542C678.566 1.22729 677.563 0.812049 676.517 0.810822L217.627 0.81085Z" fill="#03DAC6"/>
<path id="Vector_11" d="M223.569 133.111H670.575V10.6779H223.569V133.111Z" fill="white"/>
<path id="Vector_12" d="M614.152 107.711C612.418 107.711 610.756 108.398 609.53 109.622C608.304 110.845 607.616 112.504 607.616 114.233C607.616 115.963 608.304 117.622 609.53 118.845C610.756 120.068 612.418 120.756 614.152 120.756H640.296C642.029 120.756 643.692 120.068 644.918 118.845C646.143 117.622 646.832 115.963 646.832 114.233C646.832 112.504 646.143 110.845 644.918 109.622C643.692 108.398 642.029 107.711 640.296 107.711H614.152Z" fill="#02786D"/>
<g id="Vector_13">
<path d="M345.505 85.4777L344.551 84.0498L375.913 63.1868L397.419 73.4879L428.352 53.7672L428.77 53.9444L489.886 79.9599L538.889 55.9398L586.472 75.1894L646.262 22.3449L647.402 23.6296L586.814 77.1793L538.956 57.8186L489.937 81.8469L428.513 55.701L397.538 75.4484L376.052 65.1564L345.505 85.4777Z" fill="#3F3D56"/>
<path d="M345.505 85.4777L344.551 84.0498L375.913 63.1868L397.419 73.4879L428.352 53.7672L428.77 53.9444L489.886 79.9599L538.889 55.9398L586.472 75.1894L646.262 22.3449L647.402 23.6296L586.814 77.1793L538.956 57.8186L489.937 81.8469L428.513 55.701L397.538 75.4484L376.052 65.1564L345.505 85.4777Z" fill="url(#paint3_linear)"/>
</g>
<g id="Vector_14">
<path d="M350.617 108.609C349.136 108.61 347.716 109.199 346.67 110.245C345.623 111.29 345.035 112.708 345.035 114.186C345.035 115.663 345.623 117.081 346.67 118.127C347.716 119.172 349.136 119.761 350.617 119.763H409.086C410.569 119.763 411.99 119.175 413.038 118.129C414.086 117.083 414.675 115.665 414.675 114.186C414.675 112.706 414.086 111.288 413.038 110.242C411.99 109.196 410.569 108.609 409.086 108.609H350.617Z" fill="#E6E6E6"/>
<path d="M350.617 108.609C349.136 108.61 347.716 109.199 346.67 110.245C345.623 111.29 345.035 112.708 345.035 114.186C345.035 115.663 345.623 117.081 346.67 118.127C347.716 119.172 349.136 119.761 350.617 119.763H409.086C410.569 119.763 411.99 119.175 413.038 118.129C414.086 117.083 414.675 115.665 414.675 114.186C414.675 112.706 414.086 111.288 413.038 110.242C411.99 109.196 410.569 108.609 409.086 108.609H350.617Z" fill="url(#paint4_linear)"/>
</g>
<g id="coin1">
<path id="Vector_15" d="M281.942 109.882C302.967 109.882 320.011 92.8744 320.011 71.8942C320.011 50.914 302.967 33.9062 281.942 33.9062C260.916 33.9062 243.872 50.914 243.872 71.8942C243.872 92.8744 260.916 109.882 281.942 109.882Z" fill="#03DAC6"/>
<path id="Vector_16" d="M297.259 67.4603C297.97 62.7065 294.343 60.151 289.384 58.4462L290.992 52.0066L287.063 51.0297L285.497 57.2996C284.465 57.0428 283.405 56.8006 282.351 56.5605L283.928 50.2493L280.002 49.2724L278.392 55.7098C277.537 55.5156 276.698 55.3235 275.884 55.1214L275.888 55.1014L270.471 53.7516L269.426 57.9382C269.426 57.9382 272.341 58.6047 272.279 58.646C272.823 58.711 273.319 58.9862 273.661 59.4126C274.003 59.8389 274.164 60.3823 274.109 60.9258L272.277 68.2618C272.416 68.2964 272.552 68.34 272.685 68.3925L272.271 68.2898L269.701 78.5665C269.645 78.7459 269.553 78.9124 269.432 79.0564C269.311 79.2004 269.162 79.3191 268.995 79.4056C268.828 79.4921 268.645 79.5448 268.457 79.5606C268.27 79.5764 268.08 79.555 267.901 79.4977C267.94 79.5546 265.046 78.7865 265.046 78.7865L263.096 83.2746L268.209 84.5462C269.16 84.784 270.092 85.0329 271.008 85.2674L269.382 91.7818L273.306 92.7587L274.917 86.3146C275.988 86.6049 277.028 86.8728 278.047 87.1251L276.442 93.5391L280.37 94.5159L281.996 88.0149C288.694 89.2799 293.732 88.7696 295.85 82.7253C297.559 77.8576 295.766 75.0498 292.242 73.2177C294.809 72.6249 296.742 70.9402 297.258 67.4603L297.259 67.4603ZM288.283 80.0191C287.068 84.8867 278.855 82.2564 276.191 81.5955L278.349 72.9665C281.011 73.6297 289.549 74.9427 288.284 80.0191H288.283ZM289.496 67.3899C288.389 71.8177 281.553 69.5681 279.334 69.0166L281.29 61.1904C283.509 61.7419 290.651 62.7713 289.496 67.3899Z" fill="white"/>
</g>
<g id="Vector_17">
<path d="M646.832 95.0604H345.028V96.7764H646.832V95.0604Z" fill="#E6E6E6"/>
<path d="M646.832 95.0604H345.028V96.7764H646.832V95.0604Z" fill="url(#paint5_linear)"/>
</g>
</g>
<g id="coincont3">
<path id="Vector_18" d="M217.946 389C216.9 389.001 215.897 389.416 215.157 390.154C214.417 390.893 214.001 391.893 214 392.937V527.229C214.001 528.273 214.417 529.274 215.157 530.012C215.897 530.75 216.9 531.165 217.946 531.167H676.836C677.882 531.165 678.885 530.75 679.625 530.012C680.365 529.274 680.781 528.273 680.782 527.229V392.937C680.781 391.893 680.365 390.893 679.625 390.154C678.885 389.416 677.882 389.001 676.836 389L217.946 389Z" fill="#03DAC6"/>
<path id="Vector_19" d="M223.814 521.26H670.82V398.827H223.814V521.26Z" fill="white"/>
<path id="Vector_20" d="M614.396 495.86C613.537 495.859 612.687 496.027 611.893 496.355C611.099 496.682 610.377 497.162 609.77 497.768C609.162 498.374 608.68 499.093 608.351 499.885C608.022 500.677 607.852 501.525 607.852 502.383C607.852 503.24 608.022 504.088 608.351 504.88C608.68 505.672 609.162 506.391 609.77 506.997C610.377 507.603 611.099 508.083 611.893 508.41C612.687 508.738 613.537 508.906 614.396 508.905H640.541C642.274 508.905 643.937 508.218 645.162 506.994C646.388 505.771 647.077 504.112 647.077 502.383C647.077 500.653 646.388 498.994 645.162 497.771C643.937 496.548 642.274 495.86 640.541 495.86H614.396Z" fill="#02786D"/>
<g id="Vector_21">
<path d="M647.077 483.209H345.273V484.925H647.077V483.209Z" fill="#C4C4C4"/>
<path d="M647.077 483.209H345.273V484.925H647.077V483.209Z" fill="url(#paint6_linear)"/>
</g>
<path id="Vector_22" d="M646.693 410.495L647.647 411.923L616.285 432.787L594.78 422.486L563.846 442.206L502.312 416.014L453.31 440.034L405.727 420.784L345.936 473.628L344.796 472.343L405.384 418.793L453.243 438.155L502.262 414.127L563.686 440.272L594.66 420.524L616.146 430.815L646.693 410.495Z" fill="#3F3D56"/>
<path id="Vector_23" d="M350.861 497.258H350.862H409.331C410.679 497.259 411.972 497.795 412.925 498.747C413.878 499.699 414.413 500.99 414.413 502.335C414.413 503.68 413.878 504.97 412.925 505.922C411.972 506.874 410.679 507.41 409.33 507.412H350.862H350.861C350.192 507.413 349.53 507.282 348.911 507.027C348.293 506.772 347.731 506.398 347.258 505.927C346.785 505.455 346.41 504.895 346.153 504.279C345.897 503.662 345.766 503.002 345.766 502.335C345.766 501.668 345.897 501.007 346.153 500.391C346.41 499.774 346.785 499.214 347.258 498.743C347.731 498.271 348.293 497.897 348.911 497.642C349.53 497.388 350.192 497.257 350.861 497.258Z" fill="url(#paint7_linear)" stroke="black"/>
<g id="coin3">
<path id="Vector_24" d="M282.186 498.031C303.211 498.031 320.255 481.024 320.255 460.043C320.255 439.063 303.211 422.055 282.186 422.055C261.161 422.055 244.117 439.063 244.117 460.043C244.117 481.024 261.161 498.031 282.186 498.031Z" fill="#03DAC6"/>
<path id="Vector_25" d="M296.726 443.049H302.674L290.297 455.272C288.135 457.398 285.221 458.591 282.185 458.591C279.149 458.591 276.234 457.398 274.072 455.272L261.696 443.049H267.645L277.047 452.334C278.417 453.681 280.262 454.436 282.185 454.436C284.108 454.436 285.954 453.681 287.324 452.334L296.726 443.049ZM267.569 477.038H261.621L274.074 464.739C276.236 462.613 279.15 461.42 282.186 461.42C285.222 461.42 288.136 462.613 290.299 464.739L302.752 477.038H296.803L287.324 467.677C285.954 466.33 284.108 465.575 282.185 465.575C280.263 465.575 278.417 466.33 277.047 467.677L267.569 477.038Z" fill="white"/>
</g>
</g>
<circle id="Ellipse 1" cx="76.5" cy="241.5" r="3" fill="#02786D" stroke="black"/>
<g id="male">
<path id="Vector_26" d="M164 558.22C160.93 586.139 -0.243953 583.796 0.000277285 558.219C3.07029 530.301 164.244 532.645 164 558.22Z" fill="url(#paint8_linear)"/>
<path id="Vector_27" d="M111.945 487.94L118.479 502.096L130.457 501.007L138.079 475.961L126.101 469.428L111.945 487.94Z" fill="#FFB8B8"/>
<path id="Vector_28" d="M70.8243 520.542L70.5664 530.407L89.0779 531.496V519.518L70.8243 520.542Z" fill="#FFB8B8"/>
<path id="Vector_29" d="M77.0995 340.935L81.4552 428.048L70.5664 522.784L103.234 527.14L123.924 407.36L130.457 325.69L77.0995 340.935Z" fill="#0D1C20"/>
<path id="Vector_30" d="M25.9205 309.356C25.9205 309.356 12.8535 395.381 40.0765 423.693C67.2996 452.005 104.323 502.095 104.323 502.095L130.457 469.428L64.0328 398.648L77.0999 350.735L130.457 325.69L121.746 265.799L43.3433 264.711L25.9205 309.356Z" fill="#0D1C20"/>
<path id="Vector_31" d="M90.1669 110.084C103.398 110.084 114.123 99.358 114.123 86.1273C114.123 72.8966 103.398 62.1711 90.1669 62.1711C76.9362 62.1711 66.2107 72.8966 66.2107 86.1273C66.2107 99.358 76.9362 110.084 90.1669 110.084Z" fill="#FFB8B8"/>
<path id="Vector_32" d="M69.4774 91.572C69.4774 91.572 68.3885 125.329 62.9439 129.684C57.4993 134.04 82.5445 152.552 82.5445 152.552L98.8783 126.417V102.461L69.4774 91.572Z" fill="#FFB8B8"/>
<path id="Vector_33" d="M80.3664 137.307L67.1461 117.344L59.6765 127.507L48.7878 157.997L57.4992 276.688L108.678 277.777L115.212 141.662L98.8779 122.062L80.3664 137.307Z" fill="#03DAC6"/>
<path id="Vector_34" d="M135.902 144.929L144.613 143.84C144.613 143.84 146.791 144.929 147.88 152.552C148.969 160.174 162.036 227.687 162.036 227.687L144.613 310.445L125.012 284.311L136.991 238.576L125.012 192.842L135.902 144.929Z" fill="black"/>
<path id="Vector_35" d="M24.832 143.84H18.2979L1.96478 232.043L17.2092 300.645L32.4537 275.6L28.098 248.377L30.2764 224.421L37.8991 210.264L24.832 143.84Z" fill="black"/>
<path id="Vector_36" d="M121.746 497.74C121.746 497.74 115.212 495.562 115.212 499.918C115.212 504.273 119.568 517.34 119.568 517.34C119.568 517.34 113.034 557.63 122.835 555.452C132.635 553.275 140.257 534.763 141.346 529.318C142.435 523.874 147.88 495.562 147.88 495.562C147.88 495.562 156.591 474.872 151.147 473.783C145.702 472.694 130.457 468.339 130.457 468.339C130.457 468.339 139.168 495.562 121.746 497.74Z" fill="#305A65"/>
<path id="Vector_37" d="M90.1669 531.496C90.1669 531.496 72.7442 520.607 69.4774 529.318C67.3108 535.672 65.8501 542.245 65.1217 548.919C65.1217 548.919 60.766 563.075 78.1888 560.897C95.6115 558.719 93.4336 558.719 94.5226 552.186C95.6115 545.652 90.1669 531.496 90.1669 531.496Z" fill="#305A65"/>
<path id="Vector_38" d="M76.0109 86.1274L80.3666 85.0385C80.3666 85.0385 83.6334 66.5268 91.2559 68.7046C98.8783 70.8825 118.479 73.0604 118.479 64.3489C118.479 55.6375 99.9672 48.0151 89.078 49.104C78.1888 50.193 59.6771 53.4597 60.7661 69.7935C61.855 86.1273 68.8815 102.017 68.8815 102.017L69.4491 92.3325L76.0109 86.1274Z" fill="#2F2E41"/>
<path id="Vector_39" d="M98.878 150.374L80.3665 137.307L98.878 122.062L105.305 129.773L98.878 150.374Z" fill="#305A65"/>
<path id="Vector_40" d="M64.0323 149.285L80.3665 137.307L67.2993 117.707L59.6766 127.507L64.0323 149.285Z" fill="#305A65"/>
<path id="Vector_41" d="M143.524 143.84L108.679 129.684L100.512 123.695L76.0109 232.043L59.6771 183.041L64.5772 120.428L19.387 143.84L34.632 217.887L36.8098 246.199L30.2762 269.066C30.2762 269.066 7.40889 285.4 15.0313 302.823C22.6538 320.246 31.3652 321.334 31.3652 321.334C31.3652 321.334 68.3885 286.489 70.5663 277.778C72.7442 269.066 76.0109 253.821 76.0109 253.821C76.0109 253.821 94.5226 323.512 116.301 322.423C138.079 321.334 138.079 298.467 138.079 298.467L132.635 274.511L123.923 249.466L128.279 208.087L143.524 143.84Z" fill="black"/>
</g>
</g>
<defs>
<linearGradient id="paint0_linear" x1="529.363" y1="302.056" x2="750.363" y2="302.056" gradientUnits="userSpaceOnUse">
<stop stop-color="#02786D"/>
<stop offset="1"/>
</linearGradient>
<linearGradient id="paint1_linear" x1="656" y1="260" x2="501.5" y2="260" gradientUnits="userSpaceOnUse">
<stop stop-color="#03DAC6"/>
<stop offset="1"/>
</linearGradient>
<linearGradient id="paint2_linear" x1="533.5" y1="320" x2="488.5" y2="320" gradientUnits="userSpaceOnUse">
<stop stop-color="#03DAC6"/>
<stop offset="1"/>
</linearGradient>
<linearGradient id="paint3_linear" x1="397.751" y1="52.0166" x2="619.517" y2="52.0166" gradientUnits="userSpaceOnUse">
<stop stop-color="#03DAC6"/>
<stop offset="1"/>
</linearGradient>
<linearGradient id="paint4_linear" x1="357.268" y1="113.851" x2="408.263" y2="113.851" gradientUnits="userSpaceOnUse">
<stop stop-color="#03DAC6"/>
<stop offset="1"/>
</linearGradient>
<linearGradient id="paint5_linear" x1="398.044" y1="95.8669" x2="619.044" y2="95.867" gradientUnits="userSpaceOnUse">
<stop stop-color="#03DAC6"/>
<stop offset="1"/>
</linearGradient>
<linearGradient id="paint6_linear" x1="398.288" y1="484.016" x2="619.288" y2="484.016" gradientUnits="userSpaceOnUse">
<stop stop-color="#03DAC6"/>
<stop offset="1"/>
</linearGradient>
<linearGradient id="paint7_linear" x1="357.5" y1="502" x2="408.5" y2="502" gradientUnits="userSpaceOnUse">
<stop stop-color="#03DAC6"/>
<stop offset="1"/>
</linearGradient>
<linearGradient id="paint8_linear" x1="32" y1="558" x2="99" y2="558" gradientUnits="userSpaceOnUse">
<stop stop-color="#002724"/>
<stop offset="1" stop-color="#02786D"/>
</linearGradient>
</defs>
</svg>
