<svg width="820" height="587" viewBox="0 0 820 587" fill="none" xmlns="http://www.w3.org/2000/svg">
<g id="undraw_crypto_portfolio_2jy5 1" filter="url(#filter0_d)">
<g id="Group 1">
<g id="male">
<g id="Vector">
<path d="M168 558.22C164.93 586.139 3.75605 583.796 4.00028 558.219C7.07029 530.301 168.244 532.645 168 558.22Z" fill="#7800FF" fill-opacity="0.45"/>
<path d="M168 558.22C164.93 586.139 3.75605 583.796 4.00028 558.219C7.07029 530.301 168.244 532.645 168 558.22Z" fill="url(#paint0_linear)"/>
</g>
<path id="Vector_2" d="M115.945 487.94L122.479 502.096L134.457 501.007L142.079 475.961L130.101 469.428L115.945 487.94Z" fill="#FFB8B8"/>
<path id="Vector_3" d="M74.8243 520.542L74.5664 530.407L93.0779 531.496V519.518L74.8243 520.542Z" fill="#FFB8B8"/>
<path id="Vector_4" d="M81.0995 340.935L85.4552 428.048L74.5664 522.784L107.234 527.14L127.924 407.36L134.457 325.69L81.0995 340.935Z" fill="#210145"/>
<path id="Vector_5" d="M29.9205 309.356C29.9205 309.356 16.8535 395.381 44.0765 423.693C71.2996 452.005 108.323 502.095 108.323 502.095L134.457 469.428L68.0328 398.648L81.0999 350.735L134.457 325.69L125.746 265.799L47.3433 264.711L29.9205 309.356Z" fill="#210145"/>
<path id="Vector_6" d="M94.1669 110.084C107.398 110.084 118.123 99.358 118.123 86.1273C118.123 72.8966 107.398 62.1711 94.1669 62.1711C80.9362 62.1711 70.2107 72.8966 70.2107 86.1273C70.2107 99.358 80.9362 110.084 94.1669 110.084Z" fill="#FFB8B8"/>
<path id="Vector_7" d="M73.4774 91.572C73.4774 91.572 72.3885 125.329 66.9439 129.684C61.4993 134.04 86.5445 152.552 86.5445 152.552L102.878 126.417V102.461L73.4774 91.572Z" fill="#FFB8B8"/>
<path id="Vector_8" d="M84.3664 137.307L71.1461 117.344L63.6765 127.507L52.7878 157.997L61.4992 276.688L112.678 277.777L119.212 141.662L102.878 122.062L84.3664 137.307Z" fill="#6523AC"/>
<path id="Vector_9" d="M139.902 144.929L148.613 143.84C148.613 143.84 150.791 144.929 151.88 152.552C152.969 160.174 166.036 227.687 166.036 227.687L148.613 310.445L129.012 284.311L140.991 238.576L129.012 192.842L139.902 144.929Z" fill="#2F2E41"/>
<path id="Vector_10" d="M28.832 143.84H22.2979L5.96478 232.043L21.2092 300.645L36.4537 275.6L32.098 248.377L34.2763 224.421L41.8991 210.264L28.832 143.84Z" fill="#2F2E41"/>
<path id="Vector_11" d="M125.746 497.74C125.746 497.74 119.212 495.562 119.212 499.918C119.212 504.273 123.568 517.34 123.568 517.34C123.568 517.34 117.034 557.63 126.835 555.452C136.635 553.275 144.257 534.763 145.346 529.318C146.435 523.874 151.88 495.562 151.88 495.562C151.88 495.562 160.591 474.872 155.147 473.783C149.702 472.694 134.457 468.339 134.457 468.339C134.457 468.339 143.168 495.562 125.746 497.74Z" fill="#210145"/>
<path id="Vector_12" d="M94.1669 531.496C94.1669 531.496 76.7442 520.607 73.4774 529.318C71.3108 535.672 69.8501 542.245 69.1217 548.919C69.1217 548.919 64.766 563.075 82.1887 560.897C99.6115 558.719 97.4336 558.719 98.5226 552.186C99.6115 545.652 94.1669 531.496 94.1669 531.496Z" fill="#24004B"/>
<path id="Vector_13" d="M80.0109 86.1274L84.3667 85.0385C84.3667 85.0385 87.6334 66.5268 95.2559 68.7046C102.878 70.8825 122.479 73.0604 122.479 64.3489C122.479 55.6375 103.967 48.0151 93.078 49.104C82.1888 50.193 63.6771 53.4597 64.7661 69.7935C65.855 86.1273 72.8815 102.017 72.8815 102.017L73.4491 92.3325L80.0109 86.1274Z" fill="#2F2E41"/>
<path id="Vector_14" d="M102.878 150.374L84.3665 137.307L102.878 122.062L109.305 129.773L102.878 150.374Z" fill="#310660"/>
<path id="Vector_15" d="M68.0323 149.285L84.3665 137.307L71.2993 117.707L63.6766 127.507L68.0323 149.285Z" fill="#310660"/>
<path id="Vector_16" d="M147.524 143.84L112.679 129.684L104.512 123.695L80.0109 232.043L63.6771 183.041L68.5772 120.428L23.387 143.84L38.632 217.887L40.8098 246.199L34.2762 269.066C34.2762 269.066 11.4089 285.4 19.0313 302.823C26.6538 320.246 35.3652 321.334 35.3652 321.334C35.3652 321.334 72.3885 286.489 74.5663 277.778C76.7442 269.066 80.0109 253.821 80.0109 253.821C80.0109 253.821 98.5226 323.512 120.301 322.423C142.079 321.334 142.079 298.467 142.079 298.467L136.635 274.511L127.923 249.466L132.279 208.087L147.524 143.84Z" fill="#2F2E41"/>
</g>
<g id="coincont3">
<path id="Vector_17" d="M221.946 389C220.9 389.001 219.897 389.416 219.157 390.154C218.417 390.893 218.001 391.893 218 392.937V527.229C218.001 528.273 218.417 529.274 219.157 530.012C219.897 530.75 220.9 531.165 221.946 531.167H680.836C681.882 531.165 682.885 530.75 683.625 530.012C684.365 529.274 684.781 528.273 684.782 527.229V392.937C684.781 391.893 684.365 390.893 683.625 390.154C682.885 389.416 681.882 389.001 680.836 389L221.946 389Z" fill="#6523AC"/>
<path id="Vector_18" d="M227.814 521.26H674.82V398.827H227.814V521.26Z" fill="white"/>
<path id="Vector_19" d="M618.396 495.86C617.537 495.859 616.687 496.027 615.893 496.355C615.099 496.682 614.377 497.162 613.77 497.768C613.162 498.374 612.68 499.093 612.351 499.885C612.022 500.677 611.852 501.525 611.852 502.383C611.852 503.24 612.022 504.088 612.351 504.88C612.68 505.672 613.162 506.391 613.77 506.997C614.377 507.603 615.099 508.083 615.893 508.41C616.687 508.738 617.537 508.906 618.396 508.905H644.541C646.274 508.905 647.937 508.218 649.162 506.994C650.388 505.771 651.077 504.112 651.077 502.383C651.077 500.653 650.388 498.994 649.162 497.771C647.937 496.548 646.274 495.86 644.541 495.86H618.396Z" fill="#6523AC"/>
<g id="Vector_20">
<path d="M651.077 483.209H349.273V484.925H651.077V483.209Z" fill="#C4C4C4"/>
<path d="M651.077 483.209H349.273V484.925H651.077V483.209Z" fill="url(#paint1_linear)"/>
</g>
<path id="Vector_21" d="M650.693 410.495L651.647 411.923L620.285 432.787L598.78 422.486L567.846 442.206L506.312 416.014L457.31 440.034L409.727 420.784L349.936 473.628L348.796 472.343L409.384 418.793L457.243 438.155L506.262 414.127L567.686 440.272L598.66 420.524L620.146 430.815L650.693 410.495Z" fill="#3F3D56"/>
<g id="Vector_22" filter="url(#filter1_d)">
<path d="M354.862 496.758C354.127 496.757 353.4 496.9 352.721 497.18C352.042 497.46 351.425 497.871 350.905 498.389C350.385 498.907 349.973 499.522 349.692 500.199C349.41 500.876 349.266 501.602 349.266 502.335C349.266 503.068 349.41 503.793 349.692 504.471C349.973 505.148 350.385 505.763 350.905 506.281C351.425 506.799 352.042 507.209 352.721 507.489C353.4 507.769 354.127 507.913 354.862 507.912H413.331C414.812 507.91 416.232 507.321 417.278 506.276C418.325 505.23 418.913 503.813 418.913 502.335C418.913 500.857 418.325 499.439 417.278 498.394C416.232 497.348 414.812 496.759 413.331 496.758H354.862Z" fill="url(#paint2_linear)"/>
<path d="M354.862 497.258H354.861C354.192 497.257 353.53 497.388 352.911 497.642C352.293 497.897 351.731 498.271 351.258 498.743C350.785 499.214 350.41 499.774 350.153 500.391C349.897 501.007 349.766 501.668 349.766 502.335C349.766 503.002 349.897 503.662 350.153 504.279C350.41 504.895 350.785 505.455 351.258 505.927C351.731 506.398 352.293 506.772 352.911 507.027C353.53 507.282 354.192 507.413 354.861 507.412L354.862 507.412L413.33 507.412L413.331 507.412M354.862 497.258L413.331 496.758C414.812 496.759 416.232 497.348 417.278 498.394C418.325 499.439 418.913 500.857 418.913 502.335C418.913 503.813 418.325 505.23 417.278 506.276C416.232 507.321 414.812 507.91 413.331 507.912V507.412M354.862 497.258H413.331M354.862 497.258H413.331M413.331 507.412C414.68 507.41 415.972 506.874 416.925 505.922C417.878 504.97 418.413 503.68 418.413 502.335C418.413 500.99 417.878 499.699 416.925 498.747C415.972 497.795 414.679 497.259 413.331 497.258M413.331 507.412L413.331 497.258" stroke="black"/>
</g>
<g id="coin3">
<path id="Vector_23" d="M286.186 498.031C307.211 498.031 324.255 481.024 324.255 460.043C324.255 439.063 307.211 422.055 286.186 422.055C265.161 422.055 248.117 439.063 248.117 460.043C248.117 481.024 265.161 498.031 286.186 498.031Z" fill="#6523AC"/>
<path id="Vector_24" d="M300.726 443.049H306.674L294.297 455.272C292.135 457.398 289.221 458.591 286.185 458.591C283.149 458.591 280.234 457.398 278.072 455.272L265.696 443.049H271.645L281.047 452.334C282.417 453.681 284.262 454.436 286.185 454.436C288.108 454.436 289.954 453.681 291.324 452.334L300.726 443.049ZM271.569 477.038H265.621L278.074 464.739C280.236 462.613 283.15 461.42 286.186 461.42C289.222 461.42 292.136 462.613 294.299 464.739L306.752 477.038H300.803L291.324 467.677C289.954 466.33 288.108 465.575 286.185 465.575C284.263 465.575 282.417 466.33 281.047 467.677L271.569 477.038Z" fill="white"/>
</g>
</g>
<g id="coincont2">
<path id="Vector_25" d="M221.627 0.81085C220.581 0.81207 219.578 1.2273 218.838 1.96544C218.098 2.70358 217.682 3.70435 217.681 4.74824V139.04C217.682 140.084 218.098 141.085 218.838 141.823C219.578 142.561 220.581 142.976 221.627 142.977H680.517C681.563 142.976 682.566 142.561 683.306 141.823C684.046 141.085 684.462 140.084 684.463 139.04V4.74821C684.462 3.70433 684.046 2.70356 683.306 1.96542C682.566 1.22729 681.563 0.812049 680.517 0.810822L221.627 0.81085Z" fill="#6523AC"/>
<path id="Vector_26" d="M227.569 133.111H674.575V10.6779H227.569V133.111Z" fill="white"/>
<path id="Vector_27" d="M618.152 107.711C616.418 107.711 614.756 108.398 613.53 109.622C612.304 110.845 611.616 112.504 611.616 114.233C611.616 115.963 612.304 117.622 613.53 118.845C614.756 120.068 616.418 120.756 618.152 120.756H644.296C646.029 120.756 647.692 120.068 648.918 118.845C650.143 117.622 650.832 115.963 650.832 114.233C650.832 112.504 650.143 110.845 648.918 109.622C647.692 108.398 646.029 107.711 644.296 107.711H618.152Z" fill="#6523AC"/>
<g id="Vector_28">
<path d="M650.832 95.0604H349.028V96.7764H650.832V95.0604Z" fill="#E6E6E6"/>
<path d="M650.832 95.0604H349.028V96.7764H650.832V95.0604Z" fill="url(#paint3_linear)"/>
</g>
<g id="Vector_29">
<path d="M349.505 85.4777L348.551 84.0498L379.913 63.1867L401.419 73.4879L432.352 53.7671L432.77 53.9444L493.886 79.9598L542.889 55.9398L590.472 75.1894L650.262 22.3449L651.402 23.6296L590.814 77.1793L542.956 57.8185L493.937 81.8469L432.513 55.701L401.538 75.4484L380.052 65.1564L349.505 85.4777Z" fill="#3F3D56"/>
<path d="M349.505 85.4777L348.551 84.0498L379.913 63.1867L401.419 73.4879L432.352 53.7671L432.77 53.9444L493.886 79.9598L542.889 55.9398L590.472 75.1894L650.262 22.3449L651.402 23.6296L590.814 77.1793L542.956 57.8185L493.937 81.8469L432.513 55.701L401.538 75.4484L380.052 65.1564L349.505 85.4777Z" fill="url(#paint4_linear)"/>
</g>
<g id="Vector_30">
<path d="M354.617 108.609C353.136 108.61 351.716 109.199 350.67 110.245C349.623 111.29 349.035 112.708 349.035 114.186C349.035 115.663 349.623 117.081 350.67 118.127C351.716 119.172 353.136 119.761 354.617 119.763H413.086C414.569 119.763 415.99 119.175 417.038 118.129C418.086 117.083 418.675 115.665 418.675 114.186C418.675 112.706 418.086 111.288 417.038 110.242C415.99 109.196 414.569 108.609 413.086 108.609H354.617Z" fill="#E6E6E6"/>
<path d="M354.617 108.609C353.136 108.61 351.716 109.199 350.67 110.245C349.623 111.29 349.035 112.708 349.035 114.186C349.035 115.663 349.623 117.081 350.67 118.127C351.716 119.172 353.136 119.761 354.617 119.763H413.086C414.569 119.763 415.99 119.175 417.038 118.129C418.086 117.083 418.675 115.665 418.675 114.186C418.675 112.706 418.086 111.288 417.038 110.242C415.99 109.196 414.569 108.609 413.086 108.609H354.617Z" fill="url(#paint5_linear)"/>
</g>
<g id="coin1">
<path id="Vector_31" d="M285.942 109.882C306.967 109.882 324.011 92.8744 324.011 71.8942C324.011 50.914 306.967 33.9062 285.942 33.9062C264.916 33.9062 247.872 50.914 247.872 71.8942C247.872 92.8744 264.916 109.882 285.942 109.882Z" fill="#6523AC"/>
<g id="Vector_32" filter="url(#filter2_d)">
<path d="M301.259 67.4603C301.97 62.7065 298.343 60.151 293.384 58.4462L294.992 52.0066L291.063 51.0297L289.497 57.2996C288.465 57.0428 287.405 56.8005 286.351 56.5605L287.928 50.2493L284.002 49.2724L282.392 55.7098C281.537 55.5155 280.698 55.3235 279.884 55.1214L279.888 55.1013L274.471 53.7516L273.426 57.9382C273.426 57.9382 276.341 58.6047 276.279 58.646C276.823 58.711 277.319 58.9862 277.661 59.4125C278.003 59.8389 278.164 60.3823 278.109 60.9258L276.277 68.2618C276.416 68.2964 276.552 68.34 276.685 68.3925L276.271 68.2897L273.701 78.5665C273.645 78.7459 273.553 78.9124 273.432 79.0564C273.311 79.2004 273.162 79.319 272.995 79.4056C272.828 79.4921 272.645 79.5448 272.457 79.5606C272.27 79.5764 272.08 79.555 271.901 79.4976C271.94 79.5546 269.046 78.7865 269.046 78.7865L267.096 83.2745L272.209 84.5462C273.16 84.784 274.092 85.0329 275.008 85.2674L273.382 91.7818L277.306 92.7586L278.917 86.3146C279.988 86.6049 281.028 86.8728 282.047 87.1251L280.442 93.539L284.37 94.5159L285.996 88.0149C292.694 89.2798 297.732 88.7696 299.85 82.7253C301.559 77.8576 299.766 75.0498 296.242 73.2177C298.809 72.6249 300.742 70.9402 301.258 67.4602L301.259 67.4603ZM292.283 80.019C291.068 84.8867 282.855 82.2564 280.191 81.5954L282.349 72.9665C285.011 73.6297 293.549 74.9426 292.284 80.019H292.283ZM293.496 67.3899C292.389 71.8177 285.553 69.5681 283.334 69.0166L285.29 61.1904C287.509 61.7419 294.651 62.7712 293.496 67.3899Z" fill="white"/>
</g>
</g>
</g>
<g id="coincont1">
<g id="Vector_33" filter="url(#filter3_d)">
<path d="M352.946 207C351.9 207.001 350.897 207.416 350.157 208.155C349.417 208.893 349.001 209.894 349 210.937V345.229C349.001 346.273 349.417 347.274 350.157 348.012C350.897 348.75 351.9 349.165 352.946 349.167H811.836C812.882 349.165 813.885 348.75 814.625 348.012C815.365 347.274 815.781 346.273 815.782 345.229V210.937C815.781 209.893 815.365 208.893 814.625 208.155C813.885 207.416 812.882 207.001 811.836 207L352.946 207Z" fill="#6523AC"/>
</g>
<path id="Vector_34" d="M358.888 339.3H805.893V216.867H358.888V339.3Z" fill="white"/>
<path id="Vector_35" d="M749.471 313.9C747.737 313.9 746.075 314.588 744.849 315.811C743.623 317.034 742.935 318.693 742.935 320.423C742.935 322.152 743.623 323.811 744.849 325.034C746.075 326.258 747.737 326.945 749.471 326.945H775.615C777.348 326.945 779.011 326.258 780.237 325.034C781.462 323.811 782.151 322.152 782.151 320.423C782.151 318.693 781.462 317.034 780.237 315.811C779.011 314.588 777.348 313.9 775.615 313.9H749.471V313.9Z" fill="#6523AC"/>
<path id="Vector_36" d="M782.151 301.25H480.347V302.966H782.151V301.25Z" fill="url(#paint6_linear)"/>
<g id="Vector_37">
<path d="M480.824 291.667L479.87 290.239L511.231 269.376L532.738 279.677L563.671 259.957L564.089 260.134L625.205 286.149L674.208 262.129L721.791 281.378L781.581 228.534L782.722 229.82L722.134 283.369L674.275 264.008L625.255 288.037L563.833 261.891L532.857 281.638L511.371 271.347L480.824 291.667Z" fill="#3F3D56"/>
<path d="M480.824 291.667L479.87 290.239L511.231 269.376L532.738 279.677L563.671 259.957L564.089 260.134L625.205 286.149L674.208 262.129L721.791 281.378L781.581 228.534L782.722 229.82L722.134 283.369L674.275 264.008L625.255 288.037L563.833 261.891L532.857 281.638L511.371 271.347L480.824 291.667Z" fill="url(#paint7_linear)"/>
</g>
<g id="Vector_38">
<path d="M485.936 314.798C484.454 314.798 483.032 315.385 481.984 316.431C480.936 317.477 480.347 318.896 480.347 320.375C480.347 321.854 480.936 323.272 481.984 324.318C483.032 325.364 484.454 325.952 485.936 325.952H544.405C545.887 325.952 547.309 325.364 548.357 324.318C549.405 323.272 549.994 321.854 549.994 320.375C549.994 318.896 549.405 317.477 548.357 316.431C547.309 315.385 545.887 314.798 544.405 314.798H485.936Z" fill="#E6E6E6"/>
<path d="M485.936 314.798C484.454 314.798 483.032 315.385 481.984 316.431C480.936 317.477 480.347 318.896 480.347 320.375C480.347 321.854 480.936 323.272 481.984 324.318C483.032 325.364 484.454 325.952 485.936 325.952H544.405C545.887 325.952 547.309 325.364 548.357 324.318C549.405 323.272 549.994 321.854 549.994 320.375C549.994 318.896 549.405 317.477 548.357 316.431C547.309 315.385 545.887 314.798 544.405 314.798H485.936Z" fill="url(#paint8_linear)"/>
</g>
<g id="coin2">
<path id="Vector_39" d="M417.26 316.071C438.285 316.071 455.33 299.064 455.33 278.083C455.33 257.103 438.285 240.095 417.26 240.095C396.235 240.095 379.191 257.103 379.191 278.083C379.191 299.064 396.235 316.071 417.26 316.071Z" fill="#6523AC"/>
<g id="Vector_40" filter="url(#filter4_d)">
<path d="M417.256 303.12L432.667 281.463L417.256 290.542L401.854 281.463L417.255 303.12H417.256Z" fill="white"/>
</g>
<g id="Vector_41" filter="url(#filter5_d)">
<path d="M417.255 287.632H417.256L432.658 278.548L417.256 253.047H417.255L401.854 278.548L417.255 287.632Z" fill="white"/>
</g>
</g>
</g>
<circle id="Ellipse 1" cx="80.5" cy="241.5" r="3" fill="#6523AC" stroke="black"/>
</g>
</g>
<defs>
<filter id="filter0_d" x="0" y="0" width="820" height="587" filterUnits="userSpaceOnUse" color-interpolation-filters="sRGB">
<feFlood flood-opacity="0" result="BackgroundImageFix"/>
<feColorMatrix in="SourceAlpha" type="matrix" values="0 0 0 0 0 0 0 0 0 0 0 0 0 0 0 0 0 0 127 0"/>
<feOffset dy="4"/>
<feGaussianBlur stdDeviation="2"/>
<feColorMatrix type="matrix" values="0 0 0 0 0 0 0 0 0 0 0 0 0 0 0 0 0 0 0.25 0"/>
<feBlend mode="normal" in2="BackgroundImageFix" result="effect1_dropShadow"/>
<feBlend mode="normal" in="SourceGraphic" in2="effect1_dropShadow" result="shape"/>
</filter>
<filter id="filter1_d" x="345.266" y="496.758" width="77.6471" height="19.1541" filterUnits="userSpaceOnUse" color-interpolation-filters="sRGB">
<feFlood flood-opacity="0" result="BackgroundImageFix"/>
<feColorMatrix in="SourceAlpha" type="matrix" values="0 0 0 0 0 0 0 0 0 0 0 0 0 0 0 0 0 0 127 0"/>
<feOffset dy="4"/>
<feGaussianBlur stdDeviation="2"/>
<feColorMatrix type="matrix" values="0 0 0 0 0 0 0 0 0 0 0 0 0 0 0 0 0 0 0.25 0"/>
<feBlend mode="normal" in2="BackgroundImageFix" result="effect1_dropShadow"/>
<feBlend mode="normal" in="SourceGraphic" in2="effect1_dropShadow" result="shape"/>
</filter>
<filter id="filter2_d" x="260.096" y="39.2724" width="54.2524" height="65.2435" filterUnits="userSpaceOnUse" color-interpolation-filters="sRGB">
<feFlood flood-opacity="0" result="BackgroundImageFix"/>
<feColorMatrix in="SourceAlpha" type="matrix" values="0 0 0 0 0 0 0 0 0 0 0 0 0 0 0 0 0 0 127 0"/>
<feOffset dx="3"/>
<feGaussianBlur stdDeviation="5"/>
<feColorMatrix type="matrix" values="0 0 0 0 0 0 0 0 0 0 0 0 0 0 0 0 0 0 0.25 0"/>
<feBlend mode="normal" in2="BackgroundImageFix" result="effect1_dropShadow"/>
<feBlend mode="normal" in="SourceGraphic" in2="effect1_dropShadow" result="shape"/>
</filter>
<filter id="filter3_d" x="345" y="207" width="474.782" height="150.167" filterUnits="userSpaceOnUse" color-interpolation-filters="sRGB">
<feFlood flood-opacity="0" result="BackgroundImageFix"/>
<feColorMatrix in="SourceAlpha" type="matrix" values="0 0 0 0 0 0 0 0 0 0 0 0 0 0 0 0 0 0 127 0"/>
<feOffset dy="4"/>
<feGaussianBlur stdDeviation="2"/>
<feColorMatrix type="matrix" values="0 0 0 0 0 0 0 0 0 0 0 0 0 0 0 0 0 0 0.25 0"/>
<feBlend mode="normal" in2="BackgroundImageFix" result="effect1_dropShadow"/>
<feBlend mode="normal" in="SourceGraphic" in2="effect1_dropShadow" result="shape"/>
</filter>
<filter id="filter4_d" x="395.854" y="278.463" width="44.813" height="35.6574" filterUnits="userSpaceOnUse" color-interpolation-filters="sRGB">
<feFlood flood-opacity="0" result="BackgroundImageFix"/>
<feColorMatrix in="SourceAlpha" type="matrix" values="0 0 0 0 0 0 0 0 0 0 0 0 0 0 0 0 0 0 127 0"/>
<feOffset dx="1" dy="4"/>
<feGaussianBlur stdDeviation="3.5"/>
<feColorMatrix type="matrix" values="0 0 0 0 0 0 0 0 0 0 0 0 0 0 0 0 0 0 0.25 0"/>
<feBlend mode="normal" in2="BackgroundImageFix" result="effect1_dropShadow"/>
<feBlend mode="normal" in="SourceGraphic" in2="effect1_dropShadow" result="shape"/>
</filter>
<filter id="filter5_d" x="395.854" y="250.047" width="44.8038" height="48.5856" filterUnits="userSpaceOnUse" color-interpolation-filters="sRGB">
<feFlood flood-opacity="0" result="BackgroundImageFix"/>
<feColorMatrix in="SourceAlpha" type="matrix" values="0 0 0 0 0 0 0 0 0 0 0 0 0 0 0 0 0 0 127 0"/>
<feOffset dx="1" dy="4"/>
<feGaussianBlur stdDeviation="3.5"/>
<feColorMatrix type="matrix" values="0 0 0 0 0 0 0 0 0 0 0 0 0 0 0 0 0 0 0.25 0"/>
<feBlend mode="normal" in2="BackgroundImageFix" result="effect1_dropShadow"/>
<feBlend mode="normal" in="SourceGraphic" in2="effect1_dropShadow" result="shape"/>
</filter>
<linearGradient id="paint0_linear" x1="58.6036" y1="544.562" x2="67.2194" y2="576.535" gradientUnits="userSpaceOnUse">
<stop stop-color="#AD00FF"/>
<stop offset="1" stop-color="#7900F1"/>
</linearGradient>
<linearGradient id="paint1_linear" x1="402.288" y1="484.016" x2="623.288" y2="484.016" gradientUnits="userSpaceOnUse">
<stop stop-color="#7B00FF"/>
<stop offset="1"/>
</linearGradient>
<linearGradient id="paint2_linear" x1="361.5" y1="502" x2="412.5" y2="502" gradientUnits="userSpaceOnUse">
<stop stop-color="#7B00FF"/>
<stop offset="1"/>
</linearGradient>
<linearGradient id="paint3_linear" x1="402.044" y1="95.8669" x2="623.044" y2="95.867" gradientUnits="userSpaceOnUse">
<stop stop-color="#7B00FF"/>
<stop offset="1"/>
</linearGradient>
<linearGradient id="paint4_linear" x1="401.751" y1="52.0166" x2="623.517" y2="52.0166" gradientUnits="userSpaceOnUse">
<stop stop-color="#7B00FF"/>
<stop offset="1"/>
</linearGradient>
<linearGradient id="paint5_linear" x1="361.268" y1="113.851" x2="412.263" y2="113.851" gradientUnits="userSpaceOnUse">
<stop stop-color="#7B00FF"/>
<stop offset="1"/>
</linearGradient>
<linearGradient id="paint6_linear" x1="533.363" y1="302.056" x2="754.363" y2="302.056" gradientUnits="userSpaceOnUse">
<stop stop-color="#7B00FF"/>
<stop offset="1"/>
</linearGradient>
<linearGradient id="paint7_linear" x1="660" y1="260" x2="505.5" y2="260" gradientUnits="userSpaceOnUse">
<stop stop-color="#7B00FF"/>
<stop offset="1"/>
</linearGradient>
<linearGradient id="paint8_linear" x1="537.5" y1="320" x2="492.5" y2="320" gradientUnits="userSpaceOnUse">
<stop stop-color="#7B00FF"/>
<stop offset="1"/>
</linearGradient>
</defs>
</svg>
