<svg width="812" height="578" viewBox="0 0 812 578" fill="none" xmlns="http://www.w3.org/2000/svg">
<g id="Group 2">
<g id="coincont2">
<path id="Vector" d="M215.51 1.50843C216.156 0.863858 217.032 0.501065 217.946 0.499934C217.946 0.499934 217.946 0.499934 217.946 0.499934L676.836 0.499878C677.75 0.501028 678.626 0.863811 679.272 1.50837C679.918 2.15296 680.281 3.02672 680.282 3.93785V138.229C680.281 139.14 679.918 140.013 679.272 140.658C678.626 141.303 677.75 141.665 676.836 141.667H217.946C217.032 141.665 216.156 141.303 215.51 140.658C214.864 140.014 214.501 139.14 214.5 138.229V3.93762C214.501 3.02659 214.864 2.15295 215.51 1.50843Z" fill="#6523AC" stroke="black"/>
<path id="Vector_2" d="M670.075 10.1779V131.611H224.069V10.1779H670.075Z" fill="white" stroke="black"/>
<path id="Vector_3" d="M609.883 108.976C611.015 107.846 612.551 107.211 614.152 107.211H640.296C641.897 107.211 643.433 107.846 644.564 108.976C645.696 110.105 646.332 111.637 646.332 113.233C646.332 114.83 645.696 116.362 644.564 117.491C643.433 118.621 641.897 119.256 640.296 119.256H614.152C612.551 119.256 611.015 118.621 609.883 117.491C608.751 116.362 608.116 114.83 608.116 113.233C608.116 111.637 608.751 110.105 609.883 108.976Z" fill="#6523AC" stroke="black"/>
<g id="Vector_4">
<path d="M345.528 94.5604H646.332V95.2764H345.528V94.5604Z" fill="#E6E6E6"/>
<path d="M345.528 94.5604H646.332V95.2764H345.528V94.5604Z" fill="url(#paint0_linear)"/>
<path d="M345.528 94.5604H646.332V95.2764H345.528V94.5604Z" stroke="black"/>
</g>
<g id="Vector_5">
<path d="M397.203 72.9388L397.453 73.0588L397.687 72.9095L428.399 53.3302L428.574 53.4044L428.575 53.4047L489.69 79.4199L489.901 79.5095L490.106 79.4088L538.908 55.4871L586.284 74.6529L586.571 74.769L586.803 74.5641L646.219 22.05L646.696 22.5868L586.715 75.5998L539.143 56.355L538.936 56.2713L538.736 56.3696L489.922 80.2972L428.709 54.241L428.467 54.1378L428.244 54.2794L397.504 73.8774L376.268 63.7055L376.011 63.5827L375.775 63.7401L345.643 83.785L345.245 83.1887L375.953 62.7605L397.203 72.9388Z" fill="#3F3D56"/>
<path d="M397.203 72.9388L397.453 73.0588L397.687 72.9095L428.399 53.3302L428.574 53.4044L428.575 53.4047L489.69 79.4199L489.901 79.5095L490.106 79.4088L538.908 55.4871L586.284 74.6529L586.571 74.769L586.803 74.5641L646.219 22.05L646.696 22.5868L586.715 75.5998L539.143 56.355L538.936 56.2713L538.736 56.3696L489.922 80.2972L428.709 54.241L428.467 54.1378L428.244 54.2794L397.504 73.8774L376.268 63.7055L376.011 63.5827L375.775 63.7401L345.643 83.785L345.245 83.1887L375.953 62.7605L397.203 72.9388Z" fill="url(#paint1_linear)"/>
<path d="M397.203 72.9388L397.453 73.0588L397.687 72.9095L428.399 53.3302L428.574 53.4044L428.575 53.4047L489.69 79.4199L489.901 79.5095L490.106 79.4088L538.908 55.4871L586.284 74.6529L586.571 74.769L586.803 74.5641L646.219 22.05L646.696 22.5868L586.715 75.5998L539.143 56.355L538.936 56.2713L538.736 56.3696L489.922 80.2972L428.709 54.241L428.467 54.1378L428.244 54.2794L397.504 73.8774L376.268 63.7055L376.011 63.5827L375.775 63.7401L345.643 83.785L345.245 83.1887L375.953 62.7605L397.203 72.9388Z" stroke="black"/>
</g>
<g id="coin1">
<path id="Vector_6" d="M319.511 70.8942C319.511 91.5972 302.691 108.382 281.942 108.382C261.192 108.382 244.372 91.5972 244.372 70.8942C244.372 50.1911 261.192 33.4062 281.942 33.4062C302.691 33.4062 319.511 50.1911 319.511 70.8942Z" fill="#6523AC" stroke="black"/>
<path id="Vector_7" d="M297.259 66.4603C297.97 61.7065 294.343 59.151 289.384 57.4462L290.992 51.0066L287.063 50.0297L285.497 56.2996C284.465 56.0428 283.405 55.8006 282.351 55.5605L283.928 49.2493L280.002 48.2724L278.392 54.7098C277.537 54.5156 276.698 54.3235 275.884 54.1214L275.888 54.1014L270.471 52.7516L269.426 56.9382C269.426 56.9382 272.341 57.6047 272.279 57.646C272.823 57.711 273.319 57.9862 273.661 58.4126C274.003 58.8389 274.164 59.3823 274.109 59.9258L272.277 67.2618C272.416 67.2964 272.552 67.34 272.685 67.3925L272.271 67.2898L269.701 77.5665C269.645 77.7459 269.553 77.9124 269.432 78.0564C269.311 78.2004 269.162 78.3191 268.995 78.4056C268.828 78.4921 268.645 78.5448 268.457 78.5606C268.27 78.5764 268.08 78.555 267.901 78.4977C267.94 78.5546 265.046 77.7865 265.046 77.7865L263.096 82.2746L268.209 83.5462C269.16 83.784 270.092 84.0329 271.008 84.2674L269.382 90.7818L273.306 91.7587L274.917 85.3146C275.988 85.6049 277.028 85.8728 278.047 86.1251L276.442 92.5391L280.37 93.5159L281.996 87.0149C288.694 88.2799 293.732 87.7696 295.85 81.7253C297.559 76.8576 295.766 74.0498 292.242 72.2177C294.809 71.6249 296.742 69.9402 297.258 66.4603L297.259 66.4603ZM288.283 79.0191C287.068 83.8867 278.855 81.2564 276.191 80.5955L278.349 71.9665C281.011 72.6297 289.549 73.9427 288.284 79.0191H288.283ZM289.496 66.39C288.389 70.8177 281.553 68.5681 279.334 68.0166L281.29 60.1904C283.509 60.7419 290.651 61.7713 289.496 66.39Z" fill="white"/>
</g>
<g id="Vector_8">
<path d="M347.023 109.598C347.976 108.646 349.269 108.11 350.617 108.109H409.086C410.436 108.109 411.731 108.644 412.685 109.596C413.639 110.548 414.175 111.839 414.175 113.186C414.175 114.532 413.639 115.823 412.685 116.775C411.731 117.727 410.436 118.263 409.086 118.263H350.618C349.269 118.261 347.976 117.725 347.023 116.773C346.07 115.821 345.535 114.531 345.535 113.186C345.535 111.841 346.07 110.55 347.023 109.598Z" fill="#E6E6E6"/>
<path d="M347.023 109.598C347.976 108.646 349.269 108.11 350.617 108.109H409.086C410.436 108.109 411.731 108.644 412.685 109.596C413.639 110.548 414.175 111.839 414.175 113.186C414.175 114.532 413.639 115.823 412.685 116.775C411.731 117.727 410.436 118.263 409.086 118.263H350.618C349.269 118.261 347.976 117.725 347.023 116.773C346.07 115.821 345.535 114.531 345.535 113.186C345.535 111.841 346.07 110.55 347.023 109.598Z" fill="url(#paint2_linear)"/>
<path d="M347.023 109.598C347.976 108.646 349.269 108.11 350.617 108.109H409.086C410.436 108.109 411.731 108.644 412.685 109.596C413.639 110.548 414.175 111.839 414.175 113.186C414.175 114.532 413.639 115.823 412.685 116.775C411.731 117.727 410.436 118.263 409.086 118.263H350.618C349.269 118.261 347.976 117.725 347.023 116.773C346.07 115.821 345.535 114.531 345.535 113.186C345.535 111.841 346.07 110.55 347.023 109.598Z" stroke="black"/>
</g>
</g>
<g id="coincont1">
<path id="Vector_9" d="M346.51 207.508C347.156 206.864 348.032 206.501 348.946 206.5C348.946 206.5 348.946 206.5 348.946 206.5L807.836 206.5C808.75 206.501 809.626 206.864 810.272 207.508C810.918 208.153 811.281 209.027 811.282 209.938V344.229C811.281 345.14 810.918 346.013 810.272 346.658C809.626 347.303 808.75 347.665 807.836 347.667H348.946C348.032 347.665 347.156 347.303 346.51 346.658C345.864 346.014 345.501 345.14 345.5 344.229V209.938C345.501 209.027 345.864 208.153 346.51 207.508Z" fill="#6523AC" stroke="black"/>
<path id="Vector_10" d="M801.393 216.367V337.8H355.388V216.367H801.393Z" fill="white" stroke="black"/>
<path id="Vector_11" d="M741.202 315.165C742.334 314.035 743.869 313.4 745.471 313.4H771.615C773.216 313.4 774.751 314.035 775.883 315.165C777.015 316.294 777.651 317.826 777.651 319.423C777.651 321.019 777.015 322.551 775.883 323.68C774.751 324.81 773.216 325.445 771.615 325.445H745.471C743.869 325.445 742.334 324.81 741.202 323.68C740.07 322.551 739.435 321.019 739.435 319.423C739.435 317.826 740.07 316.294 741.202 315.165Z" fill="#6523AC" stroke="black"/>
<path id="Vector_12" d="M476.847 300.75H777.651V301.466H476.847V300.75Z" fill="url(#paint3_linear)" stroke="black"/>
<g id="Vector_13">
<path d="M528.522 279.128L528.773 279.248L529.007 279.099L559.718 259.52L559.893 259.594L559.894 259.594L621.009 285.609L621.219 285.699L621.425 285.598L670.227 261.677L717.604 280.842L717.891 280.958L718.122 280.753L777.539 228.24L778.015 228.777L718.034 281.789L670.463 262.545L670.256 262.461L670.055 262.559L621.241 286.487L560.028 260.431L559.786 260.327L559.564 260.469L528.822 280.067L507.587 269.896L507.331 269.773L507.094 269.931L476.963 289.975L476.564 289.378L507.272 268.95L528.522 279.128Z" fill="#3F3D56"/>
<path d="M528.522 279.128L528.773 279.248L529.007 279.099L559.718 259.52L559.893 259.594L559.894 259.594L621.009 285.609L621.219 285.699L621.425 285.598L670.227 261.677L717.604 280.842L717.891 280.958L718.122 280.753L777.539 228.24L778.015 228.777L718.034 281.789L670.463 262.545L670.256 262.461L670.055 262.559L621.241 286.487L560.028 260.431L559.786 260.327L559.564 260.469L528.822 280.067L507.587 269.896L507.331 269.773L507.094 269.931L476.963 289.975L476.564 289.378L507.272 268.95L528.522 279.128Z" fill="url(#paint4_linear)"/>
<path d="M528.522 279.128L528.773 279.248L529.007 279.099L559.718 259.52L559.893 259.594L559.894 259.594L621.009 285.609L621.219 285.699L621.425 285.598L670.227 261.677L717.604 280.842L717.891 280.958L718.122 280.753L777.539 228.24L778.015 228.777L718.034 281.789L670.463 262.545L670.256 262.461L670.055 262.559L621.241 286.487L560.028 260.431L559.786 260.327L559.564 260.469L528.822 280.067L507.587 269.896L507.331 269.773L507.094 269.931L476.963 289.975L476.564 289.378L507.272 268.95L528.522 279.128Z" stroke="black"/>
</g>
<g id="Vector_14">
<path d="M478.337 315.785C479.291 314.833 480.586 314.298 481.936 314.298H540.405C541.755 314.298 543.05 314.833 544.004 315.785C544.958 316.737 545.494 318.029 545.494 319.375C545.494 320.721 544.958 322.012 544.004 322.964C543.05 323.917 541.755 324.452 540.405 324.452H481.936C480.586 324.452 479.291 323.917 478.337 322.964C477.383 322.012 476.847 320.721 476.847 319.375C476.847 318.029 477.383 316.737 478.337 315.785Z" fill="#E6E6E6"/>
<path d="M478.337 315.785C479.291 314.833 480.586 314.298 481.936 314.298H540.405C541.755 314.298 543.05 314.833 544.004 315.785C544.958 316.737 545.494 318.029 545.494 319.375C545.494 320.721 544.958 322.012 544.004 322.964C543.05 323.917 541.755 324.452 540.405 324.452H481.936C480.586 324.452 479.291 323.917 478.337 322.964C477.383 322.012 476.847 320.721 476.847 319.375C476.847 318.029 477.383 316.737 478.337 315.785Z" fill="url(#paint5_linear)"/>
<path d="M478.337 315.785C479.291 314.833 480.586 314.298 481.936 314.298H540.405C541.755 314.298 543.05 314.833 544.004 315.785C544.958 316.737 545.494 318.029 545.494 319.375C545.494 320.721 544.958 322.012 544.004 322.964C543.05 323.917 541.755 324.452 540.405 324.452H481.936C480.586 324.452 479.291 323.917 478.337 322.964C477.383 322.012 476.847 320.721 476.847 319.375C476.847 318.029 477.383 316.737 478.337 315.785Z" stroke="black"/>
</g>
<g id="coin2">
<path id="Vector_15" d="M450.83 277.083C450.83 297.786 434.01 314.571 413.26 314.571C392.511 314.571 375.691 297.786 375.691 277.083C375.691 256.38 392.511 239.595 413.26 239.595C434.01 239.595 450.83 256.38 450.83 277.083Z" fill="#6523AC" stroke="black"/>
<path id="Vector_16" d="M413.256 302.12L428.667 280.463L413.256 289.542L397.854 280.463L413.256 302.12Z" fill="white"/>
<path id="Vector_17" d="M413.255 286.632L428.658 277.548L413.256 252.047L397.854 277.548L413.255 286.632Z" fill="white"/>
</g>
</g>
<g id="male">
<path id="Vector_18" d="M163.5 557.191C163.133 560.418 160.47 563.317 155.822 565.846C151.183 568.371 144.69 570.457 136.941 572.106C121.451 575.403 101.063 576.927 80.7607 576.78C60.4587 576.634 40.277 574.817 25.1995 571.447C17.6564 569.761 11.4231 567.694 7.09532 565.271C2.75144 562.839 0.485492 560.144 0.500073 557.248C0.867034 554.021 3.52986 551.123 8.17756 548.594C12.8169 546.069 19.3101 543.983 27.0588 542.334C42.5491 539.037 62.9371 537.513 83.2392 537.66C103.541 537.806 123.723 539.623 138.8 542.993C146.344 544.678 152.577 546.746 156.905 549.169C161.249 551.6 163.515 554.295 163.5 557.191Z" fill="url(#paint6_linear)" stroke="black"/>
<path id="Vector_19" d="M118.785 500.566L112.525 487.004L126.238 469.073L137.482 475.205L130.076 499.54L118.785 500.566Z" fill="#FFB8B8" stroke="black"/>
<path id="Vector_20" d="M88.5779 529.966L71.0789 528.936L71.3121 520.016L88.5779 519.047V529.966Z" fill="#FFB8B8" stroke="black"/>
<path id="Vector_21" d="M81.9519 427.106L81.9566 427.065L81.9546 427.023L77.6187 340.307L129.901 325.369L123.427 406.297L102.823 525.581L71.1192 521.354L81.9519 427.106Z" fill="#210145" stroke="black"/>
<path id="Vector_22" d="M63.5504 397.516L63.4769 397.786L63.6682 397.99L129.796 468.454L104.338 500.276C104.326 500.26 104.314 500.244 104.302 500.228C104.024 499.854 103.612 499.301 103.079 498.588C102.013 497.163 100.46 495.094 98.5111 492.524C94.6133 487.384 89.1328 480.236 82.8011 472.202C70.1406 456.138 54.0664 436.521 40.437 422.346C33.7254 415.367 29.464 404.788 26.8687 392.778C24.2755 380.779 23.3579 367.409 23.2899 354.905C23.222 342.404 24.0033 330.783 24.802 322.287C25.2013 318.039 25.6047 314.574 25.9083 312.171C26.0601 310.969 26.1869 310.033 26.2756 309.399C26.32 309.081 26.3549 308.839 26.3786 308.676C26.3905 308.595 26.3996 308.533 26.4057 308.492L26.4067 308.486L43.6831 264.215L121.312 265.293L129.909 324.395L76.8874 349.283L76.6783 349.381L76.6175 349.604L63.5504 397.516Z" fill="#210145" stroke="black"/>
<path id="Vector_23" d="M69.9516 91.2808L98.3783 101.809V125.274L82.4087 150.825C82.2427 150.7 82.032 150.541 81.7824 150.35C81.1105 149.837 80.1562 149.099 79.0279 148.2C76.7702 146.401 73.8202 143.959 71.0423 141.385C68.2578 138.804 65.6729 136.113 64.1242 133.815C63.3467 132.662 62.8608 131.651 62.7152 130.83C62.5747 130.038 62.7536 129.477 63.2562 129.075C64.0393 128.448 64.6914 127.346 65.2503 125.986C65.8156 124.611 66.312 122.906 66.749 121.004C67.6233 117.198 68.2724 112.547 68.7496 108.047C69.2271 103.545 69.5339 99.181 69.7214 95.9434C69.8151 94.3243 69.879 92.9862 69.9195 92.0526C69.9326 91.7521 69.9432 91.4934 69.9516 91.2808Z" fill="#FFB8B8" stroke="black"/>
<path id="Vector_24" d="M79.9496 136.583L80.2559 137.045L80.6843 136.693L98.8121 121.764L114.703 140.833L108.202 276.267L57.9646 275.198L49.2942 157.065L60.1228 126.744L67.1247 117.217L79.9496 136.583Z" fill="#6523AC" stroke="black"/>
<path id="Vector_25" d="M137.474 237.703L137.507 237.576L137.474 237.45L125.527 191.833L136.311 144.382L144.484 143.36C144.52 143.391 144.565 143.431 144.617 143.483C144.801 143.668 145.081 144.004 145.401 144.58C146.043 145.736 146.846 147.85 147.385 151.622C147.931 155.449 151.474 174.25 154.875 192.072C156.577 200.987 158.244 209.665 159.486 216.114C160.107 219.338 160.622 222.005 160.981 223.866L161.398 226.022L161.507 226.588L161.526 226.683L144.351 308.263L125.557 283.204L137.474 237.703Z" fill="#2F2E41" stroke="black"/>
<path id="Vector_26" d="M27.6 247.331L27.5943 247.394L27.6042 247.456L31.9309 274.497L17.4279 298.324L2.47496 231.034L18.7138 143.34H24.4208L37.3739 209.185L29.8361 223.184L29.7877 223.274L29.7784 223.376L27.6 247.331Z" fill="#2F2E41" stroke="black"/>
<path id="Vector_27" d="M119.568 516.34C120.042 516.182 120.042 516.182 120.042 516.182L120.042 516.182L120.041 516.18L120.039 516.173L120.03 516.145L119.994 516.036C119.962 515.94 119.915 515.798 119.856 515.615C119.737 515.251 119.568 514.725 119.364 514.08C118.957 512.79 118.414 511.025 117.871 509.125C117.328 507.224 116.786 505.193 116.381 503.369C115.973 501.533 115.712 499.947 115.712 498.918C115.712 497.974 116.054 497.46 116.51 497.156C117.003 496.828 117.702 496.695 118.479 496.695C119.245 496.695 120.023 496.824 120.616 496.956C120.911 497.021 121.157 497.087 121.328 497.135C121.413 497.16 121.479 497.18 121.524 497.194C121.535 497.197 121.544 497.2 121.552 497.203C121.561 497.205 121.568 497.208 121.573 497.209L121.585 497.213L121.587 497.214L121.588 497.214L121.588 497.214L121.588 497.214L121.695 497.25L121.808 497.236C126.32 496.672 129.18 494.47 130.891 491.475C132.586 488.508 133.135 484.801 133.135 481.223C133.135 477.636 132.584 474.129 132.035 471.523C131.761 470.219 131.486 469.138 131.28 468.381C131.249 468.27 131.22 468.165 131.193 468.068C131.604 468.184 132.146 468.337 132.789 468.518C134.304 468.943 136.381 469.522 138.628 470.135C143.116 471.359 148.306 472.725 151.048 473.274C151.533 473.371 151.876 473.674 152.109 474.226C152.351 474.801 152.458 475.616 152.433 476.633C152.384 478.661 151.82 481.3 151.074 483.945C150.33 486.581 149.417 489.187 148.688 491.137C148.323 492.111 148.006 492.92 147.779 493.485C147.666 493.767 147.576 493.988 147.514 494.139C147.483 494.214 147.459 494.272 147.443 494.31L147.425 494.354L147.42 494.364L147.419 494.367L147.419 494.368C147.419 494.368 147.419 494.368 147.88 494.562M119.568 516.34C120.061 516.42 120.061 516.42 120.061 516.421L120.061 516.422L120.06 516.427L120.057 516.449L120.043 516.534C120.031 516.609 120.014 516.722 119.991 516.868C119.946 517.162 119.881 517.592 119.801 518.139C119.642 519.233 119.426 520.795 119.196 522.662C118.738 526.399 118.229 531.352 118.026 536.234C117.822 541.127 117.927 545.904 118.678 549.308C119.055 551.017 119.581 552.316 120.261 553.116C120.596 553.51 120.959 553.772 121.351 553.913C121.742 554.052 122.193 554.083 122.726 553.964C125.047 553.449 127.279 551.955 129.353 549.864C131.424 547.777 133.305 545.126 134.926 542.358C138.171 536.813 140.325 530.876 140.856 528.22C141.4 525.5 143.033 517.063 144.53 509.304C145.279 505.424 145.994 501.715 146.521 498.976L147.153 495.694L147.327 494.787L147.373 494.549L147.385 494.488L147.388 494.473L147.389 494.469L147.389 494.468C147.389 494.467 147.389 494.467 147.88 494.562M119.568 516.34L120.042 516.182L120.081 516.299L120.061 516.42L119.568 516.34ZM147.88 494.562L147.389 494.467L147.399 494.416L147.419 494.368L147.88 494.562Z" fill="#210145" stroke="black"/>
<path id="Vector_28" d="M89.7118 530.804C89.7289 530.814 89.745 530.824 89.7599 530.833C89.7991 530.937 89.8565 531.091 89.9293 531.29C90.0751 531.687 90.2824 532.262 90.528 532.973C91.0192 534.396 91.6626 536.36 92.2718 538.526C92.8813 540.693 93.4544 543.055 93.8076 545.275C94.1622 547.504 94.2882 549.55 94.0294 551.103C93.9049 551.85 93.8224 552.514 93.7501 553.096C93.7421 553.16 93.7343 553.223 93.7266 553.284C93.6474 553.918 93.5778 554.437 93.4741 554.884C93.2748 555.742 92.9619 556.292 92.2188 556.749C91.422 557.239 90.1112 557.636 87.8492 558.044C85.6023 558.449 82.486 558.856 78.1267 559.401C73.8277 559.938 70.9428 559.458 69.0204 558.497C67.1132 557.543 66.1046 556.092 65.596 554.567C65.0827 553.027 65.0785 551.404 65.2106 550.149C65.2763 549.525 65.3749 548.999 65.4567 548.631C65.4975 548.448 65.534 548.304 65.56 548.207C65.573 548.158 65.5833 548.122 65.5901 548.098L65.5977 548.072L65.5994 548.067L65.5996 548.066L65.5997 548.066L65.5997 548.066L65.6136 548.021L65.6187 547.973C66.3429 541.339 67.7948 534.804 69.9482 528.487C70.3228 527.492 70.8892 526.797 71.5853 526.324C72.2881 525.847 73.1505 525.577 74.1369 525.481C76.1225 525.287 78.5252 525.804 80.885 526.614C83.234 527.419 85.4891 528.495 87.161 529.374C87.9959 529.812 88.6829 530.2 89.1605 530.478C89.3993 530.616 89.5856 530.728 89.7118 530.804Z" fill="#24004B" stroke="black"/>
<path id="Vector_29" d="M104.747 128.884L98.6052 148.569L81.1901 136.276L98.8121 121.764L104.747 128.884Z" fill="#310660" stroke="black"/>
<path id="Vector_30" d="M67.2681 117.561L79.6852 136.186L64.3688 147.418L60.2117 126.633L67.2681 117.561Z" fill="#310660" stroke="black"/>
<path id="Vector_31" d="M76.0109 252.821C75.522 252.717 75.522 252.717 75.522 252.717L75.5219 252.717L75.5215 252.719L75.5197 252.728L75.5126 252.76L75.4849 252.89L75.3776 253.388C75.284 253.822 75.148 254.451 74.9779 255.233C74.6377 256.798 74.1615 258.975 73.6172 261.424C72.5284 266.324 71.1685 272.307 70.0813 276.656C69.8324 277.652 69.0616 279.086 67.8438 280.868C66.6362 282.635 65.023 284.697 63.1397 286.937C59.3739 291.415 54.5514 296.577 49.7906 301.474C45.031 306.37 40.3386 310.994 36.8358 314.395C35.0845 316.095 33.6308 317.489 32.6151 318.458C32.1073 318.943 31.7089 319.321 31.4377 319.578C31.3466 319.664 31.2698 319.737 31.208 319.795C31.1749 319.788 31.1383 319.779 31.0982 319.769C30.8659 319.71 30.5171 319.606 30.0706 319.428C29.1781 319.071 27.8923 318.414 26.3648 317.218C23.311 314.828 19.2739 310.273 15.4894 301.622C11.7899 293.166 15.4637 284.93 20.1933 278.714C22.5501 275.616 25.1459 273.054 27.1549 271.264C28.1587 270.37 29.0143 269.67 29.6179 269.195C29.9196 268.957 30.1583 268.776 30.3208 268.654C30.402 268.594 30.4643 268.548 30.5058 268.517L30.5524 268.483L30.5638 268.475L30.5663 268.473L30.5669 268.473L30.709 268.372L30.757 268.204L37.2906 245.336L37.3152 245.25L37.3083 245.16L35.1305 216.849L35.1281 216.817L35.1217 216.786L19.953 143.11L64.0086 120.286L59.1786 182.002L59.1707 182.103L59.2028 182.199L75.5366 231.201L76.1033 232.901L76.4986 231.153L100.831 123.549L108.383 129.087L108.433 129.124L108.49 129.147L142.939 143.142L127.793 206.971L127.785 207.002L127.782 207.034L123.426 248.413L123.415 248.524L123.451 248.63L132.153 273.649L137.579 297.521L137.579 297.525C137.578 297.566 137.577 297.627 137.574 297.708C137.569 297.87 137.559 298.111 137.538 298.418C137.496 299.033 137.413 299.915 137.245 300.979C136.91 303.109 136.24 305.954 134.904 308.826C132.242 314.548 126.942 320.391 116.276 320.924C111.104 321.183 106.005 317.229 101.218 310.863C96.4556 304.531 92.1186 295.965 88.4492 287.335C84.7823 278.711 81.793 270.049 79.7201 263.542C78.6838 260.288 77.877 257.575 77.3293 255.675C77.0555 254.725 76.8465 253.979 76.7061 253.471C76.6359 253.216 76.5828 253.022 76.5473 252.891L76.5074 252.742L76.4974 252.705L76.495 252.696L76.4944 252.694C76.4942 252.693 76.4942 252.693 76.0109 252.821ZM76.0109 252.821L75.522 252.717L76.4942 252.693L76.0109 252.821Z" fill="#2F2E41" stroke="black"/>
<path id="Vector_32" d="M113.623 85.1273C113.623 98.0819 103.121 108.584 90.1669 108.584C77.2124 108.584 66.7107 98.0819 66.7107 85.1273C66.7107 72.1728 77.2124 61.6711 90.1669 61.6711C103.121 61.6711 113.623 72.1728 113.623 85.1273Z" fill="#FFB8B8" stroke="black"/>
<path id="Vector_33" d="M75.8897 84.6423L75.7626 84.6741L75.6674 84.7641L69.1055 90.9692L68.9615 91.1053L68.9499 91.3032L68.5102 98.8063C68.4232 98.5866 68.3305 98.3503 68.2329 98.0982C67.5603 96.3616 66.6517 93.8753 65.7091 90.8802C63.8226 84.886 61.8058 76.8722 61.265 68.7603C60.9995 64.779 61.9278 61.6232 63.6147 59.1011C65.3065 56.5717 67.7826 54.6482 70.658 53.1771C76.4211 50.2285 83.6894 49.1454 89.1278 48.6015C94.4573 48.0686 101.715 49.6716 107.647 52.5026C110.608 53.916 113.209 55.6214 115.061 57.4906C116.918 59.3638 117.979 61.3543 117.979 63.3489C117.979 65.2869 116.911 66.6369 115.072 67.5645C113.208 68.5044 110.603 68.9759 107.703 69.1108C101.912 69.3801 95.1604 68.3002 91.3932 67.2239C89.2502 66.6116 87.4355 67.4803 85.9788 68.991C84.5345 70.4887 83.3827 72.6684 82.4896 74.8667C81.5929 77.0741 80.9397 79.3445 80.5111 81.0588C80.2966 81.917 80.1377 82.6382 80.0323 83.1457C79.9919 83.3403 79.9594 83.5035 79.9346 83.6311L75.8897 84.6423Z" fill="#2F2E41" stroke="black"/>
</g>
<g id="coincont3">
<path id="Vector_34" d="M215.51 389.508C216.156 388.864 217.032 388.501 217.946 388.5C217.946 388.5 217.946 388.5 217.946 388.5L676.836 388.5C677.75 388.501 678.626 388.864 679.272 389.508C679.918 390.153 680.281 391.027 680.282 391.938V526.229C680.281 527.14 679.918 528.013 679.272 528.658C678.626 529.303 677.75 529.665 676.836 529.667H217.946C217.032 529.665 216.156 529.303 215.51 528.658C214.864 528.014 214.501 527.14 214.5 526.229V391.938C214.501 391.027 214.864 390.153 215.51 389.508Z" fill="#6523AC" stroke="black"/>
<path id="Vector_35" d="M670.32 398.327V519.76H224.314V398.327H670.32Z" fill="white" stroke="black"/>
<g id="Vector_36">
<path d="M345.773 482.709H646.577V483.425H345.773V482.709Z" fill="#C4C4C4"/>
<path d="M345.773 482.709H646.577V483.425H345.773V482.709Z" fill="url(#paint7_linear)"/>
<path d="M345.773 482.709H646.577V483.425H345.773V482.709Z" stroke="black"/>
</g>
<path id="Vector_37" d="M594.996 421.035L594.745 420.915L594.511 421.064L563.799 440.643L502.508 414.554L502.297 414.464L502.092 414.565L453.29 438.486L405.914 419.32L405.627 419.204L405.395 419.409L345.979 471.923L345.503 471.386L405.483 418.373L453.055 437.618L453.262 437.702L453.463 437.604L502.277 413.676L563.49 439.732L563.733 439.836L563.955 439.694L594.695 420.095L615.93 430.266L616.187 430.389L616.423 430.231L646.555 410.188L646.953 410.784L616.245 431.213L594.996 421.035Z" fill="#3F3D56" stroke="black"/>
<path id="Vector_38" d="M350.862 495.758C350.127 495.757 349.4 495.9 348.721 496.18C348.042 496.46 347.425 496.871 346.905 497.389C346.385 497.907 345.973 498.522 345.692 499.199C345.41 499.876 345.266 500.602 345.266 501.335C345.266 502.068 345.41 502.793 345.692 503.471C345.973 504.148 346.385 504.763 346.905 505.281C347.425 505.799 348.042 506.209 348.721 506.489C349.4 506.769 350.127 506.913 350.862 506.912H409.331C410.812 506.91 412.232 506.321 413.278 505.276C414.325 504.23 414.913 502.813 414.913 501.335C414.913 499.857 414.325 498.439 413.278 497.394C412.232 496.348 410.812 495.759 409.331 495.758H350.862Z" fill="url(#paint8_linear)"/>
<g id="coin3">
<path id="Vector_39" d="M319.755 459.043C319.755 479.746 302.936 496.531 282.186 496.531C261.436 496.531 244.617 479.746 244.617 459.043C244.617 438.34 261.436 421.555 282.186 421.555C302.936 421.555 319.755 438.34 319.755 459.043Z" fill="#6523AC" stroke="black"/>
<path id="Vector_40" d="M296.726 442.049H302.674L290.297 454.272C288.135 456.398 285.221 457.591 282.185 457.591C279.149 457.591 276.234 456.398 274.072 454.272L261.696 442.049H267.645L277.047 451.334C278.417 452.681 280.262 453.436 282.185 453.436C284.108 453.436 285.954 452.681 287.324 451.334L296.726 442.049ZM267.569 476.038H261.621L274.074 463.739C276.236 461.613 279.15 460.42 282.186 460.42C285.222 460.42 288.136 461.613 290.299 463.739L302.752 476.038H296.803L287.324 466.677C285.954 465.33 284.108 464.575 282.185 464.575C280.263 464.575 278.417 465.33 277.047 466.677L267.569 476.038Z" fill="white"/>
</g>
<path id="Vector_41" d="M614.396 495.36H614.396H640.541C642.142 495.36 643.677 495.995 644.809 497.125C645.941 498.254 646.577 499.786 646.577 501.383C646.577 502.979 645.941 504.511 644.809 505.64C643.677 506.77 642.142 507.405 640.541 507.405H614.396L614.396 507.405C613.602 507.406 612.817 507.25 612.083 506.948C611.35 506.646 610.684 506.202 610.123 505.643C609.561 505.084 609.116 504.419 608.812 503.688C608.509 502.957 608.352 502.174 608.352 501.383C608.352 500.591 608.509 499.808 608.812 499.077C609.116 498.346 609.561 497.681 610.123 497.122C610.684 496.563 611.35 496.119 612.083 495.817C612.817 495.515 613.602 495.359 614.396 495.36ZM640.541 494.86H614.396L611.893 495.355C611.099 495.682 610.377 496.162 609.77 496.768C609.162 497.374 608.68 498.093 608.351 498.885C608.022 499.677 607.852 500.525 607.852 501.383C607.852 502.24 608.022 503.088 608.351 503.88C608.68 504.672 609.162 505.391 609.77 505.997C610.377 506.603 611.099 507.083 611.893 507.41C612.687 507.738 613.537 507.906 614.396 507.905H640.541C642.274 507.905 643.937 507.218 645.162 505.994C646.388 504.771 647.077 503.112 647.077 501.383C647.077 499.653 646.388 497.994 645.162 496.771C643.937 495.548 642.274 494.86 640.541 494.86Z" fill="#6523AC" stroke="black"/>
</g>
<circle id="Ellipse 1" cx="76.5" cy="240.5" r="3" fill="#6523AC" stroke="black"/>
</g>
<defs>
<linearGradient id="paint0_linear" x1="398.044" y1="94.8669" x2="619.044" y2="94.867" gradientUnits="userSpaceOnUse">
<stop stop-color="#7B00FF"/>
<stop offset="1"/>
</linearGradient>
<linearGradient id="paint1_linear" x1="397.751" y1="51.0166" x2="619.517" y2="51.0166" gradientUnits="userSpaceOnUse">
<stop stop-color="#7B00FF"/>
<stop offset="1"/>
</linearGradient>
<linearGradient id="paint2_linear" x1="357.268" y1="112.851" x2="408.263" y2="112.851" gradientUnits="userSpaceOnUse">
<stop stop-color="#7B00FF"/>
<stop offset="1"/>
</linearGradient>
<linearGradient id="paint3_linear" x1="529.363" y1="301.056" x2="750.363" y2="301.056" gradientUnits="userSpaceOnUse">
<stop stop-color="#7B00FF"/>
<stop offset="1"/>
</linearGradient>
<linearGradient id="paint4_linear" x1="656" y1="259" x2="501.5" y2="259" gradientUnits="userSpaceOnUse">
<stop stop-color="#7B00FF"/>
<stop offset="1"/>
</linearGradient>
<linearGradient id="paint5_linear" x1="533.5" y1="319" x2="488.5" y2="319" gradientUnits="userSpaceOnUse">
<stop stop-color="#7B00FF"/>
<stop offset="1"/>
</linearGradient>
<linearGradient id="paint6_linear" x1="32" y1="557" x2="99" y2="557" gradientUnits="userSpaceOnUse">
<stop stop-color="#7800FF"/>
<stop offset="1" stop-color="#24034A"/>
</linearGradient>
<linearGradient id="paint7_linear" x1="398.288" y1="483.016" x2="619.288" y2="483.016" gradientUnits="userSpaceOnUse">
<stop stop-color="#7B00FF"/>
<stop offset="1"/>
</linearGradient>
<linearGradient id="paint8_linear" x1="357.5" y1="501" x2="408.5" y2="501" gradientUnits="userSpaceOnUse">
<stop stop-color="#7B00FF"/>
<stop offset="1"/>
</linearGradient>
</defs>
</svg>
