<svg width="926" height="541" viewBox="0 0 926 541" fill="none" xmlns="http://www.w3.org/2000/svg">
<g id="Group 1">
<g id="background">
<g id="Vector" opacity="0.3" filter="url(#filter0_d)">
<path d="M279.605 393.571C279.605 355.794 256.201 325.169 227.331 325.169C209.186 325.169 193.205 337.272 183.832 355.64C180.613 354.555 177.239 354 173.842 353.999C165.057 354.147 156.67 357.685 150.435 363.873C141.986 340.971 124.07 325.169 103.333 325.169C83.9443 325.169 67.0336 338.993 58.0092 359.509C52.7157 355.958 46.4938 354.042 40.1185 353.999C17.9625 353.999 0.00141813 377.501 0.00141813 406.493C-0.0634496 416.272 2.09784 425.938 6.32179 434.76H269.063C276.108 422.183 279.743 407.984 279.605 393.571Z" fill="#6523AC"/>
<path d="M279.105 393.571L279.105 393.576C279.241 407.804 275.679 421.822 268.769 434.26H6.6376C2.53547 425.583 0.437738 416.095 0.501418 406.497V406.493C0.501418 392.097 4.9613 379.083 12.1487 369.678C19.3354 360.273 29.2281 354.499 40.1168 354.499C46.3935 354.541 52.519 356.428 57.7307 359.924L58.2265 360.257L58.4669 359.71C67.4387 339.314 84.2026 325.669 103.333 325.669C123.793 325.669 141.563 341.268 149.966 364.046L150.235 364.776L150.787 364.228C156.929 358.132 165.192 354.646 173.846 354.499C177.187 354.501 180.506 355.046 183.672 356.114L184.081 356.252L184.277 355.868C193.592 337.614 209.427 325.669 227.331 325.669C241.578 325.669 254.51 333.224 263.897 345.507C273.285 357.791 279.105 374.783 279.105 393.571Z" stroke="black"/>
</g>
<g id="Vector_2">
<path d="M893.925 204.266C867.106 146.305 814.622 96.8587 751.219 88.7997C734.455 86.6689 716.952 87.5235 701.398 94.1244C682.92 101.966 668.84 117.037 655.059 131.789C653.613 133.336 652.17 134.881 650.726 136.413C618.526 170.563 582.493 200.891 543.34 226.795C524.016 239.577 503.289 251.503 480.346 254.773C434.345 261.33 388.844 229.989 367.865 188.567C359.992 173.022 354.663 155.851 349.366 138.782C345.846 127.439 342.34 116.142 338.11 105.396C325.909 105.373 311.373 105.378 295.734 105.449C252.506 105.649 217.32 106.287 217.32 106.287C217.32 106.287 259.144 50.9382 295.577 71.4444C307.22 77.9976 319.415 83.8455 330.622 88.7717C324.255 76.5361 316.224 65.527 305.176 56.6755C283.391 39.2219 253.886 34.3262 225.992 35.626C196.701 36.9909 167.141 44.8256 143.34 61.9365C100.94 92.4183 83.4306 146.072 68.4448 196.066L104.668 214.208C120.205 200.788 142.925 187.512 163.867 199.299C200.3 219.806 242.152 233.421 242.152 233.421C242.152 233.421 207.251 233.106 164.024 233.305C156.763 233.338 149.739 233.384 143.061 233.437L545.22 434.859C601.737 435.654 652.331 434.81 701.537 433.988C767.818 432.882 831.583 431.817 903.921 434.859C910.495 435.135 925.28 400.71 925.329 391.65C925.677 327.795 920.744 262.228 893.925 204.266ZM765.127 221.639C721.9 221.838 686.714 222.476 686.714 222.476C686.714 222.476 728.538 167.128 764.971 187.634C801.404 208.14 843.256 221.755 843.256 221.755C843.256 221.755 808.355 221.44 765.127 221.639Z" fill="url(#paint0_linear)"/>
<path d="M893.925 204.266C867.106 146.305 814.622 96.8587 751.219 88.7997C734.455 86.6689 716.952 87.5235 701.398 94.1244C682.92 101.966 668.84 117.037 655.059 131.789C653.613 133.336 652.17 134.881 650.726 136.413C618.526 170.563 582.493 200.891 543.34 226.795C524.016 239.577 503.289 251.503 480.346 254.773C434.345 261.33 388.844 229.989 367.865 188.567C359.992 173.022 354.663 155.851 349.366 138.782C345.846 127.439 342.34 116.142 338.11 105.396C325.909 105.373 311.373 105.378 295.734 105.449C252.506 105.649 217.32 106.287 217.32 106.287C217.32 106.287 259.144 50.9382 295.577 71.4444C307.22 77.9976 319.415 83.8455 330.622 88.7717C324.255 76.5361 316.224 65.527 305.176 56.6755C283.391 39.2219 253.886 34.3262 225.992 35.626C196.701 36.9909 167.141 44.8256 143.34 61.9365C100.94 92.4183 83.4306 146.072 68.4448 196.066L104.668 214.208C120.205 200.788 142.925 187.512 163.867 199.299C200.3 219.806 242.152 233.421 242.152 233.421C242.152 233.421 207.251 233.106 164.024 233.305C156.763 233.338 149.739 233.384 143.061 233.437L545.22 434.859C601.737 435.654 652.331 434.81 701.537 433.988C767.818 432.882 831.583 431.817 903.921 434.859C910.495 435.135 925.28 400.71 925.329 391.65C925.677 327.795 920.744 262.228 893.925 204.266ZM765.127 221.639C721.9 221.838 686.714 222.476 686.714 222.476C686.714 222.476 728.538 167.128 764.971 187.634C801.404 208.14 843.256 221.755 843.256 221.755C843.256 221.755 808.355 221.44 765.127 221.639Z" stroke="black"/>
</g>
<g id="Vector_3" filter="url(#filter1_d)">
<path d="M599.093 452.498C599.093 403.07 573.975 363 542.989 363C523.514 363 506.362 378.835 496.303 402.869C492.904 401.46 489.261 400.73 485.581 400.721C476.202 400.721 467.531 405.519 460.459 413.64C451.391 383.675 432.162 363 409.906 363C389.096 363 370.947 381.087 361.261 407.931C355.88 403.396 349.099 400.85 342.059 400.721C318.28 400.721 299.003 431.472 299.003 469.405C298.904 482.05 301.206 494.6 305.787 506.389H587.779C594.878 491.397 599.093 472.735 599.093 452.498Z" fill="#6523AC"/>
</g>
<g id="Vector_4" opacity="0.3" filter="url(#filter2_d)">
<path d="M898.227 393.572C898.227 355.794 874.823 325.169 845.953 325.169C827.808 325.169 811.827 337.272 802.454 355.64C799.235 354.555 795.861 354 792.464 353.999C783.679 354.147 775.292 357.685 769.057 363.873C760.608 340.971 742.692 325.169 721.955 325.169C702.566 325.169 685.656 338.993 676.631 359.509C671.338 355.958 665.116 354.042 658.74 353.999C636.585 353.999 618.623 377.501 618.623 406.493C618.558 416.272 620.72 425.938 624.944 434.76H887.685C894.73 422.183 898.365 407.984 898.227 393.572V393.572Z" fill="#6523AC"/>
</g>
</g>
<g id="desktopview">
<path id="Rectangle 62" d="M847.241 42.6024H398.608V255.41H847.241V42.6024Z" fill="#6523AC" fill-opacity="0.16"/>
<path id="Rectangle 75" d="M834.412 60.851H411.437V238.403H834.412V60.851Z" fill="white"/>
<path id="Rectangle 80" d="M847.049 30.3073H398.417V49.3597H847.049V30.3073Z" fill="#6523AC"/>
<path id="Ellipse 90" d="M412.581 42.6512C414.531 42.6512 416.113 41.0702 416.113 39.1199C416.113 37.1696 414.531 35.5886 412.581 35.5886C410.63 35.5886 409.048 37.1696 409.048 39.1199C409.048 41.0702 410.63 42.6512 412.581 42.6512Z" fill="white"/>
<path id="Ellipse 91" d="M425.989 42.6512C427.94 42.6512 429.521 41.0702 429.521 39.1199C429.521 37.1696 427.94 35.5886 425.989 35.5886C424.038 35.5886 422.456 37.1696 422.456 39.1199C422.456 41.0702 424.038 42.6512 425.989 42.6512Z" fill="white"/>
<path id="Ellipse 92" d="M439.398 42.6512C441.349 42.6512 442.931 41.0702 442.931 39.1199C442.931 37.1696 441.349 35.5886 439.398 35.5886C437.447 35.5886 435.865 37.1696 435.865 39.1199C435.865 41.0702 437.447 42.6512 439.398 42.6512Z" fill="white"/>
<path id="Vector_5" d="M788.812 191.645V190.234H797.201L797.256 191.644L797.229 191.644L788.812 191.645ZM780.422 191.645H772.032V190.234H780.422V191.645ZM763.642 191.645H755.253V190.234H763.642V191.645ZM746.863 191.645H738.473V190.234H746.863V191.645ZM730.083 191.645H721.694V190.234H730.083V191.645ZM713.304 191.645H704.914V190.234H713.304V191.645ZM696.524 191.645H688.135V190.234H696.524V191.645ZM679.745 191.645H671.355V190.234H679.745V191.645ZM662.965 191.645H655.509C655.048 191.64 654.601 191.488 654.233 191.212L655.054 190.065C655.185 190.168 655.344 190.227 655.51 190.234H662.965L662.965 191.645ZM800.531 183.617H799.12V175.23H800.531V183.617ZM653.59 182.715H652.179V174.328H653.59V182.715ZM800.531 166.843H799.12V158.457H800.531V166.843ZM653.59 165.942H652.179V157.555H653.59V165.942ZM800.531 150.07H799.12V141.683H800.531V150.07ZM653.59 149.168H652.179V140.782H653.59V149.168ZM800.531 133.297H799.12V124.91H800.531V133.297ZM653.59 132.395H652.179V124.008H653.59V132.395ZM800.531 116.523H799.12V113.681C799.118 111.302 798.356 109.681 797.647 109.182L798.46 108.029C799.717 108.914 800.529 111.133 800.531 113.681V116.523ZM653.59 115.621H652.179V113.681C652.179 110.249 653.599 107.638 655.482 107.609L655.504 109.02C654.705 109.032 653.59 110.812 653.59 113.681V115.621ZM789.729 109.02H781.339V107.609H789.729V109.02ZM772.95 109.02H764.56V107.609H772.95V109.02ZM756.17 109.02H747.78V107.609H756.17V109.02ZM739.391 109.02H731.001V107.609H739.391V109.02ZM722.611 109.02H714.221V107.609H722.611V109.02ZM705.832 109.02H697.442V107.609H705.832V109.02ZM689.052 109.02H680.662V107.609H689.052V109.02ZM672.272 109.02H663.883V107.609H672.272V109.02Z" fill="#E4E4E4"/>
<path id="Rectangle 81" d="M539.797 112.575H453.31V117.538H539.797V112.575Z" fill="#E6E6E6"/>
<path id="Rectangle 82" d="M586.865 130.678H453.31V135.641H586.865V130.678Z" fill="#6523AC"/>
<path id="Rectangle 83" d="M562.154 147.733H453.31V152.696H562.154V147.733Z" fill="#E6E6E6"/>
<path id="Rectangle 84" d="M516.852 164.725H453.31V169.688H516.852V164.725Z" fill="#E6E6E6"/>
<path id="Rectangle 85" d="M549.211 181.716H453.31V186.679H549.211V181.716Z" fill="#6523AC"/>
<path id="Vector_6" d="M727.747 143.878H725.956V157.237H727.747V143.878Z" fill="#E4E4E4"/>
<path id="Vector_7" d="M734.177 149.81L732.865 151.032L726.852 144.565L720.839 151.032L719.527 149.81L726.852 141.936L734.177 149.81Z" fill="#E4E4E4"/>
</g>
<g id="phone">
<path id="Path 1321" d="M295.383 96.0131H293.176V35.5808C293.176 26.3047 289.491 17.4085 282.932 10.8493C276.373 4.29014 267.476 0.605225 258.2 0.605225H130.166C120.89 0.605225 111.994 4.29014 105.434 10.8493C98.8752 17.4085 95.1902 26.3047 95.1902 35.5808V367.118C95.1902 376.394 98.8752 385.29 105.434 391.849C111.994 398.408 120.89 402.093 130.166 402.093H258.2C267.476 402.093 276.373 398.408 282.932 391.849C289.491 385.29 293.176 376.394 293.176 367.118V139.03H295.383V96.0131Z" fill="black"/>
<path id="Path 1322" d="M259.611 9.70383H242.899C243.668 11.5883 243.961 13.6329 243.754 15.6576C243.546 17.6822 242.844 19.6248 241.709 21.3141C240.574 23.0034 239.04 24.3875 237.244 25.3446C235.448 26.3016 233.444 26.8022 231.409 26.8022H158.06C156.025 26.802 154.021 26.3014 152.225 25.3444C150.429 24.3874 148.896 23.0034 147.761 21.3143C146.626 19.6253 145.923 17.683 145.716 15.6586C145.508 13.6342 145.802 11.5898 146.57 9.70548H130.958C124.03 9.70548 117.387 12.4574 112.488 17.3559C107.59 22.2544 104.838 28.8982 104.838 35.8258V366.874C104.838 373.802 107.59 380.446 112.488 385.344C117.387 390.243 124.03 392.995 130.958 392.995H259.607C266.534 392.995 273.178 390.243 278.076 385.344C282.975 380.446 285.727 373.802 285.727 366.874V35.8241C285.727 28.8966 282.975 22.2528 278.076 17.3543C273.178 12.4558 266.534 9.70383 259.607 9.70383H259.611Z" fill="white"/>
<path id="Path 39" d="M275.116 269.717H120.859C120.102 269.716 119.376 269.415 118.84 268.88C118.305 268.344 118.004 267.618 118.003 266.861V228.597C118.004 227.839 118.305 227.113 118.84 226.578C119.376 226.042 120.102 225.741 120.859 225.74H275.116C275.873 225.741 276.599 226.042 277.134 226.578C277.67 227.113 277.971 227.839 277.972 228.597V266.861C277.971 267.619 277.67 268.344 277.134 268.88C276.599 269.415 275.873 269.716 275.116 269.717ZM120.859 226.883C120.405 226.883 119.969 227.064 119.648 227.385C119.326 227.706 119.146 228.142 119.145 228.597V266.861C119.146 267.316 119.326 267.751 119.648 268.073C119.969 268.394 120.405 268.575 120.859 268.575H275.116C275.57 268.575 276.006 268.394 276.327 268.073C276.648 267.751 276.829 267.316 276.83 266.861V228.597C276.829 228.142 276.648 227.706 276.327 227.385C276.006 227.064 275.57 226.883 275.116 226.883H120.859Z" fill="#6C63FF"/>
<path id="innercircle1" d="M141.901 235.776C135.3 235.198 129.48 240.081 128.903 246.682C128.325 253.283 133.208 259.102 139.809 259.68C146.41 260.257 152.229 255.374 152.807 248.774C153.384 242.173 148.501 236.353 141.901 235.776Z" fill="url(#paint1_linear)"/>
<path id="Path 40" d="M168.564 239.73C168.299 239.726 168.035 239.774 167.789 239.873C167.542 239.971 167.318 240.118 167.129 240.304C166.939 240.49 166.789 240.712 166.686 240.957C166.584 241.202 166.531 241.464 166.531 241.73C166.531 241.995 166.584 242.258 166.686 242.503C166.789 242.748 166.939 242.97 167.129 243.156C167.318 243.342 167.542 243.488 167.789 243.587C168.035 243.685 168.299 243.734 168.564 243.729H262.834C263.097 243.734 263.359 243.687 263.604 243.591C263.848 243.495 264.072 243.351 264.261 243.169C264.45 242.986 264.602 242.768 264.707 242.527C264.811 242.285 264.867 242.026 264.872 241.763C264.876 241.5 264.828 241.238 264.732 240.994C264.635 240.749 264.491 240.526 264.308 240.337C264.124 240.149 263.906 239.998 263.664 239.894C263.423 239.79 263.163 239.734 262.9 239.73H168.565H168.564Z" fill="black"/>
<path id="Path 41" d="M168.564 251.728C168.034 251.728 167.525 251.939 167.15 252.314C166.775 252.689 166.564 253.197 166.564 253.728C166.564 254.258 166.775 254.767 167.15 255.142C167.525 255.517 168.034 255.728 168.564 255.728H262.834C263.097 255.733 263.359 255.686 263.604 255.589C263.848 255.493 264.072 255.35 264.261 255.167C264.45 254.984 264.602 254.766 264.706 254.525C264.811 254.283 264.867 254.024 264.872 253.761C264.876 253.498 264.828 253.237 264.732 252.992C264.635 252.747 264.491 252.524 264.308 252.336C264.124 252.147 263.906 251.996 263.664 251.892C263.423 251.788 263.163 251.732 262.9 251.729H168.565L168.564 251.728Z" fill="black"/>
<path id="Path 42" d="M275.116 333.705H120.859C120.102 333.704 119.376 333.403 118.84 332.867C118.305 332.332 118.004 331.606 118.003 330.848V292.584C118.004 291.827 118.305 291.101 118.84 290.565C119.376 290.03 120.102 289.729 120.859 289.728H275.116C275.873 289.729 276.599 290.03 277.134 290.565C277.67 291.101 277.971 291.827 277.972 292.584V330.849C277.971 331.606 277.67 332.332 277.134 332.868C276.599 333.403 275.873 333.704 275.116 333.705ZM120.859 290.87C120.405 290.871 119.969 291.051 119.648 291.373C119.326 291.694 119.146 292.13 119.145 292.584V330.849C119.146 331.303 119.326 331.739 119.648 332.061C119.969 332.382 120.405 332.563 120.859 332.563H275.116C275.57 332.563 276.006 332.382 276.327 332.061C276.648 331.739 276.829 331.303 276.83 330.849V292.584C276.829 292.13 276.648 291.694 276.327 291.373C276.006 291.051 275.57 290.871 275.116 290.87H120.859Z" fill="#6C63FF"/>
<path id="innercircle2" d="M140.855 323.714C147.481 323.714 152.853 318.342 152.853 311.716C152.853 305.09 147.481 299.719 140.855 299.719C134.229 299.719 128.857 305.09 128.857 311.716C128.857 318.342 134.229 323.714 140.855 323.714Z" fill="url(#paint2_linear)"/>
<path id="Path 43" d="M168.564 303.718C168.034 303.718 167.525 303.929 167.15 304.304C166.775 304.679 166.564 305.187 166.564 305.718C166.564 306.248 166.775 306.757 167.15 307.132C167.525 307.507 168.034 307.718 168.564 307.718H262.834C263.097 307.723 263.359 307.676 263.604 307.58C263.848 307.483 264.072 307.34 264.261 307.157C264.45 306.974 264.602 306.756 264.706 306.515C264.811 306.274 264.867 306.014 264.872 305.751C264.876 305.488 264.828 305.227 264.732 304.982C264.635 304.738 264.491 304.515 264.308 304.326C264.124 304.137 263.906 303.986 263.664 303.882C263.423 303.778 263.163 303.722 262.9 303.719H168.565L168.564 303.718Z" fill="black"/>
<path id="Path 44" d="M168.564 315.716C168.034 315.716 167.525 315.926 167.15 316.301C166.775 316.676 166.564 317.185 166.564 317.715C166.564 318.246 166.775 318.755 167.15 319.13C167.525 319.505 168.034 319.715 168.564 319.715H262.834C263.097 319.72 263.359 319.673 263.604 319.577C263.848 319.481 264.072 319.337 264.261 319.155C264.45 318.972 264.602 318.754 264.706 318.513C264.811 318.271 264.867 318.012 264.872 317.749C264.876 317.486 264.828 317.224 264.732 316.98C264.635 316.735 264.491 316.512 264.308 316.323C264.124 316.135 263.906 315.984 263.664 315.88C263.423 315.775 263.163 315.72 262.9 315.716H168.565L168.564 315.716Z" fill="black"/>
<path id="Path 45" d="M194.741 190.313C180.353 190.319 166.551 184.609 156.373 174.439C146.194 164.27 140.472 150.473 140.466 136.084V136.039C140.466 135.926 140.466 135.806 140.473 135.692C140.638 105.969 164.984 81.7635 194.741 81.7635C209.136 81.7627 222.941 87.4802 233.12 97.6582C243.299 107.836 249.018 121.641 249.019 136.036C249.02 150.43 243.303 164.236 233.125 174.415C222.947 184.594 209.142 190.313 194.747 190.314H194.741V190.313ZM194.741 82.9038C180.714 82.9352 167.265 88.5008 157.318 98.3913C147.37 108.282 141.728 121.698 141.616 135.725C141.61 135.847 141.61 135.946 141.61 136.036C141.608 146.547 144.724 156.821 150.562 165.561C156.4 174.3 164.699 181.112 174.409 185.135C184.119 189.158 194.803 190.212 205.112 188.162C215.42 186.112 224.889 181.052 232.322 173.62C239.754 166.189 244.816 156.721 246.866 146.412C248.917 136.104 247.865 125.419 243.844 115.709C239.822 105.999 233.011 97.6992 224.272 91.8598C215.533 86.0205 205.259 82.9038 194.749 82.9038H194.741Z" fill="#6523AC"/>
<g id="triangle1">
<path d="M222.864 159.019H167.911C167.843 159.02 167.774 159.014 167.706 159.002L193.696 113.986C193.855 113.706 194.085 113.473 194.364 113.311C194.642 113.149 194.958 113.063 195.28 113.063C195.602 113.063 195.918 113.149 196.197 113.311C196.475 113.473 196.705 113.706 196.864 113.986L214.306 144.197L215.142 145.643L222.864 159.019Z" fill="#6523AC"/>
<path d="M222.864 159.019H167.911C167.843 159.02 167.774 159.014 167.706 159.002L193.696 113.986C193.855 113.706 194.085 113.473 194.364 113.311C194.642 113.149 194.958 113.063 195.28 113.063C195.602 113.063 195.918 113.149 196.197 113.311C196.475 113.473 196.705 113.706 196.864 113.986L214.306 144.197L215.142 145.643L222.864 159.019Z" fill="url(#paint3_linear)"/>
</g>
<g id="circle1">
<path id="Path 1363" d="M42.5103 274L87.8137 319.661H109.202V320.378H87.5141L87.4087 320.272L42 274.504L42.5103 274Z" fill="#6C63FF"/>
<path id="Path 45_2" d="M27.721 242.173C25.1678 242.172 22.6394 242.674 20.2801 243.65C17.9209 244.626 15.777 246.057 13.9709 247.862C12.1648 249.666 10.7318 251.809 9.75381 254.168C8.7758 256.526 8.27189 259.054 8.27087 261.607V261.623C8.27087 261.664 8.27087 261.707 8.27087 261.747C8.29539 265.589 9.45693 269.337 11.609 272.519C13.761 275.701 16.8072 278.175 20.3633 279.628C23.9195 281.081 27.8263 281.449 31.591 280.684C35.3558 279.92 38.8098 278.058 41.5175 275.333C44.2253 272.608 46.0654 269.142 46.8059 265.372C47.5464 261.603 47.154 257.698 45.6783 254.152C44.2026 250.605 41.7097 247.574 38.5138 245.443C35.318 243.311 31.5625 242.173 27.721 242.173ZM27.721 280.664C22.694 280.653 17.8746 278.659 14.3099 275.114C10.7452 271.57 8.72307 266.762 8.68297 261.735C8.68297 261.692 8.68297 261.656 8.68297 261.625C8.68243 257.858 9.79888 254.176 11.8911 251.044C13.9833 247.912 16.9574 245.471 20.4371 244.029C23.9168 242.588 27.746 242.21 31.4402 242.945C35.1344 243.679 38.5278 245.493 41.1912 248.156C43.8546 250.82 45.6683 254.213 46.4031 257.907C47.1378 261.602 46.7605 265.431 45.319 268.91C43.8774 272.39 41.4363 275.364 38.3043 277.457C35.1724 279.549 31.4903 280.665 27.7237 280.665L27.721 280.664Z" fill="#AAAAAA"/>
<path id="Ellipse 193" opacity="0.8" d="M21.5909 263.795C22.7901 263.795 23.7622 262.822 23.7622 261.623C23.7622 260.424 22.7901 259.452 21.5909 259.452C20.3917 259.452 19.4195 260.424 19.4195 261.623C19.4195 262.822 20.3917 263.795 21.5909 263.795Z" fill="#6523AC"/>
<path id="Ellipse 194" opacity="0.4" d="M33.8533 263.795C35.0525 263.795 36.0247 262.822 36.0247 261.623C36.0247 260.424 35.0525 259.452 33.8533 259.452C32.6541 259.452 31.6819 260.424 31.6819 261.623C31.6819 262.822 32.6541 263.795 33.8533 263.795Z" fill="#6523AC"/>
<path id="Ellipse 195" opacity="0.6" d="M27.722 263.795C28.9213 263.795 29.8934 262.822 29.8934 261.623C29.8934 260.424 28.9213 259.452 27.722 259.452C26.5228 259.452 25.5507 260.424 25.5507 261.623C25.5507 262.822 26.5228 263.795 27.722 263.795Z" fill="#6523AC" fill-opacity="0.78"/>
</g>
<g id="circle3">
<path id="Path 1414" d="M328.473 89.6585L283.169 135.319H261.781V136.036H283.469L283.574 135.93L328.983 90.1627L328.473 89.6585Z" fill="#6C63FF"/>
<path id="Path 1265" d="M346.771 82.5835C346.771 83.1149 346.718 83.645 346.612 84.1656C345.159 84.7818 343.597 85.0993 342.019 85.0993C340.441 85.0993 338.879 84.7818 337.426 84.1656C337.32 83.645 337.267 83.1149 337.267 82.5835C337.267 79.8218 338.673 77.4877 340.61 76.7077C339.837 76.3824 339.2 75.7996 338.807 75.058C338.415 74.3165 338.291 73.4619 338.457 72.6395C338.623 71.817 339.068 71.0773 339.717 70.5459C340.367 70.0145 341.18 69.7242 342.019 69.7242C342.858 69.7242 343.671 70.0145 344.32 70.5459C344.97 71.0773 345.415 71.817 345.581 72.6395C345.747 73.4619 345.623 74.3165 345.23 75.058C344.838 75.7996 344.201 76.3824 343.427 76.7077C345.365 77.4877 346.771 79.8218 346.771 82.5835Z" fill="#6523AC"/>
<path id="Path 45_3" d="M342.076 95.8611C339.523 95.8622 336.994 95.3604 334.635 94.3843C332.276 93.4082 330.132 91.977 328.326 90.1724C326.52 88.3677 325.087 86.225 324.109 83.8666C323.131 81.5082 322.627 78.9802 322.626 76.427V76.411C322.626 76.3702 322.626 76.3271 322.626 76.2869C322.65 72.4454 323.812 68.6972 325.964 65.515C328.116 62.3328 331.162 59.8592 334.718 58.4061C338.274 56.953 342.181 56.5855 345.946 57.3499C349.711 58.1143 353.165 59.9765 355.872 62.7015C358.58 65.4265 360.42 68.8924 361.161 72.6619C361.901 76.4314 361.509 80.3358 360.033 83.8826C358.557 87.4294 356.064 90.4598 352.869 92.5916C349.673 94.7233 345.917 95.861 342.076 95.8611ZM342.076 57.3697C337.049 57.381 332.229 59.3756 328.665 62.92C325.1 66.4643 323.078 71.2722 323.038 76.299C323.038 76.3426 323.038 76.3779 323.038 76.4093C323.037 80.1758 324.154 83.8578 326.246 86.9896C328.338 90.1215 331.312 92.5627 334.792 94.0043C338.271 95.446 342.1 95.8234 345.795 95.0889C349.489 94.3543 352.882 92.5409 355.545 89.8777C358.209 87.2146 360.023 83.8215 360.758 80.1275C361.493 76.4334 361.116 72.6044 359.674 69.1246C358.233 65.6449 355.792 62.6706 352.661 60.5781C349.529 58.4855 345.847 57.3686 342.081 57.3686L342.076 57.3697Z" fill="#6C63FF"/>
</g>
<g id="circle2">
<path id="Path 45_4" d="M27.6438 212.597C25.0906 212.598 22.5622 212.096 20.2029 211.12C17.8437 210.144 15.6998 208.713 13.8937 206.908C12.0876 205.103 10.6546 202.961 9.6766 200.602C8.69859 198.244 8.19468 195.716 8.19366 193.163V193.147C8.19366 193.106 8.19366 193.063 8.19366 193.022C8.21818 189.181 9.37972 185.433 11.5318 182.251C13.6838 179.068 16.73 176.595 20.2861 175.142C23.8423 173.689 27.7491 173.321 31.5138 174.085C35.2785 174.85 38.7326 176.712 41.4403 179.437C44.1481 182.162 45.9882 185.628 46.7287 189.397C47.4692 193.167 47.0768 197.071 45.6011 200.618C44.1254 204.165 41.6324 207.195 38.4366 209.327C35.2408 211.459 31.4853 212.597 27.6438 212.597ZM27.6438 174.105C22.6168 174.117 17.7974 176.111 14.2327 179.656C10.668 183.2 8.64586 188.008 8.60576 193.035C8.60576 193.078 8.60576 193.113 8.60576 193.145C8.60533 196.911 9.7218 200.593 11.814 203.725C13.9062 206.857 16.8802 209.298 20.3598 210.74C23.8394 212.182 27.6684 212.559 31.3625 211.824C35.0566 211.09 38.4499 209.276 41.1133 206.613C43.7768 203.95 45.5907 200.557 46.3256 196.863C47.0606 193.169 46.6836 189.34 45.2424 185.86C43.8011 182.38 41.3603 179.406 38.2287 177.314C35.097 175.221 31.4152 174.104 27.6487 174.104L27.6438 174.105Z" fill="white"/>
<path id="Path 1362" d="M42.7197 205.211L88.0231 250.872H109.411V251.589H87.7235L87.6181 251.482L42.2094 205.715L42.7197 205.211Z" fill="#6C63FF"/>
<path id="Vector_8" d="M36.7943 192.128H17.3344V195.201H36.7943V192.128Z" fill="#6523AC"/>
<path id="Vector_9" d="M36.7943 200.322C37.9256 200.322 38.8427 197.341 38.8427 193.664C38.8427 189.988 37.9256 187.007 36.7943 187.007C35.663 187.007 34.7459 189.988 34.7459 193.664C34.7459 197.341 35.663 200.322 36.7943 200.322Z" fill="#6523AC"/>
<path id="Vector_10" d="M17.8465 200.322C18.695 200.322 19.3828 197.341 19.3828 193.664C19.3828 189.988 18.695 187.007 17.8465 187.007C16.998 187.007 15.8752 189.988 15.8752 193.664C15.8752 197.341 16.998 200.322 17.8465 200.322Z" fill="#6523AC"/>
</g>
</g>
<g id="undraw_working_out_6psf 1">
<g id="Guy">
<path id="Vector_11" d="M551.904 295.925C551.904 295.925 547.556 262.596 540.308 271.686C533.061 280.775 540.308 294.41 540.308 294.41L546.106 301.984L551.904 297.439V295.925Z" fill="#9F616A"/>
<path id="Vector_12" d="M569.298 306.529C569.298 306.529 554.803 289.865 551.904 292.895C549.005 295.925 540.308 297.439 541.758 303.499C543.207 309.559 573.646 329.253 573.646 329.253L569.298 306.529Z" fill="#6523AC"/>
<path id="Vector_13" opacity="0.1" d="M569.298 306.529C569.298 306.529 554.803 289.865 551.904 292.895C549.005 295.925 540.308 297.439 541.758 303.499C543.207 309.559 573.646 329.253 573.646 329.253L569.298 306.529Z" fill="#6523AC"/>
<path id="Vector_14" d="M651.916 305.014V317.133C651.916 317.133 653.365 344.402 644.669 342.887C635.972 341.372 640.32 318.648 640.32 318.648L641.77 305.014H651.916Z" fill="#9F616A"/>
<path id="Vector_15" d="M647.568 392.879C647.568 392.879 660.613 414.088 664.961 415.603C669.309 417.117 692.5 430.752 695.399 444.386L715.692 471.654L705.546 485.289C705.546 485.289 659.163 433.782 646.118 429.237C633.073 424.692 620.028 401.968 620.028 401.968L647.568 392.879Z" fill="#9F616A"/>
<path id="Vector_16" d="M544.657 358.036C544.657 358.036 517.117 362.581 521.466 380.76C525.814 398.938 567.848 436.811 567.848 436.811L569.297 445.901L585.241 448.931L592.489 441.356L591.039 436.811C591.039 436.811 573.646 420.147 572.196 414.088C570.747 408.028 554.803 383.789 547.556 382.274L557.702 376.215L544.657 358.036Z" fill="#9F616A"/>
<path id="Vector_17" d="M711.343 471.654C711.343 471.654 705.546 462.565 714.242 464.08C722.939 465.595 728.737 467.11 728.737 473.169C728.737 479.229 721.49 521.646 712.793 518.617C704.096 515.587 711.343 501.953 711.343 501.953C711.343 501.953 706.995 489.833 704.096 488.318C701.197 486.803 701.197 479.229 704.096 479.229C706.995 479.229 712.793 474.684 711.343 471.654Z" fill="#2F2E41"/>
<path id="Vector_18" d="M588.14 438.326C588.14 438.326 588.14 430.752 593.938 438.326C599.736 445.901 602.635 451.96 596.837 456.505C591.039 461.05 570.747 471.654 570.747 471.654C570.747 471.654 549.005 476.199 551.904 465.595C551.904 465.595 566.399 458.02 566.399 451.96C566.399 445.901 566.399 435.296 570.747 438.326C575.095 441.356 588.14 442.871 588.14 438.326Z" fill="#2F2E41"/>
<path id="Vector_19" d="M615.68 324.708C615.68 324.708 635.972 327.738 634.523 358.036C634.523 358.036 660.613 385.304 653.365 394.394C646.118 403.483 630.174 420.147 624.376 415.603C618.579 411.058 601.185 376.215 601.185 376.215C601.185 376.215 560.601 391.364 553.353 383.789C546.106 376.215 538.859 358.036 538.859 358.036L575.095 338.342L615.68 324.708Z" fill="#2F2E41"/>
<path id="Vector_20" d="M559.151 238.358C549.545 238.358 541.758 230.219 541.758 220.179C541.758 210.139 549.545 202 559.151 202C568.757 202 576.545 210.139 576.545 220.179C576.545 230.219 568.757 238.358 559.151 238.358Z" fill="#9F616A"/>
<path id="Vector_21" d="M572.196 221.694C572.196 221.694 582.342 238.358 585.241 239.873C588.14 241.388 564.949 256.537 564.949 256.537C564.949 256.537 564.949 236.843 557.702 232.298L572.196 221.694Z" fill="#9F616A"/>
<path id="Vector_22" d="M573.898 237.601C573.898 237.601 597.09 230.026 601.438 242.145C605.786 254.265 615.932 276.988 614.483 292.138C613.034 307.287 610.135 304.257 614.483 308.802C618.831 313.346 621.73 310.316 620.281 316.376C618.831 322.436 617.382 322.436 618.831 325.466C620.281 328.495 601.438 339.1 585.494 340.615L569.55 342.13C569.55 342.13 569.55 314.861 566.651 308.802C563.752 302.742 557.954 290.623 557.954 286.078V274.053C557.954 266.049 559.953 258.184 563.752 251.235C563.752 251.235 572.449 237.601 573.898 237.601Z" fill="#6523AC"/>
<path id="Vector_23" d="M591.039 244.418C591.039 244.418 644.669 248.962 650.466 264.111C656.264 279.26 659.163 309.559 653.365 309.559C647.568 309.559 640.32 312.589 638.871 309.559C637.421 306.529 631.624 276.231 630.174 276.231C628.725 276.231 585.241 271.686 585.241 271.686C585.241 271.686 566.399 247.447 591.039 244.418Z" fill="#6523AC"/>
<path id="Vector_24" d="M558.452 215.672C558.452 215.672 553.837 207.289 548.067 214.57C542.298 221.852 538.036 212.507 539.477 209.651C541.325 207.235 538.496 208.506 547.215 205.527C547.215 205.527 573.618 195.874 576.431 215.672C579.245 235.471 574.045 231.237 574.045 231.237C574.045 231.237 570.974 213.694 568.198 218.733L565.423 223.772L563.015 224.391L558.452 215.672Z" fill="#2F2E41"/>
</g>
<g id="girl">
<path id="Vector_25" d="M300.026 275.195C311.067 275.195 320.018 265.84 320.018 254.301C320.018 242.761 311.067 233.407 300.026 233.407C288.985 233.407 280.035 242.761 280.035 254.301C280.035 265.84 288.985 275.195 300.026 275.195Z" fill="#2F2E41"/>
<path id="Vector_26" d="M293.636 269.766C293.636 269.766 294.671 289.228 292.602 289.228C290.533 289.228 305.533 298.419 305.533 298.419L314.844 293.013V286.525C314.844 286.525 302.429 284.903 307.602 270.847C312.774 256.791 293.636 269.766 293.636 269.766Z" fill="#FFB8B8"/>
<path id="Vector_27" d="M250.186 483.31L248.635 499.528L253.807 501.15L257.945 496.825L259.497 483.31H250.186Z" fill="#FFB8B8"/>
<path id="Vector_28" d="M324.672 492.5L327.258 502.772L334.499 507.637L342.258 503.312L333.465 488.175L324.672 492.5Z" fill="#FFB8B8"/>
<path id="Vector_29" d="M298.55 278.146C306.834 278.146 313.55 271.126 313.55 262.468C313.55 253.809 306.834 246.79 298.55 246.79C290.266 246.79 283.55 253.809 283.55 262.468C283.55 271.126 290.266 278.146 298.55 278.146Z" fill="#FFB8B8"/>
<path id="Vector_30" d="M289.498 321.125L285.877 319.503C285.877 319.503 279.67 315.719 279.153 308.15C278.636 300.581 284.325 290.85 284.325 290.85L292.602 288.147L302.325 296.419L302.429 309.772L289.498 321.125Z" fill="#FFB8B8"/>
<path id="Vector_31" d="M291.303 290.988L289.28 289.817C289.28 289.817 278.966 288.821 277.409 301.738C275.853 314.656 271.364 336.102 271.364 336.102C271.364 336.102 262.485 350.861 262.349 367.087L257.648 380.949C257.648 380.949 251.136 401.223 257.854 401.519C264.572 401.816 264.949 379.647 264.949 379.647C264.949 379.647 278.615 348.867 279.866 343.511C285.007 336.102 290.927 313.157 288.626 306.021C286.326 298.885 291.303 290.988 291.303 290.988Z" fill="#FFB8B8"/>
<path id="Vector_32" d="M293.636 325.99V331.937C293.636 331.937 297.257 336.262 295.705 338.965C294.153 341.668 292.602 347.074 292.602 347.074L299.843 358.968L324.154 361.13L328.989 327.277L293.636 325.99Z" fill="#FFB8B8"/>
<path id="Vector_33" d="M316.395 288.147L320.533 285.985C320.533 285.985 329.327 279.497 336.568 278.416L358.81 262.738L373.293 226.517C373.293 226.517 372.776 207.055 376.914 209.217C381.052 211.38 380.535 228.139 380.535 228.139C380.535 228.139 372.776 261.657 366.052 270.847C359.327 280.038 335.016 295.175 335.016 295.175C335.016 295.175 328.292 303.284 328.809 307.069C329.327 310.853 316.395 288.147 316.395 288.147Z" fill="#FFB8B8"/>
<path id="Vector_34" d="M297.257 347.074C297.257 347.074 291.567 343.29 287.946 349.777C284.326 356.265 277.601 357.887 273.463 377.349C269.325 396.811 259.497 427.626 256.911 429.789C254.325 431.951 243.462 454.657 249.669 486.553H260.015L268.808 440.601C268.808 440.601 297.257 403.839 299.326 388.702L308.636 445.467C308.636 445.467 309.154 467.091 316.913 477.363L325.189 497.906L336.051 492.5L323.637 440.601C323.637 440.601 329.844 388.161 325.706 373.565L325.111 354.428C325.111 354.428 308.119 355.184 297.257 347.074Z" fill="#2F2E41"/>
<path id="Vector_35" d="M253.807 496.825H247.6C246.566 496.825 238.29 503.853 241.911 507.637C245.531 511.422 251.221 518.45 251.221 518.45C251.221 518.45 271.394 521.131 271.911 517.347C272.429 513.563 263.118 505.475 263.118 505.475L260.532 496.825C260.532 496.825 255.359 490.878 253.807 496.825Z" fill="#2F2E41"/>
<path id="Vector_36" d="M336.051 502.231C336.051 502.231 327.258 501.691 325.706 501.15C324.154 500.609 321.051 515.206 325.706 516.287C330.361 517.369 349.5 518.99 349.5 518.99C349.5 518.99 364.5 518.45 363.466 514.125C362.431 509.8 342.258 501.15 342.258 501.15C342.258 501.15 339.672 495.744 336.051 502.231Z" fill="#2F2E41"/>
<path id="Vector_37" d="M295.188 287.606L292.602 285.985L289.498 288.688C289.498 288.688 298.962 302.4 296.893 308.346C294.824 314.293 285.877 319.503 285.877 319.503C285.877 319.503 293.636 328.693 293.636 331.937C293.636 331.937 313.809 324.368 328.809 331.937C328.809 331.937 329.69 325.743 330.614 321.877C337.543 321.877 337.081 310.763 328.809 302.744C325.165 297.97 321.88 292.909 318.982 287.607L313.809 284.363L311.145 285.246C311.145 285.246 316.395 291.391 311.223 291.931C306.05 292.472 297.774 290.85 295.188 287.606Z" fill="#6523AC"/>
<path id="Vector_38" d="M314.637 218.678C312.88 220.728 310.473 222.046 307.859 222.389C303.341 223.063 306.891 230.485 306.891 230.485C306.891 230.485 305.6 227.786 308.182 225.425C310.764 223.063 314.637 221.714 314.637 218.678Z" fill="#2F2E41"/>
<path id="Vector_39" d="M305.925 237.859C309.002 237.859 311.497 235.252 311.497 232.036C311.497 228.82 309.002 226.213 305.925 226.213C302.848 226.213 300.354 228.82 300.354 232.036C300.354 235.252 302.848 237.859 305.925 237.859Z" fill="#2F2E41"/>
<path id="Vector_40" d="M312.43 237.77C308.126 235.421 300.721 233.572 296.787 233.705L297.782 229.728C301.265 232.201 308.631 234.084 313.425 233.794L312.43 237.77Z" fill="#6C63FF"/>
<path id="Vector_41" d="M303.538 238.12C303.538 238.12 296.755 247.234 283.19 249.26C269.625 251.285 280.283 273.564 280.283 273.564C280.283 273.564 276.408 265.463 284.159 258.374C291.911 251.285 303.538 247.234 303.538 238.12Z" fill="#2F2E41"/>
<path id="Vector_42" d="M304.055 237.58C304.055 237.58 307.93 251.757 313.744 253.782C319.558 255.808 316.651 277.074 306.962 279.099C306.962 279.099 315.197 267.454 310.353 258.34C305.508 249.225 302.601 242.137 304.055 237.58Z" fill="#2F2E41"/>
<path id="Vector_43" d="M395.277 213.812H359.586V218.137H395.277V213.812Z" fill="#2F2E41"/>
<path id="Vector_44" d="M395.277 228.95C396.991 228.95 398.38 223.141 398.38 215.975C398.38 208.809 396.991 203 395.277 203C393.563 203 392.173 208.809 392.173 215.975C392.173 223.141 393.563 228.95 395.277 228.95Z" fill="#2F2E41"/>
<path id="Vector_45" d="M359.586 228.95C361.3 228.95 362.69 223.141 362.69 215.975C362.69 208.809 361.3 203 359.586 203C357.872 203 356.483 208.809 356.483 215.975C356.483 223.141 357.872 228.95 359.586 228.95Z" fill="#2F2E41"/>
</g>
</g>
</g>
<defs>
<filter id="filter0_d" x="0" y="315.169" width="305.609" height="129.59" filterUnits="userSpaceOnUse" color-interpolation-filters="sRGB">
<feFlood flood-opacity="0" result="BackgroundImageFix"/>
<feColorMatrix in="SourceAlpha" type="matrix" values="0 0 0 0 0 0 0 0 0 0 0 0 0 0 0 0 0 0 127 0"/>
<feOffset dx="16"/>
<feGaussianBlur stdDeviation="5"/>
<feColorMatrix type="matrix" values="0 0 0 0 0.933333 0 0 0 0 0.933333 0 0 0 0 0.933333 0 0 0 0.25 0"/>
<feBlend mode="normal" in2="BackgroundImageFix" result="effect1_dropShadow"/>
<feBlend mode="normal" in="SourceGraphic" in2="effect1_dropShadow" result="shape"/>
</filter>
<filter id="filter1_d" x="287" y="353" width="344.093" height="187.389" filterUnits="userSpaceOnUse" color-interpolation-filters="sRGB">
<feFlood flood-opacity="0" result="BackgroundImageFix"/>
<feColorMatrix in="SourceAlpha" type="matrix" values="0 0 0 0 0 0 0 0 0 0 0 0 0 0 0 0 0 0 127 0"/>
<feOffset dx="10" dy="12"/>
<feGaussianBlur stdDeviation="11"/>
<feColorMatrix type="matrix" values="0 0 0 0 0 0 0 0 0 0 0 0 0 0 0 0 0 0 1 0"/>
<feBlend mode="normal" in2="BackgroundImageFix" result="effect1_dropShadow"/>
<feBlend mode="normal" in="SourceGraphic" in2="effect1_dropShadow" result="shape"/>
</filter>
<filter id="filter2_d" x="595.622" y="292.169" width="323.609" height="153.59" filterUnits="userSpaceOnUse" color-interpolation-filters="sRGB">
<feFlood flood-opacity="0" result="BackgroundImageFix"/>
<feColorMatrix in="SourceAlpha" type="matrix" values="0 0 0 0 0 0 0 0 0 0 0 0 0 0 0 0 0 0 127 0"/>
<feOffset dx="-1" dy="-11"/>
<feGaussianBlur stdDeviation="11"/>
<feColorMatrix type="matrix" values="0 0 0 0 0 0 0 0 0 0 0 0 0 0 0 0 0 0 1 0"/>
<feBlend mode="normal" in2="BackgroundImageFix" result="effect1_dropShadow"/>
<feBlend mode="normal" in="SourceGraphic" in2="effect1_dropShadow" result="shape"/>
</filter>
<linearGradient id="paint0_linear" x1="925" y1="406" x2="43.5" y2="11.5" gradientUnits="userSpaceOnUse">
<stop stop-color="#7600F4"/>
<stop offset="0.9999"/>
</linearGradient>
<linearGradient id="paint1_linear" x1="141.65" y1="236.972" x2="139.515" y2="261.379" gradientUnits="userSpaceOnUse">
<stop stop-color="#6523AC"/>
<stop offset="0.9999" stop-color="#1D102C"/>
<stop offset="1" stop-color="#6523AC" stop-opacity="0"/>
</linearGradient>
<linearGradient id="paint2_linear" x1="141" y1="322.5" x2="141" y2="298" gradientUnits="userSpaceOnUse">
<stop stop-color="#6523AC"/>
<stop offset="0.9999" stop-color="#1D102C"/>
<stop offset="1" stop-color="#6523AC" stop-opacity="0"/>
</linearGradient>
<linearGradient id="paint3_linear" x1="195.619" y1="156.694" x2="195.619" y2="109.772" gradientUnits="userSpaceOnUse">
<stop stop-color="#6523AC"/>
<stop offset="0.9999" stop-color="#1D102C"/>
<stop offset="1" stop-color="#6523AC" stop-opacity="0"/>
</linearGradient>
</defs>
</svg>
