<svg width="727" height="509" viewBox="0 0 727 509" fill="none" xmlns="http://www.w3.org/2000/svg">
<g id="project1 1" clip-path="url(#clip0)">
<g id="bubble2">
<path id="Vector" d="M471.609 334.943C473.587 340.855 479.979 344.045 485.885 342.069C491.791 340.093 494.976 333.699 492.998 327.787C491.02 321.876 484.628 318.685 478.722 320.661C472.816 322.638 469.631 329.032 471.609 334.943Z" fill="#340D5F"/>
<path id="bubbleshine" d="M481.997 326.246C485.106 326.061 487.557 324.765 487.473 323.351C487.388 321.937 484.799 320.94 481.691 321.125C478.582 321.309 476.13 322.605 476.215 324.019C476.3 325.434 478.888 326.43 481.997 326.246Z" fill="white"/>
</g>
<g id="bubble5">
<path id="Vector_2" d="M335.281 359.929C323.528 360.442 314.416 370.378 314.928 382.12C315.441 393.863 325.384 402.966 337.138 402.453C348.891 401.94 358.003 392.004 357.49 380.262C356.978 368.519 347.034 359.416 335.281 359.929Z" fill="#340D5F"/>
<path id="bubbleshine_2" d="M342.226 388.77C337.617 392.422 335.228 397.079 336.889 399.172C338.55 401.265 343.633 400.001 348.242 396.349C352.851 392.697 355.24 388.04 353.579 385.947C351.917 383.854 346.834 385.118 342.226 388.77Z" fill="white"/>
</g>
<g id="bubble1">
<path id="Vector_3" d="M217.121 441.145C207.27 439.408 197.878 445.978 196.142 455.82C194.407 465.662 200.986 475.049 210.836 476.786C220.687 478.523 230.08 471.952 231.815 462.11C233.551 452.269 226.972 442.882 217.121 441.145Z" fill="#6523AC"/>
<path id="bubbleshine_3" d="M220.389 445.072C218.4 446.173 218.754 450.609 221.179 454.98C223.603 459.351 227.181 462.002 229.169 460.902C231.157 459.801 230.804 455.366 228.379 450.994C225.954 446.623 222.377 443.972 220.389 445.072Z" fill="white"/>
</g>
<g id="bubble8">
<path id="Vector_4" d="M589.287 156.887C595.521 156.887 600.574 151.838 600.574 145.61C600.574 139.382 595.521 134.333 589.287 134.333C583.053 134.333 578 139.382 578 145.61C578 151.838 583.053 156.887 589.287 156.887Z" fill="#6523AC"/>
<path id="bubbleshine_4" d="M586.277 141.459C588.802 139.632 590.174 137.222 589.343 136.076C588.512 134.929 585.792 135.481 583.268 137.308C580.744 139.134 579.371 141.545 580.202 142.691C581.033 143.837 583.753 143.286 586.277 141.459Z" fill="white"/>
</g>
<g id="bubble6" filter="url(#filter0_d)">
<path id="Vector_5" d="M625.112 438.19C635.114 438.19 643.223 430.089 643.223 420.095C643.223 410.102 635.114 402 625.112 402C615.109 402 607 410.102 607 420.095C607 430.089 615.109 438.19 625.112 438.19Z" fill="#340D5F"/>
<path id="bubbleshine_5" d="M612.763 429.143C615.036 429.143 616.879 425.092 616.879 420.095C616.879 415.098 615.036 411.048 612.763 411.048C610.489 411.048 608.646 415.098 608.646 420.095C608.646 425.092 610.489 429.143 612.763 429.143Z" fill="white"/>
</g>
<g id="bubble7">
<path id="Vector_6" d="M447.087 129.859C445.178 139.678 451.583 149.183 461.393 151.09C471.204 152.997 480.703 146.583 482.612 136.764C484.521 126.945 478.115 117.44 468.305 115.533C458.495 113.626 448.995 120.04 447.087 129.859Z" fill="#6523AC"/>
<path id="bubbleshine_6" d="M472.31 129.842C474.414 134.377 477.79 137.277 479.85 136.319C481.911 135.36 481.874 130.907 479.77 126.372C477.665 121.837 474.289 118.937 472.229 119.895C470.169 120.853 470.205 125.306 472.31 129.842Z" fill="white"/>
</g>
<g id="bubble4">
<path id="Vector_7" d="M232.332 21.8207C238.152 24.0547 244.679 21.1522 246.911 15.3378C249.143 9.52342 246.234 2.99895 240.415 0.764995C234.595 -1.46896 228.068 1.43355 225.836 7.24793C223.604 13.0623 226.512 19.5868 232.332 21.8207Z" fill="#340D5F"/>
<path id="bubbleshine_7" d="M232.227 8.27184C234.062 5.75569 234.621 3.03967 233.477 2.20544C232.332 1.3712 229.916 2.73467 228.081 5.25082C226.246 7.76697 225.686 10.483 226.831 11.3172C227.976 12.1515 230.392 10.788 232.227 8.27184Z" fill="white"/>
</g>
<g id="girl">
<path id="Vector_8" d="M540.217 107.992C540.217 107.992 544.22 126.39 530.609 133.59C530.609 133.59 533.812 174.385 554.628 175.185C575.445 175.985 575.445 153.588 575.445 153.588L572.243 141.589C572.243 141.589 557.03 132.79 566.638 115.991L540.217 107.992Z" fill="#A0616A"/>
<path id="Vector_9" d="M557.431 117.991C578.213 117.991 595.061 101.159 595.061 80.3952C595.061 59.6314 578.213 42.7991 557.431 42.7991C536.648 42.7991 519.801 59.6314 519.801 80.3952C519.801 101.159 536.648 117.991 557.431 117.991Z" fill="#2F2E41"/>
<path id="Vector_10" d="M517.799 193.583V238.379L584.252 235.979L579.448 191.984L517.799 193.583Z" fill="#A0616A"/>
<path id="Vector_11" d="M557.831 120.791C571.097 120.791 581.85 110.047 581.85 96.7935C581.85 83.54 571.097 72.796 557.831 72.796C544.566 72.796 533.812 83.54 533.812 96.7935C533.812 110.047 544.566 120.791 557.831 120.791Z" fill="#A0616A"/>
<path id="Vector_12" d="M528.207 133.59C528.207 133.59 514.596 131.19 509.792 133.59C504.989 135.989 499.384 135.189 493.78 158.387L483.371 206.382C483.371 206.382 481.77 220.781 493.78 219.181C505.789 217.581 504.989 196.783 504.989 196.783L512.995 178.385L527.407 162.387L528.207 133.59Z" fill="#A0616A"/>
<path id="Vector_13" d="M573.844 143.189C573.844 143.189 593.059 145.588 594.661 155.987C596.262 166.386 587.455 208.782 587.455 208.782L573.844 195.183L581.05 168.786L573.844 143.189Z" fill="#A0616A"/>
<path id="Vector_14" d="M524.604 133.19L525.005 147.988L513.796 171.986L516.198 201.583L580.443 201.776L580.249 187.984C580.249 187.984 589.056 176.785 584.252 167.186C579.448 157.587 575.845 142.789 575.845 142.789L569.44 138.789C569.44 138.789 580.249 163.987 557.831 159.987C535.413 155.987 534.212 130.79 534.212 130.79L524.604 133.19Z" fill="#BF8DF4"/>
<path id="Vector_15" d="M505.789 294.373L494.58 357.566L481.77 449.557L476.166 459.956L480.969 470.355L494.58 463.955L500.185 439.158C500.185 439.158 519.4 415.96 516.198 386.363L550.625 303.972L505.789 294.373Z" fill="#A0616A"/>
<path id="Vector_16" d="M561.034 300.772L569.04 379.164C569.04 379.164 567.439 400.762 572.243 419.96C577.046 439.158 580.249 472.754 580.249 472.754H596.262L593.059 374.365L603.468 294.373L561.034 300.772Z" fill="#A0616A"/>
<path id="Vector_17" d="M549.825 228.78C549.825 228.78 516.198 226.38 516.198 230.38V238.379C516.198 238.379 509.792 248.778 510.593 258.377C511.394 267.976 480.169 289.573 500.185 299.172C520.201 308.771 546.622 311.971 550.625 308.771C554.628 305.572 557.03 292.773 557.03 292.773C557.03 292.773 557.03 307.172 564.236 307.972C571.442 308.771 614.677 299.972 614.677 292.773C614.677 285.574 582.636 221.18 582.636 221.18C582.636 221.18 559.432 229.58 549.825 228.78Z" fill="#3F1D64"/>
<path id="Vector_18" d="M480.169 460.756C480.169 460.756 476.966 455.156 473.764 459.156C470.561 463.155 458.551 472.754 458.551 472.754C458.551 472.754 428.928 480.754 448.944 492.752C448.944 492.752 466.558 492.752 473.764 487.153C480.969 481.554 488.175 483.953 488.175 483.953C488.175 483.953 499.384 483.153 500.185 478.354C500.985 473.554 495.991 457.716 495.991 457.716C495.991 457.716 490.577 464.755 480.169 460.756Z" fill="#2F2E41"/>
<path id="Vector_19" d="M586.654 465.555C586.654 465.555 577.046 463.155 577.046 465.555C577.046 467.955 563.436 482.353 574.645 488.753C585.854 495.152 587.455 493.552 588.255 499.952C589.056 506.351 609.873 511.15 613.075 507.151C616.278 503.151 618.68 495.952 614.677 492.752C610.673 489.553 597.863 469.555 597.863 465.555C597.863 461.556 586.654 465.555 586.654 465.555Z" fill="#2F2E41"/>
<path id="Vector_20" d="M567.247 155.049C568.799 155.049 570.058 154.421 570.058 153.645C570.058 152.87 568.799 152.241 567.247 152.241C565.695 152.241 564.436 152.87 564.436 153.645C564.436 154.421 565.695 155.049 567.247 155.049Z" fill="#3F3D56"/>
<path id="bottlecolor" d="M567.566 159.581C570.742 159.581 573.316 158.266 573.316 156.645C573.316 155.023 570.742 153.709 567.566 153.709C564.391 153.709 561.817 155.023 561.817 156.645C561.817 158.266 564.391 159.581 567.566 159.581Z" fill="#6523AC"/>
<path id="bottlecolor_2" d="M574.338 158.432H560.54V168.516H574.338V158.432Z" fill="#6523AC"/>
<path id="bottlecolor_3" d="M583.728 174.196H551.021V223.595H583.728V174.196Z" fill="#6523AC"/>
<path id="bottlecolor_4" d="M585.198 173.622C585.198 178.486 577.176 176.813 567.439 176.813C557.701 176.813 549.424 178.358 549.424 173.494C549.424 168.63 557.701 163.538 567.439 163.538C577.176 163.538 585.198 168.757 585.198 173.622Z" fill="#6523AC"/>
<path id="bottlecolor2" d="M585.198 178.855H549.808V182.685H585.198V178.855Z" fill="#3F3D56"/>
<path id="bottlecolor2_2" d="M585.453 215.873H550.063V219.702H585.453V215.873Z" fill="#3F3D56"/>
<path id="Vector_21" d="M585.198 199.279H549.808V206.937H585.198V199.279Z" fill="#3F3D56"/>
<path id="bottlecolor_5" d="M584.942 221.872C584.942 223.493 585.457 228.127 567.822 228.127C547.891 228.127 549.552 223.238 549.552 221.617C549.552 219.995 558.367 222.255 567.822 222.255C577.277 222.255 584.942 220.251 584.942 221.872Z" fill="#6523AC"/>
<path id="Vector_22" d="M575.488 156.645H559.134V162.134H575.488V156.645Z" fill="#3F3D56"/>
<path id="Vector_23" opacity="0.1" d="M554.726 185.94H552.554V197.938H554.726V185.94Z" fill="white"/>
<path id="Vector_24" opacity="0.1" d="M554.726 208.788H552.554V213.256H554.726V208.788Z" fill="white"/>
<path id="Vector_25" d="M590.657 199.183C590.657 199.183 575.445 179.185 576.246 193.583C577.046 207.982 585.853 215.181 587.455 215.181C589.056 215.181 595.461 213.581 590.657 199.183Z" fill="#A0616A"/>
<path id="Vector_26" opacity="0.1" d="M517.799 214.588C519 214.781 538.215 207.582 538.215 207.582L550.225 205.982L517.799 219.53L517.799 214.588Z" fill="black"/>
<path id="Vector_27" d="M492.979 200.783C492.979 200.783 499.384 196.783 512.194 198.383L537.014 191.984C537.014 191.984 560.233 178.385 569.04 195.183C577.847 211.982 536.214 206.382 536.214 206.382C536.214 206.382 508.191 228.78 491.378 216.781L492.979 200.783Z" fill="#A0616A"/>
<path id="Vector_28" d="M523.003 64.3968C529.194 64.3968 534.212 59.383 534.212 53.198C534.212 47.0131 529.194 41.9992 523.003 41.9992C516.812 41.9992 511.794 47.0131 511.794 53.198C511.794 59.383 516.812 64.3968 523.003 64.3968Z" fill="#2F2E41"/>
<path id="Vector_29" d="M591.858 61.1972C598.049 61.1972 603.067 56.1833 603.067 49.9983C603.067 43.8134 598.049 38.7995 591.858 38.7995C585.668 38.7995 580.649 43.8134 580.649 49.9983C580.649 56.1833 585.668 61.1972 591.858 61.1972Z" fill="#2F2E41"/>
<path id="Vector_30" d="M579.849 45.1989C579.849 42.4368 580.871 39.7723 582.719 37.7174C584.566 35.6624 587.108 34.3621 589.857 34.0662C588.291 33.8954 586.708 34.056 585.209 34.5376C583.709 35.0191 582.329 35.8109 581.156 36.8612C579.984 37.9115 579.046 39.1969 578.404 40.6334C577.762 42.07 577.431 43.6256 577.431 45.1989C577.431 46.7721 577.762 48.3277 578.404 49.7643C579.046 51.2009 579.984 52.4862 581.156 53.5365C582.329 54.5868 583.709 55.3786 585.209 55.8601C586.708 56.3417 588.291 56.5023 589.857 56.3315C587.108 56.0356 584.566 54.7353 582.719 52.6804C580.871 50.6254 579.849 47.9609 579.849 45.1989Z" fill="#2F2E41"/>
<path id="Vector_31" d="M510.479 62.2566C508.544 60.2834 507.408 57.6655 507.288 54.9061C507.168 52.1466 508.073 49.4401 509.829 47.3069C509.514 47.5548 509.212 47.8193 508.925 48.0993C506.803 50.1782 505.594 53.0142 505.564 55.9835C505.534 58.9527 506.686 61.8123 508.766 63.9333C510.846 66.0543 513.684 67.2631 516.656 67.2939C519.628 67.3247 522.491 66.175 524.614 64.0976C524.9 63.8164 525.171 63.5203 525.426 63.2105C523.255 64.9211 520.528 65.7699 517.769 65.5938C515.01 65.4177 512.414 64.2292 510.479 62.2566Z" fill="#2F2E41"/>
<path id="Vector_32" d="M557.431 62.797C544.165 62.797 533.411 69.0644 533.411 76.7956C533.411 80.2548 535.573 83.4164 539.141 85.8588L543.765 82.5115L542.508 87.7555C543.029 87.9971 543.562 88.2309 544.118 88.447L551.026 80.3952V90.2868C553.144 90.6259 555.286 90.7955 557.431 90.7941C570.696 90.7941 581.45 84.5268 581.45 76.7956C581.45 69.0644 570.696 62.797 557.431 62.797Z" fill="#2F2E41"/>
<path id="hairpiece1" d="M580.649 49.9984C580.649 49.9984 578.908 57.9975 589.787 61.1972L580.649 49.9984Z" fill="#6523AC"/>
<path id="hairpiece2" d="M533.411 51.4543C533.411 51.4543 537.415 60.3973 525.405 64.3969L533.411 51.4543Z" fill="#6523AC"/>
</g>
<g id="bubble3">
<path id="Vector_33" d="M55.2549 271.19C65.2577 271.19 73.3666 263.089 73.3666 253.095C73.3666 243.102 65.2577 235 55.2549 235C45.2522 235 37.1433 243.102 37.1433 253.095C37.1433 263.089 45.2522 271.19 55.2549 271.19Z" fill="#340D5F"/>
<path id="bubbleshine_8" d="M47.3063 250.954C48.6083 246.129 47.8844 241.739 45.6895 241.148C43.4945 240.556 40.6596 243.988 39.3576 248.813C38.0555 253.637 38.7794 258.028 40.9744 258.619C43.1693 259.21 46.0042 255.779 47.3063 250.954Z" fill="white"/>
</g>
</g>
<defs>
<filter id="filter0_d" x="603" y="396" width="50.2232" height="50.1904" filterUnits="userSpaceOnUse" color-interpolation-filters="sRGB">
<feFlood flood-opacity="0" result="BackgroundImageFix"/>
<feColorMatrix in="SourceAlpha" type="matrix" values="0 0 0 0 0 0 0 0 0 0 0 0 0 0 0 0 0 0 127 0"/>
<feOffset dx="3" dy="1"/>
<feGaussianBlur stdDeviation="3.5"/>
<feColorMatrix type="matrix" values="0 0 0 0 0 0 0 0 0 0 0 0 0 0 0 0 0 0 0.25 0"/>
<feBlend mode="normal" in2="BackgroundImageFix" result="effect1_dropShadow"/>
<feBlend mode="normal" in="SourceGraphic" in2="effect1_dropShadow" result="shape"/>
</filter>
<clipPath id="clip0">
<rect width="727" height="509" fill="white"/>
</clipPath>
</defs>
</svg>
