<?xml version="1.0" standalone="no"?>
<!DOCTYPE svg PUBLIC "-//W3C//DTD SVG 20010904//EN"
 "http://www.w3.org/TR/2001/REC-SVG-20010904/DTD/svg10.dtd">
<svg version="1.0" xmlns="http://www.w3.org/2000/svg"
 width="900.000000pt" height="900.000000pt" viewBox="0 0 900.000000 900.000000"
 preserveAspectRatio="xMidYMid meet">
<metadata>
Created by potrace 1.10, written by Peter Selinger 2001-2011
</metadata>
<g transform="translate(0.000000,900.000000) scale(0.100000,-0.100000)"
fill="#000000" stroke="none">
<path d="M4205 8042 c-82 -7 -189 -19 -237 -27 -208 -35 -275 -48 -311 -61
-20 -8 -47 -14 -58 -14 -20 0 -72 -15 -159 -45 -19 -7 -62 -20 -95 -30 -33
-10 -73 -23 -90 -30 -16 -7 -50 -21 -75 -30 -73 -28 -285 -124 -320 -146 -8
-5 -37 -20 -65 -34 -54 -28 -68 -36 -130 -75 -22 -14 -47 -29 -55 -33 -57 -27
-226 -148 -391 -281 -110 -89 -412 -396 -512 -521 -97 -121 -216 -290 -247
-350 -6 -11 -19 -33 -30 -50 -11 -16 -24 -39 -30 -50 -6 -11 -26 -47 -45 -80
-19 -33 -37 -67 -40 -75 -4 -8 -11 -22 -16 -30 -5 -8 -12 -22 -15 -30 -3 -8
-20 -44 -36 -80 -40 -87 -52 -117 -73 -170 -9 -25 -23 -58 -30 -75 -7 -16 -20
-57 -30 -90 -10 -33 -23 -76 -30 -95 -30 -87 -45 -139 -45 -159 0 -11 -6 -38
-14 -58 -13 -36 -23 -91 -60 -308 -38 -225 -49 -547 -28 -810 15 -184 56 -445
84 -530 5 -16 13 -50 18 -75 4 -25 13 -58 18 -75 6 -16 18 -57 28 -90 17 -60
28 -94 58 -172 33 -89 50 -130 73 -183 14 -30 34 -75 45 -100 11 -25 24 -52
29 -60 5 -8 12 -22 15 -30 3 -8 10 -22 15 -30 5 -8 20 -37 34 -65 15 -27 35
-63 45 -80 11 -16 24 -39 30 -50 37 -73 85 -143 200 -297 41 -56 82 -111 90
-122 49 -72 399 -422 500 -501 41 -32 77 -62 80 -65 22 -26 292 -211 365 -250
11 -6 34 -19 50 -30 17 -10 53 -30 80 -45 28 -14 59 -30 70 -37 11 -6 27 -15
35 -20 8 -4 22 -11 30 -14 8 -3 42 -19 75 -34 108 -49 258 -108 345 -136 30
-9 71 -22 90 -29 19 -7 64 -20 100 -30 36 -9 88 -22 115 -30 46 -13 82 -20
308 -60 45 -8 120 -17 167 -20 47 -3 145 -10 218 -15 84 -6 183 -6 270 0 75 5
175 12 222 15 122 8 347 46 485 81 174 44 267 71 312 91 17 7 36 13 42 13 6 0
25 6 43 14 18 8 69 29 113 46 129 52 251 110 350 166 33 18 69 38 80 44 11 6
34 19 50 30 17 11 37 23 45 27 38 18 256 171 355 250 127 101 434 403 521 513
32 41 61 77 64 80 22 21 208 287 223 320 4 8 16 29 27 45 11 17 24 39 30 50 6
11 26 47 44 80 70 124 147 295 213 470 8 22 21 55 29 73 8 18 14 41 14 52 0
11 6 34 14 52 8 18 21 60 29 93 9 33 22 87 31 120 40 156 72 357 88 555 13
173 14 489 1 534 -13 44 -31 43 -38 -1 -18 -120 -67 -313 -110 -433 -49 -134
-177 -410 -225 -485 -11 -16 -23 -37 -27 -45 -4 -8 -27 -44 -52 -80 -25 -36
-60 -87 -79 -115 -19 -27 -37 -52 -41 -55 -3 -3 -31 -36 -60 -75 -65 -85 -289
-309 -390 -391 -69 -56 -291 -212 -322 -227 -8 -4 -36 -21 -64 -37 -46 -28
-239 -124 -310 -155 -38 -17 -116 -46 -225 -85 -19 -6 -51 -16 -70 -20 -19 -4
-48 -12 -65 -18 -16 -5 -68 -17 -115 -27 -47 -9 -115 -23 -151 -31 -37 -8 -89
-14 -115 -14 -27 0 -83 -5 -124 -11 -198 -27 -636 3 -826 57 -28 8 -59 14 -70
14 -10 0 -36 6 -59 14 -22 7 -67 21 -100 31 -62 18 -118 38 -170 60 -16 7 -50
20 -75 30 -58 23 -296 140 -335 165 -16 11 -39 24 -50 30 -49 25 -222 148
-320 227 -94 75 -329 312 -390 393 -27 36 -52 67 -56 70 -7 6 -128 175 -146
205 -7 11 -17 29 -23 40 -6 11 -24 43 -40 70 -48 79 -151 294 -184 383 -38
102 -45 120 -61 177 -10 33 -24 78 -31 100 -8 23 -14 49 -14 59 0 11 -6 42
-14 70 -33 118 -48 238 -64 498 -9 157 14 522 37 581 6 16 11 42 11 58 0 43
63 281 105 399 62 172 177 413 255 535 11 17 24 39 30 50 14 28 124 179 194
266 76 95 299 318 395 395 84 68 237 179 266 194 11 6 34 19 50 30 55 35 73
45 212 113 171 85 175 87 318 140 119 44 311 93 438 112 44 7 45 25 1 38 -46
14 -375 13 -539 -1z"/>
</g>
</svg>
