<svg width="926" height="551" viewBox="0 0 926 551" fill="none" xmlns="http://www.w3.org/2000/svg">
<g id="Group 1">
<g id="background">
<g id="Vector" opacity="0.3" filter="url(#filter0_d)">
<path d="M279.605 403.571C279.605 365.794 256.201 335.169 227.331 335.169C209.186 335.169 193.205 347.272 183.832 365.64C180.613 364.555 177.239 364 173.842 363.999C165.057 364.147 156.67 367.685 150.435 373.873C141.986 350.971 124.07 335.169 103.333 335.169C83.9443 335.169 67.0336 348.993 58.0092 369.509C52.7157 365.958 46.4938 364.042 40.1185 363.999C17.9625 363.999 0.00141813 387.501 0.00141813 416.493C-0.0634496 426.272 2.09784 435.938 6.32179 444.76H269.063C276.108 432.183 279.743 417.984 279.605 403.571Z" fill="#6523AC"/>
<path d="M279.105 403.571L279.105 403.576C279.241 417.804 275.679 431.822 268.769 444.26H6.6376C2.53547 435.583 0.437738 426.095 0.501418 416.497V416.493C0.501418 402.097 4.9613 389.083 12.1487 379.678C19.3354 370.273 29.2281 364.499 40.1168 364.499C46.3935 364.541 52.519 366.428 57.7307 369.924L58.2265 370.257L58.4669 369.71C67.4387 349.314 84.2026 335.669 103.333 335.669C123.793 335.669 141.563 351.268 149.966 374.046L150.235 374.776L150.787 374.228C156.929 368.132 165.192 364.646 173.846 364.499C177.187 364.501 180.506 365.046 183.672 366.114L184.081 366.252L184.277 365.868C193.592 347.614 209.427 335.669 227.331 335.669C241.578 335.669 254.51 343.224 263.897 355.507C273.285 367.791 279.105 384.783 279.105 403.571Z" stroke="black"/>
</g>
<g id="Vector_2">
<path d="M893.925 214.266C867.106 156.305 814.622 106.859 751.219 98.7997C734.455 96.6689 716.952 97.5235 701.398 104.124C682.92 111.966 668.84 127.037 655.059 141.789C653.613 143.336 652.17 144.881 650.726 146.413C618.526 180.563 582.493 210.891 543.34 236.795C524.016 249.577 503.289 261.503 480.346 264.773C434.345 271.33 388.844 239.989 367.865 198.567C359.992 183.022 354.663 165.851 349.366 148.782C345.846 137.439 342.34 126.142 338.11 115.396C325.909 115.373 311.373 115.378 295.734 115.449C252.506 115.649 217.32 116.287 217.32 116.287C217.32 116.287 259.144 60.9382 295.577 81.4444C307.22 87.9976 319.415 93.8455 330.622 98.7717C324.255 86.5361 316.224 75.527 305.176 66.6755C283.391 49.2219 253.886 44.3262 225.992 45.626C196.701 46.9909 167.141 54.8256 143.34 71.9365C100.94 102.418 83.4306 156.072 68.4448 206.066L104.668 224.208C120.205 210.788 142.925 197.512 163.867 209.299C200.3 229.806 242.152 243.421 242.152 243.421C242.152 243.421 207.251 243.106 164.024 243.305C156.763 243.338 149.739 243.384 143.061 243.437L545.22 444.859C601.737 445.654 652.331 444.81 701.537 443.988C767.818 442.882 831.583 441.817 903.921 444.859C910.495 445.135 925.28 410.71 925.329 401.65C925.677 337.795 920.744 272.228 893.925 214.266ZM765.127 231.639C721.9 231.838 686.714 232.476 686.714 232.476C686.714 232.476 728.538 177.128 764.971 197.634C801.404 218.14 843.256 231.755 843.256 231.755C843.256 231.755 808.355 231.44 765.127 231.639Z" fill="url(#paint0_linear)"/>
<path d="M893.925 214.266C867.106 156.305 814.622 106.859 751.219 98.7997C734.455 96.6689 716.952 97.5235 701.398 104.124C682.92 111.966 668.84 127.037 655.059 141.789C653.613 143.336 652.17 144.881 650.726 146.413C618.526 180.563 582.493 210.891 543.34 236.795C524.016 249.577 503.289 261.503 480.346 264.773C434.345 271.33 388.844 239.989 367.865 198.567C359.992 183.022 354.663 165.851 349.366 148.782C345.846 137.439 342.34 126.142 338.11 115.396C325.909 115.373 311.373 115.378 295.734 115.449C252.506 115.649 217.32 116.287 217.32 116.287C217.32 116.287 259.144 60.9382 295.577 81.4444C307.22 87.9976 319.415 93.8455 330.622 98.7717C324.255 86.5361 316.224 75.527 305.176 66.6755C283.391 49.2219 253.886 44.3262 225.992 45.626C196.701 46.9909 167.141 54.8256 143.34 71.9365C100.94 102.418 83.4306 156.072 68.4448 206.066L104.668 224.208C120.205 210.788 142.925 197.512 163.867 209.299C200.3 229.806 242.152 243.421 242.152 243.421C242.152 243.421 207.251 243.106 164.024 243.305C156.763 243.338 149.739 243.384 143.061 243.437L545.22 444.859C601.737 445.654 652.331 444.81 701.537 443.988C767.818 442.882 831.583 441.817 903.921 444.859C910.495 445.135 925.28 410.71 925.329 401.65C925.677 337.795 920.744 272.228 893.925 214.266ZM765.127 231.639C721.9 231.838 686.714 232.476 686.714 232.476C686.714 232.476 728.538 177.128 764.971 197.634C801.404 218.14 843.256 231.755 843.256 231.755C843.256 231.755 808.355 231.44 765.127 231.639Z" stroke="black"/>
</g>
<g id="Vector_3" filter="url(#filter1_d)">
<path d="M599.093 462.498C599.093 413.07 573.975 373 542.989 373C523.514 373 506.362 388.835 496.303 412.869C492.904 411.46 489.261 410.73 485.581 410.721C476.202 410.721 467.531 415.519 460.459 423.64C451.391 393.675 432.162 373 409.906 373C389.096 373 370.947 391.087 361.261 417.931C355.88 413.396 349.099 410.85 342.059 410.721C318.28 410.721 299.003 441.472 299.003 479.405C298.904 492.05 301.206 504.6 305.787 516.389H587.779C594.878 501.397 599.093 482.735 599.093 462.498Z" fill="#6523AC"/>
</g>
<g id="Vector_4" opacity="0.3" filter="url(#filter2_d)">
<path d="M898.227 403.572C898.227 365.794 874.823 335.169 845.953 335.169C827.808 335.169 811.827 347.272 802.454 365.64C799.235 364.555 795.861 364 792.464 363.999C783.679 364.147 775.292 367.685 769.057 373.873C760.608 350.971 742.692 335.169 721.955 335.169C702.566 335.169 685.656 348.993 676.631 369.509C671.338 365.958 665.116 364.042 658.74 363.999C636.585 363.999 618.623 387.501 618.623 416.493C618.558 426.272 620.72 435.938 624.944 444.76H887.685C894.73 432.183 898.365 417.984 898.227 403.572V403.572Z" fill="#6523AC"/>
</g>
</g>
<g id="desktopview">
<path id="Rectangle 62" d="M847.241 52.6024H398.608V265.41H847.241V52.6024Z" fill="#6523AC" fill-opacity="0.16"/>
<path id="Rectangle 75" d="M834.412 70.851H411.437V248.403H834.412V70.851Z" fill="#F5F5F5"/>
<path id="Rectangle 80" d="M847.049 40.3073H398.417V59.3597H847.049V40.3073Z" fill="#6523AC"/>
<path id="Ellipse 90" d="M412.581 52.6512C414.531 52.6512 416.113 51.0702 416.113 49.1199C416.113 47.1696 414.531 45.5886 412.581 45.5886C410.63 45.5886 409.048 47.1696 409.048 49.1199C409.048 51.0702 410.63 52.6512 412.581 52.6512Z" fill="white"/>
<path id="Ellipse 91" d="M425.989 52.6512C427.94 52.6512 429.521 51.0702 429.521 49.1199C429.521 47.1696 427.94 45.5886 425.989 45.5886C424.038 45.5886 422.456 47.1696 422.456 49.1199C422.456 51.0702 424.038 52.6512 425.989 52.6512Z" fill="white"/>
<path id="Ellipse 92" d="M439.398 52.6512C441.349 52.6512 442.931 51.0702 442.931 49.1199C442.931 47.1696 441.349 45.5886 439.398 45.5886C437.447 45.5886 435.865 47.1696 435.865 49.1199C435.865 51.0702 437.447 52.6512 439.398 52.6512Z" fill="white"/>
<path id="Vector_5" d="M788.812 201.645V200.234H797.201L797.256 201.644L797.229 201.644L788.812 201.645ZM780.422 201.645H772.032V200.234H780.422V201.645ZM763.642 201.645H755.253V200.234H763.642V201.645ZM746.863 201.645H738.473V200.234H746.863V201.645ZM730.083 201.645H721.694V200.234H730.083V201.645ZM713.304 201.645H704.914V200.234H713.304V201.645ZM696.524 201.645H688.135V200.234H696.524V201.645ZM679.745 201.645H671.355V200.234H679.745V201.645ZM662.965 201.645H655.509C655.048 201.64 654.601 201.488 654.233 201.212L655.054 200.065C655.185 200.168 655.344 200.227 655.51 200.234H662.965L662.965 201.645ZM800.531 193.617H799.12V185.23H800.531V193.617ZM653.59 192.715H652.179V184.328H653.59V192.715ZM800.531 176.843H799.12V168.457H800.531V176.843ZM653.59 175.942H652.179V167.555H653.59V175.942ZM800.531 160.07H799.12V151.683H800.531V160.07ZM653.59 159.168H652.179V150.782H653.59V159.168ZM800.531 143.297H799.12V134.91H800.531V143.297ZM653.59 142.395H652.179V134.008H653.59V142.395ZM800.531 126.523H799.12V123.681C799.118 121.302 798.356 119.681 797.647 119.182L798.46 118.029C799.717 118.914 800.529 121.133 800.531 123.681V126.523ZM653.59 125.621H652.179V123.681C652.179 120.249 653.599 117.638 655.482 117.609L655.504 119.02C654.705 119.032 653.59 120.812 653.59 123.681V125.621ZM789.729 119.02H781.339V117.609H789.729V119.02ZM772.95 119.02H764.56V117.609H772.95V119.02ZM756.17 119.02H747.78V117.609H756.17V119.02ZM739.391 119.02H731.001V117.609H739.391V119.02ZM722.611 119.02H714.221V117.609H722.611V119.02ZM705.832 119.02H697.442V117.609H705.832V119.02ZM689.052 119.02H680.662V117.609H689.052V119.02ZM672.272 119.02H663.883V117.609H672.272V119.02Z" fill="#6523AC"/>
<path id="Rectangle 81" d="M539.797 122.575H453.31V127.538H539.797V122.575Z" fill="black"/>
<path id="Rectangle 82" d="M586.865 140.678H453.31V145.641H586.865V140.678Z" fill="#6523AC"/>
<path id="Rectangle 83" d="M562.154 157.733H453.31V162.696H562.154V157.733Z" fill="black"/>
<path id="Rectangle 84" d="M516.852 174.725H453.31V179.688H516.852V174.725Z" fill="black"/>
<path id="Rectangle 85" d="M549.211 191.716H453.31V196.679H549.211V191.716Z" fill="#6523AC"/>
<g id="arrowinner">
<path id="Vector_6" d="M727.747 153.878H725.956V167.237H727.747V153.878Z" fill="#6523AC"/>
<path id="Vector_7" d="M734.177 159.81L732.865 161.032L726.852 154.565L720.839 161.032L719.527 159.81L726.852 151.936L734.177 159.81Z" fill="#6523AC"/>
</g>
</g>
<g id="phone">
<g id="Path 1321" filter="url(#filter3_d)">
<path d="M295.383 106.013H293.176V45.5808C293.176 36.3047 289.491 27.4085 282.932 20.8493C276.373 14.2901 267.476 10.6052 258.2 10.6052H130.166C120.89 10.6052 111.994 14.2901 105.434 20.8493C98.8752 27.4085 95.1902 36.3047 95.1902 45.5808V377.118C95.1902 386.394 98.8752 395.29 105.434 401.849C111.994 408.408 120.89 412.093 130.166 412.093H258.2C267.476 412.093 276.373 408.408 282.932 401.849C289.491 395.29 293.176 386.394 293.176 377.118V149.03H295.383V106.013Z" fill="#6523AC"/>
</g>
<path id="Path 1322" d="M259.611 19.7038H242.899C243.668 21.5883 243.961 23.6329 243.754 25.6576C243.546 27.6822 242.844 29.6248 241.709 31.3141C240.574 33.0034 239.04 34.3875 237.244 35.3446C235.448 36.3016 233.444 36.8022 231.409 36.8022H158.06C156.025 36.802 154.021 36.3014 152.225 35.3444C150.429 34.3874 148.896 33.0034 147.761 31.3143C146.626 29.6253 145.923 27.683 145.716 25.6586C145.508 23.6342 145.802 21.5898 146.57 19.7055H130.958C124.03 19.7055 117.387 22.4574 112.488 27.3559C107.59 32.2544 104.838 38.8982 104.838 45.8258V376.874C104.838 383.802 107.59 390.446 112.488 395.344C117.387 400.243 124.03 402.995 130.958 402.995H259.607C266.534 402.995 273.178 400.243 278.076 395.344C282.975 390.446 285.727 383.802 285.727 376.874V45.8241C285.727 38.8966 282.975 32.2528 278.076 27.3543C273.178 22.4558 266.534 19.7038 259.607 19.7038H259.611Z" fill="#F5F5F5"/>
<g id="boxedcont2">
<path id="Path 39" d="M275.116 279.717H120.859C120.102 279.716 119.376 279.415 118.84 278.88C118.305 278.344 118.004 277.618 118.003 276.861V238.597C118.004 237.839 118.305 237.113 118.84 236.578C119.376 236.042 120.102 235.741 120.859 235.74H275.116C275.873 235.741 276.599 236.042 277.134 236.578C277.67 237.113 277.971 237.839 277.972 238.597V276.861C277.971 277.619 277.67 278.344 277.134 278.88C276.599 279.415 275.873 279.716 275.116 279.717ZM120.859 236.883C120.405 236.883 119.969 237.064 119.648 237.385C119.326 237.706 119.146 238.142 119.145 238.597V276.861C119.146 277.316 119.326 277.751 119.648 278.073C119.969 278.394 120.405 278.575 120.859 278.575H275.116C275.57 278.575 276.006 278.394 276.327 278.073C276.648 277.751 276.829 277.316 276.83 276.861V238.597C276.829 238.142 276.648 237.706 276.327 237.385C276.006 237.064 275.57 236.883 275.116 236.883H120.859Z" fill="#6C63FF"/>
<path id="innercircle1" d="M141.901 245.776C135.3 245.198 129.48 250.081 128.903 256.682C128.325 263.283 133.208 269.102 139.809 269.68C146.41 270.257 152.229 265.374 152.807 258.774C153.384 252.173 148.501 246.353 141.901 245.776Z" fill="url(#paint1_linear)"/>
<path id="Path 40" d="M168.564 249.73C168.299 249.726 168.035 249.774 167.789 249.873C167.542 249.971 167.318 250.118 167.129 250.304C166.939 250.49 166.789 250.712 166.686 250.957C166.584 251.202 166.531 251.464 166.531 251.73C166.531 251.995 166.584 252.258 166.686 252.503C166.789 252.748 166.939 252.97 167.129 253.156C167.318 253.342 167.542 253.488 167.789 253.587C168.035 253.685 168.299 253.734 168.564 253.729H262.834C263.097 253.734 263.359 253.687 263.604 253.591C263.848 253.495 264.072 253.351 264.261 253.169C264.45 252.986 264.602 252.768 264.707 252.527C264.811 252.285 264.867 252.026 264.872 251.763C264.876 251.5 264.828 251.238 264.732 250.994C264.635 250.749 264.491 250.526 264.308 250.337C264.124 250.149 263.906 249.998 263.664 249.894C263.423 249.79 263.163 249.734 262.9 249.73H168.565H168.564Z" fill="black"/>
<path id="Path 41" d="M168.564 261.728C168.034 261.728 167.525 261.939 167.15 262.314C166.775 262.689 166.564 263.197 166.564 263.728C166.564 264.258 166.775 264.767 167.15 265.142C167.525 265.517 168.034 265.728 168.564 265.728H262.834C263.097 265.733 263.359 265.686 263.604 265.589C263.848 265.493 264.072 265.35 264.261 265.167C264.45 264.984 264.602 264.766 264.706 264.525C264.811 264.283 264.867 264.024 264.872 263.761C264.876 263.498 264.828 263.237 264.732 262.992C264.635 262.747 264.491 262.524 264.308 262.336C264.124 262.147 263.906 261.996 263.664 261.892C263.423 261.788 263.163 261.732 262.9 261.729H168.565L168.564 261.728Z" fill="black"/>
</g>
<g id="boxedcont1">
<path id="Path 42" d="M275.116 343.705H120.859C120.102 343.704 119.376 343.403 118.84 342.867C118.305 342.332 118.004 341.606 118.003 340.848V302.584C118.004 301.827 118.305 301.101 118.84 300.565C119.376 300.03 120.102 299.729 120.859 299.728H275.116C275.873 299.729 276.599 300.03 277.134 300.565C277.67 301.101 277.971 301.827 277.972 302.584V340.849C277.971 341.606 277.67 342.332 277.134 342.868C276.599 343.403 275.873 343.704 275.116 343.705ZM120.859 300.87C120.405 300.871 119.969 301.051 119.648 301.373C119.326 301.694 119.146 302.13 119.145 302.584V340.849C119.146 341.303 119.326 341.739 119.648 342.061C119.969 342.382 120.405 342.563 120.859 342.563H275.116C275.57 342.563 276.006 342.382 276.327 342.061C276.648 341.739 276.829 341.303 276.83 340.849V302.584C276.829 302.13 276.648 301.694 276.327 301.373C276.006 301.051 275.57 300.871 275.116 300.87H120.859Z" fill="#6C63FF"/>
<path id="innercircle2" d="M140.855 333.714C147.481 333.714 152.853 328.342 152.853 321.716C152.853 315.09 147.481 309.719 140.855 309.719C134.229 309.719 128.857 315.09 128.857 321.716C128.857 328.342 134.229 333.714 140.855 333.714Z" fill="url(#paint2_linear)"/>
<path id="Path 43" d="M168.564 313.718C168.034 313.718 167.525 313.929 167.15 314.304C166.775 314.679 166.564 315.187 166.564 315.718C166.564 316.248 166.775 316.757 167.15 317.132C167.525 317.507 168.034 317.718 168.564 317.718H262.834C263.097 317.723 263.359 317.676 263.604 317.58C263.848 317.483 264.072 317.34 264.261 317.157C264.45 316.974 264.602 316.756 264.706 316.515C264.811 316.274 264.867 316.014 264.872 315.751C264.876 315.488 264.828 315.227 264.732 314.982C264.635 314.738 264.491 314.515 264.308 314.326C264.124 314.137 263.906 313.986 263.664 313.882C263.423 313.778 263.163 313.722 262.9 313.719H168.565L168.564 313.718Z" fill="black"/>
<path id="Path 44" d="M168.564 325.716C168.034 325.716 167.525 325.926 167.15 326.301C166.775 326.676 166.564 327.185 166.564 327.715C166.564 328.246 166.775 328.755 167.15 329.13C167.525 329.505 168.034 329.715 168.564 329.715H262.834C263.097 329.72 263.359 329.673 263.604 329.577C263.848 329.481 264.072 329.337 264.261 329.155C264.45 328.972 264.602 328.754 264.706 328.513C264.811 328.271 264.867 328.012 264.872 327.749C264.876 327.486 264.828 327.224 264.732 326.98C264.635 326.735 264.491 326.512 264.308 326.323C264.124 326.135 263.906 325.984 263.664 325.88C263.423 325.775 263.163 325.72 262.9 325.716H168.565L168.564 325.716Z" fill="black"/>
</g>
<path id="Path 45" d="M139.473 145.662C139.466 145.796 139.466 145.929 139.466 146.029L139.466 146.039L139.466 146.084L139.466 146.085C139.472 160.739 145.3 174.789 155.666 185.147C165.796 195.268 179.449 201.052 193.741 201.305V201.314H194.741H194.747C209.407 201.313 223.466 195.489 233.832 185.122C244.197 174.755 250.02 160.695 250.019 146.036C250.018 131.376 244.194 117.317 233.827 106.951C223.461 96.5855 209.401 90.7627 194.741 90.7635C164.443 90.7635 139.655 115.4 139.473 145.662ZM142.614 145.775L142.615 145.754L142.616 145.733C142.725 131.97 148.262 118.805 158.023 109.1C167.783 99.3959 180.978 93.9349 194.742 93.9038H194.749C205.061 93.9038 215.142 96.9619 223.716 102.691C232.291 108.421 238.974 116.564 242.92 126.092C246.866 135.619 247.898 146.103 245.886 156.217C243.873 166.331 238.907 175.622 231.615 182.913C224.322 190.205 215.031 195.17 204.917 197.181C194.802 199.192 184.319 198.159 174.791 194.212C165.264 190.264 157.122 183.58 151.393 175.005C145.665 166.43 142.608 156.349 142.61 146.037V146.036C142.61 145.946 142.61 145.869 142.614 145.775Z" fill="#6523AC" stroke="#6523AC" stroke-width="2"/>
<g id="triangle1">
<path d="M222.864 169.019H167.911C167.843 169.02 167.774 169.014 167.706 169.002L193.696 123.986C193.855 123.706 194.085 123.473 194.364 123.311C194.642 123.149 194.958 123.063 195.28 123.063C195.602 123.063 195.918 123.149 196.197 123.311C196.475 123.473 196.705 123.706 196.864 123.986L214.306 154.197L215.142 155.643L222.864 169.019Z" fill="#6523AC"/>
<path d="M222.864 169.019H167.911C167.843 169.02 167.774 169.014 167.706 169.002L193.696 123.986C193.855 123.706 194.085 123.473 194.364 123.311C194.642 123.149 194.958 123.063 195.28 123.063C195.602 123.063 195.918 123.149 196.197 123.311C196.475 123.473 196.705 123.706 196.864 123.986L214.306 154.197L215.142 155.643L222.864 169.019Z" fill="url(#paint3_linear)"/>
</g>
<g id="circle1">
<path id="Path 1363" d="M42.8652 283.648L42.5138 283.294L42.1589 283.644L41.6486 284.149L41.2922 284.501L41.6451 284.856L87.0533 330.623L87.0538 330.624L87.1587 330.73L87.3054 330.878H87.5141H109.202H109.702V330.378V329.661V329.161H109.202H88.0219L42.8652 283.648Z" fill="#6C63FF" stroke="#6C63FF"/>
<path id="Path 45_2" d="M7.77087 271.607V271.607C7.77191 268.988 8.28878 266.395 9.29195 263.976C10.2951 261.557 11.7649 259.359 13.6175 257.508C15.4701 255.657 17.6691 254.189 20.089 253.188C22.5089 252.187 25.1022 251.672 27.721 251.673L7.77087 271.607ZM7.77087 271.607V271.623V271.623V271.624V271.624V271.624V271.624V271.625V271.625V271.625V271.625V271.626V271.626V271.626V271.626V271.627V271.627V271.627V271.627V271.628V271.628V271.628V271.628V271.628V271.629V271.629V271.629V271.629V271.63V271.63V271.63V271.63V271.631V271.631V271.631V271.631V271.632V271.632V271.632V271.632V271.633V271.633V271.633V271.633V271.634V271.634V271.634V271.634V271.634V271.635V271.635V271.635V271.635V271.636V271.636V271.636V271.636V271.637V271.637V271.637V271.637V271.638V271.638V271.638V271.638V271.639V271.639V271.639V271.639V271.64V271.64V271.64V271.64V271.641V271.641V271.641V271.641V271.641V271.642V271.642V271.642V271.642V271.643V271.643V271.643V271.643V271.644V271.644V271.644V271.644V271.645V271.645V271.645V271.645V271.646V271.646V271.646V271.646V271.647V271.647V271.647V271.647V271.648V271.648V271.648V271.648V271.649V271.649V271.649V271.649V271.65V271.65V271.65V271.65V271.65V271.651V271.651V271.651V271.651V271.652V271.652V271.652V271.652V271.653V271.653V271.653V271.653V271.654V271.654V271.654V271.654V271.655V271.655V271.655V271.655V271.656V271.656V271.656V271.656V271.657V271.657V271.657V271.657V271.658V271.658V271.658V271.658V271.659V271.659V271.659V271.659V271.66V271.66V271.66V271.66V271.66V271.661V271.661V271.661V271.661V271.662V271.662V271.662V271.662V271.663V271.663V271.663V271.663V271.664V271.664V271.664V271.664V271.665V271.665V271.665V271.665V271.666V271.666V271.666V271.666V271.667V271.667V271.667V271.667V271.668V271.668V271.668V271.668V271.669V271.669V271.669V271.669V271.67V271.67V271.67V271.67V271.671V271.671V271.671V271.671V271.671V271.672V271.672V271.672V271.672V271.673V271.673V271.673V271.673V271.674V271.674V271.674V271.674V271.675V271.675V271.675V271.675V271.676V271.676V271.676V271.676V271.677V271.677V271.677V271.677V271.678V271.678V271.678V271.678V271.679V271.679V271.679V271.679V271.68V271.68V271.68V271.68V271.681V271.681V271.681V271.681V271.682V271.682V271.682V271.682V271.683V271.683V271.683V271.683V271.683V271.684V271.684V271.684V271.684V271.685V271.685V271.685V271.685V271.686V271.686V271.686V271.686V271.687V271.687V271.687V271.687V271.688V271.688V271.688V271.688V271.689V271.689V271.689V271.689V271.69V271.69V271.69V271.69V271.691V271.691V271.691V271.691V271.692V271.692V271.692V271.692V271.693V271.693V271.693V271.693V271.694V271.694V271.694V271.694V271.695V271.695V271.695V271.695V271.695V271.696V271.696V271.696V271.696V271.697V271.697V271.697V271.697V271.698V271.698V271.698V271.698V271.699V271.699V271.699V271.699V271.7V271.7V271.7V271.7V271.701V271.701V271.701V271.701V271.702V271.702V271.702V271.702V271.703V271.703V271.703V271.703V271.704V271.704V271.704V271.704V271.705V271.705V271.705V271.705V271.705V271.706V271.706V271.706V271.706V271.707V271.707V271.707V271.707V271.708V271.708V271.708V271.708V271.709V271.709V271.709V271.709V271.71V271.71V271.71V271.71V271.711V271.711V271.711V271.711V271.712V271.712V271.712V271.712V271.713V271.713V271.713V271.713V271.714V271.714V271.714V271.714V271.714V271.715V271.715V271.715V271.715V271.716V271.716V271.716V271.716V271.717V271.717V271.717V271.717V271.718V271.718V271.718V271.718V271.719V271.719V271.719V271.719V271.72V271.72V271.72V271.72V271.721V271.721V271.721V271.721V271.722V271.722V271.722V271.722V271.722V271.723V271.723V271.723V271.723V271.724V271.724V271.724V271.724V271.725V271.725V271.725V271.725V271.726V271.726V271.726V271.726V271.727V271.727V271.727V271.727V271.728V271.728V271.728V271.728V271.728V271.729V271.729V271.729V271.729V271.73V271.73V271.73V271.73V271.731V271.731V271.731V271.731V271.732V271.732V271.732V271.732V271.733V271.733V271.733V271.733V271.734V271.734V271.734V271.734V271.734V271.735V271.735V271.735V271.735V271.736V271.736V271.736V271.736V271.737V271.737V271.737V271.737V271.738V271.738V271.738V271.738V271.739V271.739V271.739V271.739V271.739V271.74V271.74V271.74V271.74V271.741V271.741V271.741V271.741V271.742V271.742V271.742V271.742V271.743V271.743V271.743V271.743V271.744V271.744V271.744V271.744V271.744V271.745V271.745V271.745V271.745V271.746V271.746V271.746V271.746V271.747V271.747V271.747L7.77086 271.747L7.77088 271.75M7.77087 271.607L7.77088 271.75M7.77088 271.75C7.79603 275.691 8.98743 279.535 11.1948 282.799M7.77088 271.75L11.1948 282.799M11.1948 282.799C13.4022 286.063 16.5267 288.6 20.1742 290.091M11.1948 282.799L20.1742 290.091M20.1742 290.091C23.8218 291.581 27.829 291.958 31.6905 291.174M20.1742 290.091L31.6905 291.174M31.6905 291.174C35.552 290.39 39.0949 288.48 41.8722 285.685M31.6905 291.174L41.8722 285.685M41.8722 285.685C44.6496 282.89 46.537 279.335 47.2965 275.469M41.8722 285.685L47.2965 275.469M47.2965 275.469C48.056 271.602 47.6536 267.597 46.14 263.959M47.2965 275.469L46.14 263.959M46.14 263.959C44.6263 260.322 42.0693 257.213 38.7913 255.027M46.14 263.959L38.7913 255.027M38.7913 255.027C35.5134 252.84 31.6614 251.673 27.7212 251.673L38.7913 255.027ZM38.0266 287.041C34.9906 289.069 31.4237 290.156 27.7733 290.165L27.7713 290.165L27.7221 290.164C22.8269 290.153 18.1338 288.211 14.6624 284.76C11.1916 281.309 9.22254 276.628 9.18297 271.733V271.625V271.625C9.18244 267.957 10.2696 264.372 12.3069 261.322C14.3442 258.272 17.2401 255.895 20.6285 254.491C24.0169 253.087 27.7454 252.72 31.3426 253.435C34.9399 254.151 38.2442 255.917 40.8376 258.51C43.4311 261.103 45.1972 264.408 45.9127 268.005C46.6281 271.602 46.2608 275.331 44.857 278.719C43.4533 282.107 41.0763 285.003 38.0266 287.041Z" fill="white" stroke="white"/>
<path id="Ellipse 193" opacity="0.8" d="M21.5909 273.795C22.7901 273.795 23.7622 272.822 23.7622 271.623C23.7622 270.424 22.7901 269.452 21.5909 269.452C20.3917 269.452 19.4195 270.424 19.4195 271.623C19.4195 272.822 20.3917 273.795 21.5909 273.795Z" fill="#6523AC"/>
<path id="Ellipse 194" opacity="0.4" d="M33.8533 273.795C35.0525 273.795 36.0247 272.822 36.0247 271.623C36.0247 270.424 35.0525 269.452 33.8533 269.452C32.6541 269.452 31.6819 270.424 31.6819 271.623C31.6819 272.822 32.6541 273.795 33.8533 273.795Z" fill="#6523AC"/>
<path id="Ellipse 195" opacity="0.6" d="M27.722 273.795C28.9213 273.795 29.8934 272.822 29.8934 271.623C29.8934 270.424 28.9213 269.452 27.722 269.452C26.5228 269.452 25.5507 270.424 25.5507 271.623C25.5507 272.822 26.5228 273.795 27.722 273.795Z" fill="#6523AC" fill-opacity="0.78"/>
</g>
<g id="circle3">
<path id="Path 1414" d="M328.824 99.3028L328.469 98.9521L328.118 99.3063L282.961 144.819H261.781H261.281V145.319V146.036V146.536H261.781H283.469H283.678L283.824 146.388L283.929 146.282L283.93 146.282L329.338 100.515L329.691 100.159L329.334 99.807L328.824 99.3028Z" fill="#6C63FF" stroke="#6C63FF"/>
<path id="Path 45_3" d="M322.126 86.4272L322.126 86.427L322.126 86.411V86.4108V86.4105V86.4103V86.41V86.4098V86.4096V86.4093V86.4091V86.4088V86.4086V86.4084V86.4081V86.4079V86.4076V86.4074V86.4072V86.4069V86.4067V86.4065V86.4062V86.406V86.4057V86.4055V86.4052V86.405V86.4048V86.4045V86.4043V86.404V86.4038V86.4036V86.4033V86.4031V86.4028V86.4026V86.4024V86.4021V86.4019V86.4016V86.4014V86.4012V86.4009V86.4007V86.4004V86.4002V86.4V86.3997V86.3995V86.3992V86.399V86.3987V86.3985V86.3983V86.398V86.3978V86.3975V86.3973V86.3971V86.3968V86.3966V86.3963V86.3961V86.3958V86.3956V86.3954V86.3951V86.3949V86.3946V86.3944V86.3941V86.3939V86.3937V86.3934V86.3932V86.3929V86.3927V86.3925V86.3922V86.392V86.3917V86.3915V86.3912V86.391V86.3908V86.3905V86.3903V86.39V86.3898V86.3895V86.3893V86.3891V86.3888V86.3886V86.3883V86.3881V86.3878V86.3876V86.3874V86.3871V86.3869V86.3866V86.3864V86.3861V86.3859V86.3857V86.3854V86.3852V86.3849V86.3847V86.3844V86.3842V86.3839V86.3837V86.3835V86.3832V86.383V86.3827V86.3825V86.3822V86.382V86.3818V86.3815V86.3813V86.381V86.3808V86.3805V86.3803V86.3801V86.3798V86.3796V86.3793V86.3791V86.3788V86.3786V86.3783V86.3781V86.3779V86.3776V86.3774V86.3771V86.3769V86.3766V86.3764V86.3761V86.3759V86.3757V86.3754V86.3752V86.3749V86.3747V86.3744V86.3742V86.3739V86.3737V86.3735V86.3732V86.373V86.3727V86.3725V86.3722V86.372V86.3717V86.3715V86.3713V86.371V86.3708V86.3705V86.3703V86.37V86.3698V86.3695V86.3693V86.3691V86.3688V86.3686V86.3683V86.3681V86.3678V86.3676V86.3673V86.3671V86.3669V86.3666V86.3664V86.3661V86.3659V86.3656V86.3654V86.3651V86.3649V86.3647V86.3644V86.3642V86.3639V86.3637V86.3634V86.3632V86.3629V86.3627V86.3624V86.3622V86.362V86.3617V86.3615V86.3612V86.361V86.3607V86.3605V86.3602V86.36V86.3598V86.3595V86.3593V86.359V86.3588V86.3585V86.3583V86.358V86.3578V86.3576V86.3573V86.3571V86.3568V86.3566V86.3563V86.3561V86.3558V86.3556V86.3553V86.3551V86.3549V86.3546V86.3544V86.3541V86.3539V86.3536V86.3534V86.3531V86.3529V86.3527V86.3524V86.3522V86.3519V86.3517V86.3514V86.3512V86.3509V86.3507V86.3504V86.3502V86.35V86.3497V86.3495V86.3492V86.349V86.3487V86.3485V86.3482V86.348V86.3478V86.3475V86.3473V86.347V86.3468V86.3465V86.3463V86.346V86.3458V86.3456V86.3453V86.3451V86.3448V86.3446V86.3443V86.3441V86.3438V86.3436V86.3433V86.3431V86.3429V86.3426V86.3424V86.3421V86.3419V86.3416V86.3414V86.3411V86.3409V86.3407V86.3404V86.3402V86.3399V86.3397V86.3394V86.3392V86.3389V86.3387V86.3385V86.3382V86.338V86.3377V86.3375V86.3372V86.337V86.3367V86.3365V86.3363V86.336V86.3358V86.3355V86.3353V86.335V86.3348V86.3345V86.3343V86.3341V86.3338V86.3336V86.3333V86.3331V86.3328V86.3326V86.3324V86.3321V86.3319V86.3316V86.3314V86.3311V86.3309V86.3306V86.3304V86.3302V86.3299V86.3297V86.3294V86.3292V86.3289V86.3287V86.3285V86.3282V86.328V86.3277V86.3275V86.3272V86.327V86.3267V86.3265V86.3263V86.326V86.3258V86.3255V86.3253V86.325V86.3248V86.3246V86.3243V86.3241V86.3238V86.3236V86.3233V86.3231V86.3229V86.3226V86.3224V86.3221V86.3219V86.3216V86.3214V86.3212V86.3209V86.3207V86.3204V86.3202V86.3199V86.3197V86.3195V86.3192V86.319V86.3187V86.3185V86.3182V86.318V86.3178V86.3175V86.3173V86.317V86.3168V86.3166V86.3163V86.3161V86.3158V86.3156V86.3153V86.3151V86.3149V86.3146V86.3144V86.3141V86.3139V86.3136V86.3134V86.3132V86.3129V86.3127V86.3124V86.3122V86.312V86.3117V86.3115V86.3112V86.311V86.3108V86.3105V86.3103V86.31V86.3098V86.3095V86.3093V86.3091V86.3088V86.3086V86.3083V86.3081V86.3079V86.3076V86.3074V86.3071V86.3069V86.3067V86.3064V86.3062V86.3059V86.3057V86.3055V86.3052V86.305V86.3047V86.3045V86.3043V86.304V86.3038V86.3035V86.3033V86.3031V86.3028V86.3026V86.3023V86.3021V86.3019V86.3016V86.3014V86.3011V86.3009V86.3007V86.3004V86.3002V86.2999V86.2997V86.2995V86.2992V86.299V86.2987V86.2985V86.2983V86.298V86.2978V86.2976V86.2973V86.2971V86.2968V86.2966V86.2964V86.2961V86.2959V86.2956V86.2954V86.2952V86.2949V86.2947V86.2945V86.2942V86.294V86.2937V86.2935V86.2933V86.293V86.2928V86.2926V86.2923V86.2921V86.2918V86.2916V86.2914V86.2911V86.2909V86.2907V86.2904V86.2902V86.2899V86.2897V86.2895V86.2892V86.289V86.2888V86.2885V86.2883V86.2881V86.2878V86.2876V86.2873V86.2871V86.2869V86.2837H322.126C322.151 82.3434 323.342 78.4989 325.55 75.2349C327.757 71.9709 330.882 69.4337 334.529 67.9432C338.177 66.4528 342.184 66.0758 346.045 66.8599C349.907 67.644 353.45 69.554 356.227 72.3491C359.004 75.1442 360.892 78.6991 361.651 82.5655C362.411 86.4319 362.008 90.4367 360.495 94.0747C358.981 97.7127 356.424 100.821 353.146 103.008C349.868 105.194 346.016 106.361 342.076 106.361L322.126 86.4272ZM322.126 86.4272C322.127 89.046 322.644 91.639 323.647 94.0581C324.65 96.4772 326.12 98.675 327.972 100.526C329.825 102.377 332.024 103.845 334.444 104.846C336.864 105.847 339.457 106.362 342.076 106.361L322.126 86.4272ZM342.077 67.8697L342.131 67.8696L342.135 67.8687C345.784 67.8794 349.349 68.9662 352.383 70.9938C355.432 73.0314 357.809 75.9276 359.212 79.316C360.616 82.7044 360.983 86.4329 360.267 90.0299C359.552 93.6269 357.785 96.931 355.192 99.5242C352.598 102.117 349.294 103.883 345.697 104.598C342.1 105.314 338.371 104.946 334.983 103.542C331.595 102.139 328.699 99.7616 326.662 96.7119C324.625 93.6622 323.537 90.0769 323.538 86.4094V86.4093V86.301C323.577 81.4067 325.546 76.7256 329.017 73.2745C332.489 69.823 337.182 67.8807 342.077 67.8697Z" fill="white" stroke="white"/>
<path id="Path 1265" d="M346.771 92.5835C346.771 93.1149 346.718 93.645 346.612 94.1656C345.159 94.7818 343.597 95.0993 342.019 95.0993C340.441 95.0993 338.879 94.7818 337.426 94.1656C337.32 93.645 337.267 93.1149 337.267 92.5835C337.267 89.8218 338.673 87.4877 340.61 86.7077C339.837 86.3824 339.2 85.7996 338.807 85.058C338.415 84.3165 338.291 83.4619 338.457 82.6395C338.623 81.817 339.068 81.0773 339.717 80.5459C340.367 80.0145 341.18 79.7242 342.019 79.7242C342.858 79.7242 343.671 80.0145 344.32 80.5459C344.97 81.0773 345.415 81.817 345.581 82.6395C345.747 83.4619 345.623 84.3165 345.23 85.058C344.838 85.7996 344.201 86.3824 343.427 86.7077C345.365 87.4877 346.771 89.8218 346.771 92.5835Z" fill="#6523AC"/>
</g>
<g id="circle2">
<path id="Path 1362" d="M42.881 215.162L42.5297 214.808L42.1748 215.159L41.6645 215.662L41.3077 216.014L41.6608 216.37L87.0691 262.138L87.0695 262.138L87.1744 262.244L87.3212 262.392H87.5298H109.217H109.717V261.892V261.175V260.675H109.217H88.0377L42.881 215.162Z" fill="#6C63FF" stroke="#6C63FF"/>
<path id="Vector_8" d="M36.6006 202.432H17.1407V205.504H36.6006V202.432Z" fill="#6523AC"/>
<path id="Vector_9" d="M36.6006 210.625C37.7319 210.625 38.649 207.645 38.649 203.968C38.649 200.291 37.7319 197.311 36.6006 197.311C35.4693 197.311 34.5522 200.291 34.5522 203.968C34.5522 207.645 35.4693 210.625 36.6006 210.625Z" fill="#6523AC"/>
<path id="Vector_10" d="M17.6528 210.625C18.5013 210.625 19.1891 207.645 19.1891 203.968C19.1891 200.291 18.5013 197.311 17.6528 197.311C16.8043 197.311 15.6816 200.291 15.6816 203.968C15.6816 207.645 16.8043 210.625 17.6528 210.625Z" fill="#6523AC"/>
<g id="Path 45_4" filter="url(#filter4_d)">
<path d="M27.4501 222.9C24.8969 222.901 22.3685 222.399 20.0093 221.423C17.65 220.447 15.5061 219.016 13.7 217.211C11.8939 215.407 10.461 213.264 9.48294 210.906C8.50492 208.547 8.00101 206.019 8 203.466V203.45C8 203.409 8 203.366 8 203.326C8.02452 199.484 9.18606 195.736 11.3381 192.554C13.4902 189.372 16.5363 186.898 20.0925 185.445C23.6486 183.992 27.5554 183.625 31.3201 184.389C35.0849 185.153 38.5389 187.016 41.2467 189.741C43.9544 192.466 45.7946 195.931 46.535 199.701C47.2755 203.471 46.8832 207.375 45.4075 210.922C43.9317 214.469 41.4388 217.499 38.243 219.631C35.0472 221.762 31.2917 222.9 27.4501 222.9V222.9ZM27.4501 184.409C22.4232 184.42 17.6038 186.415 14.039 189.959C10.4743 193.503 8.4522 198.311 8.4121 203.338C8.4121 203.382 8.4121 203.417 8.4121 203.448C8.41166 207.215 9.52814 210.897 11.6203 214.029C13.7125 217.161 16.6865 219.602 20.1661 221.043C23.6457 222.485 27.4747 222.862 31.1688 222.128C34.8629 221.393 38.2563 219.58 40.9197 216.917C43.5831 214.254 45.397 210.861 46.132 207.167C46.8669 203.473 46.4899 199.644 45.0487 196.164C43.6074 192.684 41.1666 189.71 38.035 187.617C34.9033 185.525 31.2215 184.408 27.4551 184.408L27.4501 184.409Z" fill="white"/>
<path d="M7.5 203.466L7.5 203.466L7.5 203.45V203.45V203.45V203.449V203.449V203.449V203.449V203.448V203.448V203.448V203.448V203.447V203.447V203.447V203.447V203.447V203.446V203.446V203.446V203.446V203.445V203.445V203.445V203.445V203.444V203.444V203.444V203.444V203.443V203.443V203.443V203.443V203.442V203.442V203.442V203.442V203.441V203.441V203.441V203.441V203.44V203.44V203.44V203.44V203.44V203.439V203.439V203.439V203.439V203.438V203.438V203.438V203.438V203.437V203.437V203.437V203.437V203.436V203.436V203.436V203.436V203.435V203.435V203.435V203.435V203.434V203.434V203.434V203.434V203.433V203.433V203.433V203.433V203.433V203.432V203.432V203.432V203.432V203.431V203.431V203.431V203.431V203.43V203.43V203.43V203.43V203.429V203.429V203.429V203.429V203.428V203.428V203.428V203.428V203.427V203.427V203.427V203.427V203.426V203.426V203.426V203.426V203.425V203.425V203.425V203.425V203.425V203.424V203.424V203.424V203.424V203.423V203.423V203.423V203.423V203.422V203.422V203.422V203.422V203.421V203.421V203.421V203.421V203.42V203.42V203.42V203.42V203.419V203.419V203.419V203.419V203.418V203.418V203.418V203.418V203.417V203.417V203.417V203.417V203.416V203.416V203.416V203.416V203.415V203.415V203.415V203.415V203.415V203.414V203.414V203.414V203.414V203.413V203.413V203.413V203.413V203.412V203.412V203.412V203.412V203.411V203.411V203.411V203.411V203.41V203.41V203.41V203.41V203.409V203.409V203.409V203.409V203.408V203.408V203.408V203.408V203.407V203.407V203.407V203.407V203.406V203.406V203.406V203.406V203.405V203.405V203.405V203.405V203.404V203.404V203.404V203.404V203.404V203.403V203.403V203.403V203.403V203.402V203.402V203.402V203.402V203.401V203.401V203.401V203.401V203.4V203.4V203.4V203.4V203.399V203.399V203.399V203.399V203.398V203.398V203.398V203.398V203.397V203.397V203.397V203.397V203.396V203.396V203.396V203.396V203.395V203.395V203.395V203.395V203.394V203.394V203.394V203.394V203.393V203.393V203.393V203.393V203.392V203.392V203.392V203.392V203.392V203.391V203.391V203.391V203.391V203.39V203.39V203.39V203.39V203.389V203.389V203.389V203.389V203.388V203.388V203.388V203.388V203.387V203.387V203.387V203.387V203.386V203.386V203.386V203.386V203.385V203.385V203.385V203.385V203.384V203.384V203.384V203.384V203.383V203.383V203.383V203.383V203.382V203.382V203.382V203.382V203.381V203.381V203.381V203.381V203.38V203.38V203.38V203.38V203.38V203.379V203.379V203.379V203.379V203.378V203.378V203.378V203.378V203.377V203.377V203.377V203.377V203.376V203.376V203.376V203.376V203.375V203.375V203.375V203.375V203.374V203.374V203.374V203.374V203.373V203.373V203.373V203.373V203.372V203.372V203.372V203.372V203.371V203.371V203.371V203.371V203.37V203.37V203.37V203.37V203.369V203.369V203.369V203.369V203.369V203.368V203.368V203.368V203.368V203.367V203.367V203.367V203.367V203.366V203.366V203.366V203.366V203.365V203.365V203.365V203.365V203.364V203.364V203.364V203.364V203.363V203.363V203.363V203.363V203.362V203.362V203.362V203.362V203.361V203.361V203.361V203.361V203.36V203.36V203.36V203.36V203.36V203.359V203.359V203.359V203.359V203.358V203.358V203.358V203.358V203.357V203.357V203.357V203.357V203.356V203.356V203.356V203.356V203.355V203.355V203.355V203.355V203.354V203.354V203.354V203.354V203.353V203.353V203.353V203.353V203.353V203.352V203.352V203.352V203.352V203.351V203.351V203.351V203.351V203.35V203.35V203.35V203.35V203.349V203.349V203.349V203.349V203.348V203.348V203.348V203.348V203.347V203.347V203.347V203.347V203.346V203.346V203.346V203.346V203.346V203.345V203.345V203.345V203.345V203.344V203.344V203.344V203.344V203.343V203.343V203.343V203.343V203.342V203.342V203.342V203.342V203.341V203.341V203.341V203.341V203.34V203.34V203.34V203.34V203.34V203.339V203.339V203.339V203.339V203.338V203.338V203.338V203.338V203.337V203.337V203.337V203.337V203.336V203.336V203.336V203.336V203.335V203.335V203.335V203.335V203.335V203.334V203.334V203.334V203.334V203.333V203.333V203.333V203.333V203.332V203.332V203.332V203.332V203.331V203.331V203.331V203.331V203.33V203.33V203.33V203.33V203.33V203.329V203.329V203.329V203.329V203.328V203.328V203.328V203.328V203.327V203.327V203.327V203.327V203.326V203.326V203.326V203.323H7.50001C7.52516 199.383 8.71656 195.538 10.9239 192.274C13.1313 189.01 16.2558 186.473 19.9033 184.982C23.5509 183.492 27.5581 183.115 31.4196 183.899C35.2812 184.683 38.824 186.593 41.6013 189.388C44.3787 192.183 46.2661 195.738 47.0257 199.605C47.7852 203.471 47.3827 207.476 45.8691 211.114C44.3554 214.752 41.7984 217.86 38.5204 220.047C35.2425 222.233 31.3906 223.4 27.4503 223.4L7.5 203.466ZM7.5 203.466C7.50104 206.085 8.01791 208.678 9.02108 211.097C10.0242 213.516 11.4941 215.714 13.3466 217.565C15.1992 219.416 17.3982 220.884 19.8181 221.885C22.238 222.887 24.8313 223.401 27.4501 223.4L7.5 203.466ZM27.4512 184.909L27.5053 184.909L27.5094 184.908C31.158 184.918 34.7228 186.005 37.7572 188.033C40.8066 190.071 43.1833 192.967 44.5867 196.355C45.9902 199.743 46.3572 203.472 45.6416 207.069C44.9259 210.666 43.1596 213.97 40.5662 216.563C37.9727 219.156 34.6684 220.922 31.0713 221.638C27.4742 222.353 23.7457 221.985 20.3575 220.581C16.9692 219.178 14.0734 216.801 12.0361 213.751C9.99884 210.701 8.91167 207.116 8.9121 203.448V203.448V203.34C8.95166 198.446 10.9207 193.765 14.3916 190.314C17.8629 186.862 22.556 184.92 27.4512 184.909Z" stroke="white"/>
</g>
</g>
</g>
<g id="undraw_working_out_6psf 1">
<g id="Guy">
<path id="Vector_11" d="M550.904 306.925C550.904 306.925 546.556 273.596 539.308 282.686C532.061 291.775 539.308 305.41 539.308 305.41L545.106 312.984L550.904 308.439V306.925Z" fill="#9F616A"/>
<path id="Vector_12" d="M568.298 317.529C568.298 317.529 553.803 300.865 550.904 303.895C548.005 306.925 539.308 308.439 540.758 314.499C542.207 320.559 572.646 340.253 572.646 340.253L568.298 317.529Z" fill="#6523AC"/>
<path id="Vector_13" opacity="0.1" d="M568.298 317.529C568.298 317.529 553.803 300.865 550.904 303.895C548.005 306.925 539.308 308.439 540.758 314.499C542.207 320.559 572.646 340.253 572.646 340.253L568.298 317.529Z" fill="#6523AC"/>
<path id="Vector_14" d="M650.916 316.014V328.133C650.916 328.133 652.365 355.402 643.669 353.887C634.972 352.372 639.32 329.648 639.32 329.648L640.77 316.014H650.916Z" fill="#9F616A"/>
<path id="Vector_15" d="M646.568 403.879C646.568 403.879 659.613 425.088 663.961 426.603C668.309 428.117 691.5 441.752 694.399 455.386L714.692 482.654L704.546 496.289C704.546 496.289 658.163 444.782 645.118 440.237C632.073 435.692 619.028 412.968 619.028 412.968L646.568 403.879Z" fill="#9F616A"/>
<path id="Vector_16" d="M543.657 369.036C543.657 369.036 516.117 373.581 520.466 391.76C524.814 409.938 566.848 447.811 566.848 447.811L568.297 456.901L584.241 459.931L591.489 452.356L590.039 447.811C590.039 447.811 572.646 431.147 571.196 425.088C569.747 419.028 553.803 394.789 546.556 393.274L556.702 387.215L543.657 369.036Z" fill="#9F616A"/>
<path id="Vector_17" d="M710.343 482.654C710.343 482.654 704.546 473.565 713.242 475.08C721.939 476.595 727.737 478.11 727.737 484.169C727.737 490.229 720.49 532.646 711.793 529.617C703.096 526.587 710.343 512.953 710.343 512.953C710.343 512.953 705.995 500.833 703.096 499.318C700.197 497.803 700.197 490.229 703.096 490.229C705.995 490.229 711.793 485.684 710.343 482.654Z" fill="#2F2E41"/>
<path id="Vector_18" d="M587.14 449.326C587.14 449.326 587.14 441.752 592.938 449.326C598.736 456.901 601.635 462.96 595.837 467.505C590.039 472.05 569.747 482.654 569.747 482.654C569.747 482.654 548.005 487.199 550.904 476.595C550.904 476.595 565.399 469.02 565.399 462.96C565.399 456.901 565.399 446.296 569.747 449.326C574.095 452.356 587.14 453.871 587.14 449.326Z" fill="#2F2E41"/>
<path id="Vector_19" d="M614.68 335.708C614.68 335.708 634.972 338.738 633.523 369.036C633.523 369.036 659.613 396.304 652.365 405.394C645.118 414.483 629.174 431.147 623.376 426.603C617.579 422.058 600.185 387.215 600.185 387.215C600.185 387.215 559.601 402.364 552.353 394.789C545.106 387.215 537.859 369.036 537.859 369.036L574.095 349.342L614.68 335.708Z" fill="#2F2E41"/>
<path id="Vector_20" d="M558.151 249.358C548.545 249.358 540.758 241.219 540.758 231.179C540.758 221.139 548.545 213 558.151 213C567.757 213 575.545 221.139 575.545 231.179C575.545 241.219 567.757 249.358 558.151 249.358Z" fill="#9F616A"/>
<path id="Vector_21" d="M571.196 232.694C571.196 232.694 581.342 249.358 584.241 250.873C587.14 252.388 563.949 267.537 563.949 267.537C563.949 267.537 563.949 247.843 556.702 243.298L571.196 232.694Z" fill="#9F616A"/>
<path id="Vector_22" d="M572.898 248.601C572.898 248.601 596.09 241.026 600.438 253.145C604.786 265.265 614.932 287.988 613.483 303.138C612.034 318.287 609.135 315.257 613.483 319.802C617.831 324.346 620.73 321.316 619.281 327.376C617.831 333.436 616.382 333.436 617.831 336.466C619.281 339.495 600.438 350.1 584.494 351.615L568.55 353.13C568.55 353.13 568.55 325.861 565.651 319.802C562.752 313.742 556.954 301.623 556.954 297.078V285.053C556.954 277.049 558.953 269.184 562.752 262.235C562.752 262.235 571.449 248.601 572.898 248.601Z" fill="#6523AC"/>
<path id="Vector_23" d="M590.039 255.418C590.039 255.418 643.669 259.962 649.466 275.111C655.264 290.26 658.163 320.559 652.365 320.559C646.568 320.559 639.32 323.589 637.871 320.559C636.421 317.529 630.624 287.231 629.174 287.231C627.725 287.231 584.241 282.686 584.241 282.686C584.241 282.686 565.399 258.447 590.039 255.418Z" fill="#6523AC"/>
<path id="Vector_24" d="M557.452 226.672C557.452 226.672 552.837 218.289 547.067 225.57C541.298 232.852 537.036 223.507 538.477 220.651C540.325 218.235 537.496 219.506 546.215 216.527C546.215 216.527 572.618 206.874 575.431 226.672C578.245 246.471 573.045 242.237 573.045 242.237C573.045 242.237 569.974 224.694 567.198 229.733L564.423 234.772L562.015 235.391L557.452 226.672Z" fill="#2F2E41"/>
</g>
<g id="girl">
<path id="Vector_25" d="M299.026 286.195C310.067 286.195 319.018 276.84 319.018 265.301C319.018 253.761 310.067 244.407 299.026 244.407C287.985 244.407 279.035 253.761 279.035 265.301C279.035 276.84 287.985 286.195 299.026 286.195Z" fill="#2F2E41"/>
<path id="Vector_26" d="M292.636 280.766C292.636 280.766 293.671 300.228 291.602 300.228C289.533 300.228 304.533 309.419 304.533 309.419L313.844 304.013V297.525C313.844 297.525 301.429 295.903 306.602 281.847C311.774 267.791 292.636 280.766 292.636 280.766Z" fill="#FFB8B8"/>
<path id="Vector_27" d="M249.186 494.31L247.635 510.528L252.807 512.15L256.945 507.825L258.497 494.31H249.186Z" fill="#FFB8B8"/>
<path id="Vector_28" d="M323.672 503.5L326.258 513.772L333.499 518.637L341.258 514.312L332.465 499.175L323.672 503.5Z" fill="#FFB8B8"/>
<path id="Vector_29" d="M297.55 289.146C305.834 289.146 312.55 282.126 312.55 273.468C312.55 264.809 305.834 257.79 297.55 257.79C289.266 257.79 282.55 264.809 282.55 273.468C282.55 282.126 289.266 289.146 297.55 289.146Z" fill="#FFB8B8"/>
<path id="Vector_30" d="M288.498 332.125L284.877 330.503C284.877 330.503 278.67 326.719 278.153 319.15C277.636 311.581 283.325 301.85 283.325 301.85L291.602 299.147L301.325 307.419L301.429 320.772L288.498 332.125Z" fill="#FFB8B8"/>
<path id="Vector_31" d="M290.303 301.988L288.28 300.817C288.28 300.817 277.966 299.821 276.409 312.738C274.853 325.656 270.364 347.102 270.364 347.102C270.364 347.102 261.485 361.861 261.349 378.087L256.648 391.949C256.648 391.949 250.136 412.223 256.854 412.519C263.572 412.816 263.949 390.647 263.949 390.647C263.949 390.647 277.615 359.867 278.866 354.511C284.007 347.102 289.927 324.157 287.626 317.021C285.326 309.885 290.303 301.988 290.303 301.988Z" fill="#FFB8B8"/>
<path id="Vector_32" d="M292.636 336.99V342.937C292.636 342.937 296.257 347.262 294.705 349.965C293.153 352.668 291.602 358.074 291.602 358.074L298.843 369.968L323.154 372.13L327.989 338.277L292.636 336.99Z" fill="#FFB8B8"/>
<path id="Vector_33" d="M315.395 299.147L319.533 296.985C319.533 296.985 328.327 290.497 335.568 289.416L357.81 273.738L372.293 237.517C372.293 237.517 371.776 218.055 375.914 220.217C380.052 222.38 379.535 239.139 379.535 239.139C379.535 239.139 371.776 272.657 365.052 281.847C358.327 291.038 334.016 306.175 334.016 306.175C334.016 306.175 327.292 314.284 327.809 318.069C328.327 321.853 315.395 299.147 315.395 299.147Z" fill="#FFB8B8"/>
<path id="Vector_34" d="M296.257 358.074C296.257 358.074 290.567 354.29 286.946 360.777C283.326 367.265 276.601 368.887 272.463 388.349C268.325 407.811 258.497 438.626 255.911 440.789C253.325 442.951 242.462 465.657 248.669 497.553H259.015L267.808 451.601C267.808 451.601 296.257 414.839 298.326 399.702L307.636 456.467C307.636 456.467 308.154 478.091 315.913 488.363L324.189 508.906L335.051 503.5L322.637 451.601C322.637 451.601 328.844 399.161 324.706 384.565L324.111 365.428C324.111 365.428 307.119 366.184 296.257 358.074Z" fill="#2F2E41"/>
<path id="Vector_35" d="M252.807 507.825H246.6C245.566 507.825 237.29 514.853 240.911 518.637C244.531 522.422 250.221 529.45 250.221 529.45C250.221 529.45 270.394 532.131 270.911 528.347C271.429 524.563 262.118 516.475 262.118 516.475L259.532 507.825C259.532 507.825 254.359 501.878 252.807 507.825Z" fill="#2F2E41"/>
<path id="Vector_36" d="M335.051 513.231C335.051 513.231 326.258 512.691 324.706 512.15C323.154 511.609 320.051 526.206 324.706 527.287C329.361 528.369 348.5 529.99 348.5 529.99C348.5 529.99 363.5 529.45 362.466 525.125C361.431 520.8 341.258 512.15 341.258 512.15C341.258 512.15 338.672 506.744 335.051 513.231Z" fill="#2F2E41"/>
<path id="Vector_37" d="M294.188 298.606L291.602 296.985L288.498 299.688C288.498 299.688 297.962 313.4 295.893 319.346C293.824 325.293 284.877 330.503 284.877 330.503C284.877 330.503 292.636 339.693 292.636 342.937C292.636 342.937 312.809 335.368 327.809 342.937C327.809 342.937 328.69 336.743 329.614 332.877C336.543 332.877 336.081 321.763 327.809 313.744C324.165 308.97 320.88 303.909 317.982 298.607L312.809 295.363L310.145 296.246C310.145 296.246 315.395 302.391 310.223 302.931C305.05 303.472 296.774 301.85 294.188 298.606Z" fill="#6523AC"/>
<path id="Vector_38" d="M313.637 229.678C311.88 231.728 309.473 233.046 306.859 233.389C302.341 234.063 305.891 241.485 305.891 241.485C305.891 241.485 304.6 238.786 307.182 236.425C309.764 234.063 313.637 232.714 313.637 229.678Z" fill="#2F2E41"/>
<path id="Vector_39" d="M304.925 248.859C308.002 248.859 310.497 246.252 310.497 243.036C310.497 239.82 308.002 237.213 304.925 237.213C301.848 237.213 299.354 239.82 299.354 243.036C299.354 246.252 301.848 248.859 304.925 248.859Z" fill="#2F2E41"/>
<path id="Vector_40" d="M311.43 248.77C307.126 246.421 299.721 244.572 295.787 244.705L296.782 240.728C300.265 243.201 307.631 245.084 312.425 244.794L311.43 248.77Z" fill="#6C63FF"/>
<path id="Vector_41" d="M302.538 249.12C302.538 249.12 295.755 258.234 282.19 260.26C268.625 262.285 279.283 284.564 279.283 284.564C279.283 284.564 275.408 276.463 283.159 269.374C290.911 262.285 302.538 258.234 302.538 249.12Z" fill="#2F2E41"/>
<path id="Vector_42" d="M303.055 248.58C303.055 248.58 306.93 262.757 312.744 264.782C318.558 266.808 315.651 288.074 305.962 290.099C305.962 290.099 314.197 278.454 309.353 269.34C304.508 260.225 301.601 253.137 303.055 248.58Z" fill="#2F2E41"/>
<path id="Vector_43" d="M394.277 224.812H358.586V229.137H394.277V224.812Z" fill="#2F2E41"/>
<path id="Vector_44" d="M394.277 239.95C395.991 239.95 397.38 234.141 397.38 226.975C397.38 219.809 395.991 214 394.277 214C392.563 214 391.173 219.809 391.173 226.975C391.173 234.141 392.563 239.95 394.277 239.95Z" fill="#2F2E41"/>
<path id="Vector_45" d="M358.586 239.95C360.3 239.95 361.69 234.141 361.69 226.975C361.69 219.809 360.3 214 358.586 214C356.872 214 355.483 219.809 355.483 226.975C355.483 234.141 356.872 239.95 358.586 239.95Z" fill="#2F2E41"/>
</g>
</g>
</g>
<defs>
<filter id="filter0_d" x="0" y="325.169" width="305.609" height="129.59" filterUnits="userSpaceOnUse" color-interpolation-filters="sRGB">
<feFlood flood-opacity="0" result="BackgroundImageFix"/>
<feColorMatrix in="SourceAlpha" type="matrix" values="0 0 0 0 0 0 0 0 0 0 0 0 0 0 0 0 0 0 127 0"/>
<feOffset dx="16"/>
<feGaussianBlur stdDeviation="5"/>
<feColorMatrix type="matrix" values="0 0 0 0 0.933333 0 0 0 0 0.933333 0 0 0 0 0.933333 0 0 0 0.25 0"/>
<feBlend mode="normal" in2="BackgroundImageFix" result="effect1_dropShadow"/>
<feBlend mode="normal" in="SourceGraphic" in2="effect1_dropShadow" result="shape"/>
</filter>
<filter id="filter1_d" x="287" y="363" width="344.093" height="187.389" filterUnits="userSpaceOnUse" color-interpolation-filters="sRGB">
<feFlood flood-opacity="0" result="BackgroundImageFix"/>
<feColorMatrix in="SourceAlpha" type="matrix" values="0 0 0 0 0 0 0 0 0 0 0 0 0 0 0 0 0 0 127 0"/>
<feOffset dx="10" dy="12"/>
<feGaussianBlur stdDeviation="11"/>
<feColorMatrix type="matrix" values="0 0 0 0 0 0 0 0 0 0 0 0 0 0 0 0 0 0 1 0"/>
<feBlend mode="normal" in2="BackgroundImageFix" result="effect1_dropShadow"/>
<feBlend mode="normal" in="SourceGraphic" in2="effect1_dropShadow" result="shape"/>
</filter>
<filter id="filter2_d" x="595.622" y="302.169" width="323.609" height="153.59" filterUnits="userSpaceOnUse" color-interpolation-filters="sRGB">
<feFlood flood-opacity="0" result="BackgroundImageFix"/>
<feColorMatrix in="SourceAlpha" type="matrix" values="0 0 0 0 0 0 0 0 0 0 0 0 0 0 0 0 0 0 127 0"/>
<feOffset dx="-1" dy="-11"/>
<feGaussianBlur stdDeviation="11"/>
<feColorMatrix type="matrix" values="0 0 0 0 0 0 0 0 0 0 0 0 0 0 0 0 0 0 1 0"/>
<feBlend mode="normal" in2="BackgroundImageFix" result="effect1_dropShadow"/>
<feBlend mode="normal" in="SourceGraphic" in2="effect1_dropShadow" result="shape"/>
</filter>
<filter id="filter3_d" x="91.1902" y="0.605225" width="228.192" height="429.488" filterUnits="userSpaceOnUse" color-interpolation-filters="sRGB">
<feFlood flood-opacity="0" result="BackgroundImageFix"/>
<feColorMatrix in="SourceAlpha" type="matrix" values="0 0 0 0 0 0 0 0 0 0 0 0 0 0 0 0 0 0 127 0"/>
<feOffset dx="10" dy="4"/>
<feGaussianBlur stdDeviation="7"/>
<feColorMatrix type="matrix" values="0 0 0 0 0 0 0 0 0 0 0 0 0 0 0 0 0 0 0.25 0"/>
<feBlend mode="normal" in2="BackgroundImageFix" result="effect1_dropShadow"/>
<feBlend mode="normal" in="SourceGraphic" in2="effect1_dropShadow" result="shape"/>
</filter>
<filter id="filter4_d" x="3" y="183" width="48.8998" height="48.9002" filterUnits="userSpaceOnUse" color-interpolation-filters="sRGB">
<feFlood flood-opacity="0" result="BackgroundImageFix"/>
<feColorMatrix in="SourceAlpha" type="matrix" values="0 0 0 0 0 0 0 0 0 0 0 0 0 0 0 0 0 0 127 0"/>
<feOffset dy="4"/>
<feGaussianBlur stdDeviation="2"/>
<feColorMatrix type="matrix" values="0 0 0 0 0 0 0 0 0 0 0 0 0 0 0 0 0 0 0.25 0"/>
<feBlend mode="normal" in2="BackgroundImageFix" result="effect1_dropShadow"/>
<feBlend mode="normal" in="SourceGraphic" in2="effect1_dropShadow" result="shape"/>
</filter>
<linearGradient id="paint0_linear" x1="925" y1="416" x2="43.5" y2="21.5" gradientUnits="userSpaceOnUse">
<stop stop-color="#7600F4"/>
<stop offset="0.9999"/>
</linearGradient>
<linearGradient id="paint1_linear" x1="141.65" y1="246.972" x2="139.515" y2="271.379" gradientUnits="userSpaceOnUse">
<stop stop-color="#6523AC"/>
<stop offset="0.9999" stop-color="#1D102C"/>
<stop offset="1" stop-color="#6523AC" stop-opacity="0"/>
</linearGradient>
<linearGradient id="paint2_linear" x1="141" y1="332.5" x2="141" y2="308" gradientUnits="userSpaceOnUse">
<stop stop-color="#6523AC"/>
<stop offset="0.9999" stop-color="#1D102C"/>
<stop offset="1" stop-color="#6523AC" stop-opacity="0"/>
</linearGradient>
<linearGradient id="paint3_linear" x1="195.619" y1="166.694" x2="195.619" y2="119.772" gradientUnits="userSpaceOnUse">
<stop stop-color="#6523AC"/>
<stop offset="0.9999" stop-color="#1D102C"/>
<stop offset="1" stop-color="#6523AC" stop-opacity="0"/>
</linearGradient>
</defs>
</svg>
