<svg width="926" height="550" viewBox="0 0 926 550" fill="none" xmlns="http://www.w3.org/2000/svg">
<g id="Group 1">
<g id="background">
<g id="Vector" opacity="0.3" filter="url(#filter0_d)">
<path d="M279.605 402.966C279.605 365.189 256.201 334.564 227.331 334.564C209.186 334.564 193.205 346.667 183.832 365.035C180.613 363.95 177.239 363.395 173.842 363.393C165.057 363.542 156.67 367.08 150.435 373.268C141.986 350.365 124.07 334.564 103.333 334.564C83.9443 334.564 67.0336 348.388 58.0092 368.904C52.7157 365.353 46.4938 363.437 40.1185 363.393C17.9625 363.393 0.00141813 386.896 0.00141813 415.888C-0.0634496 425.667 2.09784 435.333 6.32179 444.154H269.063C276.108 431.578 279.743 417.379 279.605 402.966Z" fill="#6523AC"/>
<path d="M279.105 402.966L279.105 402.971C279.241 417.199 275.679 431.217 268.769 443.654H6.6376C2.53547 434.978 0.437738 425.49 0.501418 415.891V415.888C0.501418 401.492 4.9613 388.477 12.1487 379.072C19.3354 369.668 29.2281 363.894 40.1168 363.893C46.3935 363.936 52.519 365.823 57.7307 369.319L58.2265 369.652L58.4669 369.105C67.4387 348.709 84.2026 335.064 103.333 335.064C123.793 335.064 141.563 350.663 149.966 373.441L150.235 374.171L150.787 373.623C156.929 367.527 165.192 364.041 173.846 363.893C177.187 363.896 180.506 364.441 183.672 365.509L184.081 365.647L184.277 365.262C193.592 347.009 209.427 335.064 227.331 335.064C241.578 335.064 254.51 342.619 263.897 354.902C273.285 367.186 279.105 384.177 279.105 402.966Z" stroke="black"/>
</g>
<g id="Vector_2">
<path d="M893.925 213.661C867.106 155.7 814.622 106.253 751.219 98.1945C734.455 96.0637 716.952 96.9183 701.398 103.519C682.92 111.361 668.84 126.432 655.059 141.184C653.613 142.731 652.17 144.275 650.726 145.807C618.526 179.958 582.493 210.285 543.34 236.19C524.016 248.972 503.289 260.897 480.346 264.168C434.345 270.725 388.844 239.384 367.865 197.961C359.992 182.416 354.663 165.246 349.366 148.177C345.846 136.834 342.34 125.536 338.11 114.791C325.909 114.768 311.373 114.772 295.734 114.844C252.506 115.043 217.32 115.681 217.32 115.681C217.32 115.681 259.144 60.333 295.577 80.8391C307.22 87.3923 319.415 93.2402 330.622 98.1665C324.255 85.9308 316.224 74.9217 305.176 66.0702C283.391 48.6167 253.886 43.721 225.992 45.0208C196.701 46.3857 167.141 54.2204 143.34 71.3313C100.94 101.813 83.4306 155.466 68.4448 205.46L104.668 223.603C120.205 210.183 142.925 196.907 163.867 208.694C200.3 229.201 242.152 242.816 242.152 242.816C242.152 242.816 207.251 242.5 164.024 242.699C156.763 242.733 149.739 242.779 143.061 242.832L545.22 444.254C601.737 445.049 652.331 444.204 701.537 443.383C767.818 442.276 831.583 441.212 903.921 444.254C910.495 444.53 925.28 410.104 925.329 401.044C925.677 337.19 920.744 271.623 893.925 213.661ZM765.127 231.034C721.9 231.233 686.714 231.871 686.714 231.871C686.714 231.871 728.538 176.522 764.971 197.029C801.404 217.535 843.256 231.15 843.256 231.15C843.256 231.15 808.355 230.835 765.127 231.034Z" fill="url(#paint0_linear)"/>
<path d="M893.925 213.661C867.106 155.7 814.622 106.253 751.219 98.1945C734.455 96.0637 716.952 96.9183 701.398 103.519C682.92 111.361 668.84 126.432 655.059 141.184C653.613 142.731 652.17 144.275 650.726 145.807C618.526 179.958 582.493 210.285 543.34 236.19C524.016 248.972 503.289 260.897 480.346 264.168C434.345 270.725 388.844 239.384 367.865 197.961C359.992 182.416 354.663 165.246 349.366 148.177C345.846 136.834 342.34 125.536 338.11 114.791C325.909 114.768 311.373 114.772 295.734 114.844C252.506 115.043 217.32 115.681 217.32 115.681C217.32 115.681 259.144 60.333 295.577 80.8391C307.22 87.3923 319.415 93.2402 330.622 98.1665C324.255 85.9308 316.224 74.9217 305.176 66.0702C283.391 48.6167 253.886 43.721 225.992 45.0208C196.701 46.3857 167.141 54.2204 143.34 71.3313C100.94 101.813 83.4306 155.466 68.4448 205.46L104.668 223.603C120.205 210.183 142.925 196.907 163.867 208.694C200.3 229.201 242.152 242.816 242.152 242.816C242.152 242.816 207.251 242.5 164.024 242.699C156.763 242.733 149.739 242.779 143.061 242.832L545.22 444.254C601.737 445.049 652.331 444.204 701.537 443.383C767.818 442.276 831.583 441.212 903.921 444.254C910.495 444.53 925.28 410.104 925.329 401.044C925.677 337.19 920.744 271.623 893.925 213.661ZM765.127 231.034C721.9 231.233 686.714 231.871 686.714 231.871C686.714 231.871 728.538 176.522 764.971 197.029C801.404 217.535 843.256 231.15 843.256 231.15C843.256 231.15 808.355 230.835 765.127 231.034Z" stroke="black"/>
</g>
<g id="Vector_3" filter="url(#filter1_d)">
<path d="M599.093 461.893C599.093 412.465 573.975 372.395 542.989 372.395C523.514 372.395 506.362 388.23 496.303 412.264C492.904 410.854 489.261 410.124 485.581 410.115C476.202 410.115 467.531 414.914 460.459 423.035C451.391 393.069 432.162 372.395 409.906 372.395C389.096 372.395 370.947 390.482 361.261 417.325C355.88 412.791 349.099 410.245 342.059 410.115C318.28 410.115 299.003 440.866 299.003 478.8C298.904 491.445 301.206 503.994 305.787 515.784H587.778C594.878 500.792 599.093 482.13 599.093 461.893Z" fill="#6523AC"/>
</g>
<g id="Vector_4" opacity="0.3" filter="url(#filter2_d)">
<path d="M898.227 402.966C898.227 365.189 874.823 334.564 845.953 334.564C827.808 334.564 811.827 346.667 802.454 365.035C799.235 363.95 795.861 363.395 792.464 363.393C783.679 363.542 775.292 367.08 769.057 373.268C760.608 350.365 742.692 334.564 721.955 334.564C702.566 334.564 685.656 348.388 676.631 368.904C671.338 365.353 665.116 363.437 658.74 363.393C636.585 363.393 618.623 386.896 618.623 415.888C618.558 425.667 620.72 435.333 624.944 444.154H887.685C894.73 431.578 898.365 417.379 898.227 402.966V402.966Z" fill="#6523AC"/>
</g>
</g>
<g id="desktopview">
<path id="Rectangle 62" d="M847.241 51.9972H398.608V264.804H847.241V51.9972Z" fill="#6523AC" fill-opacity="0.16"/>
<path id="Rectangle 75" d="M834.412 70.2458H411.437V247.797H834.412V70.2458Z" fill="#F5F5F5"/>
<path id="Rectangle 80" d="M847.049 39.7021H398.417V58.7544H847.049V39.7021Z" fill="#6523AC"/>
<path id="Ellipse 90" d="M412.581 52.0459C414.531 52.0459 416.113 50.4649 416.113 48.5147C416.113 46.5644 414.531 44.9834 412.581 44.9834C410.63 44.9834 409.048 46.5644 409.048 48.5147C409.048 50.4649 410.63 52.0459 412.581 52.0459Z" fill="white"/>
<path id="Ellipse 91" d="M425.989 52.0459C427.94 52.0459 429.521 50.4649 429.521 48.5147C429.521 46.5644 427.94 44.9834 425.989 44.9834C424.038 44.9834 422.456 46.5644 422.456 48.5147C422.456 50.4649 424.038 52.0459 425.989 52.0459Z" fill="white"/>
<path id="Ellipse 92" d="M439.398 52.0459C441.349 52.0459 442.931 50.4649 442.931 48.5147C442.931 46.5644 441.349 44.9834 439.398 44.9834C437.447 44.9834 435.865 46.5644 435.865 48.5147C435.865 50.4649 437.447 52.0459 439.398 52.0459Z" fill="white"/>
<path id="Vector_5" d="M788.812 201.039V199.629H797.201L797.256 201.038L797.229 201.039L788.812 201.039ZM780.422 201.039H772.032V199.629H780.422V201.039ZM763.642 201.039H755.253V199.629H763.642V201.039ZM746.863 201.039H738.473V199.629H746.863V201.039ZM730.083 201.039H721.694V199.629H730.083V201.039ZM713.304 201.039H704.914V199.629H713.304V201.039ZM696.524 201.039H688.135V199.629H696.524V201.039ZM679.745 201.039H671.355V199.629H679.745V201.039ZM662.965 201.039H655.509C655.048 201.034 654.601 200.883 654.233 200.607L655.054 199.46C655.185 199.563 655.344 199.622 655.51 199.629H662.965L662.965 201.039ZM800.531 193.012H799.12V184.625H800.531V193.012ZM653.59 192.11H652.179V183.723H653.59V192.11ZM800.531 176.238H799.12V167.851H800.531V176.238ZM653.59 175.336H652.179V166.95H653.59V175.336ZM800.531 159.465H799.12V151.078H800.531V159.465ZM653.59 158.563H652.179V150.176H653.59V158.563ZM800.531 142.691H799.12V134.305H800.531V142.691ZM653.59 141.79H652.179V133.403H653.59V141.79ZM800.531 125.918H799.12V123.076C799.118 120.697 798.356 119.076 797.647 118.577L798.46 117.424C799.717 118.309 800.529 120.527 800.531 123.076V125.918ZM653.59 125.016H652.179V123.076C652.179 119.644 653.599 117.033 655.482 117.004L655.504 118.415C654.705 118.427 653.59 120.206 653.59 123.076V125.016ZM789.729 118.415H781.339V117.004H789.729V118.415ZM772.95 118.415H764.56V117.004H772.95V118.415ZM756.17 118.415H747.78V117.004H756.17V118.415ZM739.391 118.415H731.001V117.004H739.391V118.415ZM722.611 118.415H714.221V117.004H722.611V118.415ZM705.832 118.415H697.442V117.004H705.832V118.415ZM689.052 118.415H680.662V117.004H689.052V118.415ZM672.272 118.415H663.883V117.004H672.272V118.415Z" fill="#6523AC"/>
<path id="Rectangle 81" d="M539.797 121.969H453.31V126.933H539.797V121.969Z" fill="black"/>
<path id="Rectangle 82" d="M586.865 140.073H453.31V145.036H586.865V140.073Z" fill="#6523AC"/>
<path id="Rectangle 83" d="M562.154 157.128H453.31V162.091H562.154V157.128Z" fill="black"/>
<path id="Rectangle 84" d="M516.852 174.12H453.31V179.083H516.852V174.12Z" fill="black"/>
<path id="Rectangle 85" d="M549.211 191.111H453.31V196.074H549.211V191.111Z" fill="#6523AC"/>
<g id="arrowinner">
<path id="Vector_6" d="M727.747 153.272H725.956V166.632H727.747V153.272Z" fill="#6523AC"/>
<path id="Vector_7" d="M734.177 159.205L732.865 160.427L726.852 153.96L720.839 160.427L719.527 159.205L726.852 151.331L734.177 159.205Z" fill="#6523AC"/>
</g>
</g>
<g id="phone">
<g id="Path 1321" filter="url(#filter3_d)">
<path d="M295.383 105.408H293.176V44.9756C293.176 35.6995 289.491 26.8033 282.932 20.2441C276.373 13.6849 267.476 10 258.2 10H130.166C120.89 10 111.994 13.6849 105.434 20.2441C98.8752 26.8033 95.1902 35.6995 95.1902 44.9756V376.513C95.1902 385.789 98.8752 394.685 105.434 401.244C111.994 407.803 120.89 411.488 130.166 411.488H258.2C267.476 411.488 276.373 407.803 282.932 401.244C289.491 394.685 293.176 385.789 293.176 376.513V148.425H295.383V105.408Z" fill="#6523AC"/>
</g>
<path id="Path 1322" d="M259.611 19.0986H242.899C243.668 20.983 243.961 23.0277 243.754 25.0523C243.546 27.077 242.844 29.0196 241.709 30.7089C240.574 32.3982 239.04 33.7823 237.244 34.7394C235.448 35.6964 233.444 36.197 231.409 36.1969H158.06C156.025 36.1968 154.021 35.6961 152.225 34.7391C150.429 33.7821 148.896 32.3982 147.761 30.7091C146.626 29.0201 145.923 27.0778 145.716 25.0534C145.508 23.029 145.802 20.9846 146.57 19.1003H130.958C124.03 19.1003 117.387 21.8522 112.488 26.7507C107.59 31.6492 104.838 38.293 104.838 45.2205V376.269C104.838 383.197 107.59 389.841 112.488 394.739C117.387 399.638 124.03 402.389 130.958 402.389H259.607C266.534 402.389 273.178 399.638 278.076 394.739C282.975 389.841 285.727 383.197 285.727 376.269V376.269V45.2189C285.727 38.2914 282.975 31.6476 278.076 26.7491C273.178 21.8506 266.534 19.0986 259.607 19.0986H259.611Z" fill="#F5F5F5"/>
<g id="boxedcont2">
<path id="Path 39" d="M275.116 279.112H120.859C120.102 279.111 119.376 278.81 118.84 278.274C118.305 277.739 118.004 277.013 118.003 276.256V237.991C118.004 237.234 118.305 236.508 118.84 235.973C119.376 235.437 120.102 235.136 120.859 235.135H275.116C275.873 235.136 276.599 235.437 277.134 235.973C277.67 236.508 277.971 237.234 277.972 237.991V276.256C277.971 277.013 277.67 277.739 277.134 278.275C276.599 278.81 275.873 279.111 275.116 279.112V279.112ZM120.859 236.277C120.405 236.278 119.969 236.459 119.648 236.78C119.326 237.101 119.146 237.537 119.145 237.991V276.256C119.146 276.711 119.326 277.146 119.648 277.468C119.969 277.789 120.405 277.97 120.859 277.97H275.116C275.57 277.97 276.006 277.789 276.327 277.468C276.648 277.146 276.829 276.711 276.83 276.256V237.991C276.829 237.537 276.648 237.101 276.327 236.78C276.006 236.459 275.57 236.278 275.116 236.277H120.859Z" fill="#6C63FF"/>
<path id="innercircle1" d="M141.901 245.171C135.3 244.593 129.48 249.476 128.903 256.077C128.325 262.678 133.208 268.497 139.809 269.075C146.41 269.652 152.229 264.769 152.807 258.168C153.384 251.567 148.501 245.748 141.901 245.171Z" fill="url(#paint1_linear)"/>
<path id="Path 40" d="M168.564 249.125C168.299 249.121 168.035 249.169 167.789 249.268C167.542 249.366 167.318 249.513 167.129 249.699C166.939 249.885 166.789 250.107 166.686 250.352C166.584 250.596 166.531 250.859 166.531 251.125C166.531 251.39 166.584 251.653 166.686 251.898C166.789 252.142 166.939 252.364 167.129 252.55C167.318 252.737 167.542 252.883 167.789 252.982C168.035 253.08 168.299 253.129 168.564 253.124H262.834C263.097 253.129 263.359 253.082 263.604 252.986C263.848 252.89 264.072 252.746 264.261 252.564C264.45 252.381 264.602 252.163 264.707 251.921C264.811 251.68 264.867 251.421 264.872 251.158C264.876 250.895 264.828 250.633 264.732 250.389C264.635 250.144 264.491 249.921 264.308 249.732C264.124 249.543 263.906 249.393 263.664 249.288C263.423 249.184 263.163 249.129 262.9 249.125H168.565H168.564Z" fill="black"/>
<path id="Path 41" d="M168.564 261.123C168.034 261.123 167.525 261.333 167.15 261.708C166.775 262.084 166.564 262.592 166.564 263.123C166.564 263.653 166.775 264.162 167.15 264.537C167.525 264.912 168.034 265.122 168.564 265.122H262.834C263.097 265.127 263.359 265.08 263.604 264.984C263.848 264.888 264.072 264.744 264.261 264.562C264.45 264.379 264.602 264.161 264.706 263.92C264.811 263.678 264.867 263.419 264.872 263.156C264.876 262.893 264.828 262.631 264.732 262.387C264.635 262.142 264.491 261.919 264.308 261.73C264.124 261.542 263.906 261.391 263.664 261.287C263.423 261.182 263.163 261.127 262.9 261.123H168.565L168.564 261.123Z" fill="black"/>
</g>
<g id="boxedcont1">
<path id="Path 42" d="M275.116 343.1H120.859C120.102 343.099 119.376 342.798 118.84 342.262C118.305 341.727 118.004 341.001 118.003 340.243V301.979C118.004 301.222 118.305 300.496 118.84 299.96C119.376 299.425 120.102 299.123 120.859 299.123H275.116C275.873 299.123 276.599 299.425 277.134 299.96C277.67 300.496 277.971 301.222 277.972 301.979V340.244C277.971 341.001 277.67 341.727 277.134 342.262C276.599 342.798 275.873 343.099 275.116 343.1V343.1ZM120.859 300.265C120.405 300.266 119.969 300.446 119.648 300.768C119.326 301.089 119.146 301.525 119.145 301.979V340.244C119.146 340.698 119.326 341.134 119.648 341.455C119.969 341.777 120.405 341.957 120.859 341.958H275.116C275.57 341.957 276.006 341.777 276.327 341.455C276.648 341.134 276.829 340.698 276.83 340.244V301.979C276.829 301.525 276.648 301.089 276.327 300.768C276.006 300.446 275.57 300.266 275.116 300.265H120.859Z" fill="#6C63FF"/>
<path id="innercircle2" d="M140.855 333.109C147.481 333.109 152.853 327.737 152.853 321.111C152.853 314.485 147.481 309.113 140.855 309.113C134.229 309.113 128.857 314.485 128.857 321.111C128.857 327.737 134.229 333.109 140.855 333.109Z" fill="url(#paint2_linear)"/>
<path id="Path 43" d="M168.564 313.113C168.034 313.113 167.525 313.324 167.15 313.699C166.775 314.074 166.564 314.582 166.564 315.113C166.564 315.643 166.775 316.152 167.15 316.527C167.525 316.902 168.034 317.112 168.564 317.112H262.834C263.097 317.117 263.359 317.07 263.604 316.974C263.848 316.878 264.072 316.735 264.261 316.552C264.45 316.369 264.602 316.151 264.706 315.91C264.811 315.668 264.867 315.409 264.872 315.146C264.876 314.883 264.828 314.622 264.732 314.377C264.635 314.132 264.491 313.909 264.308 313.721C264.124 313.532 263.906 313.381 263.664 313.277C263.423 313.173 263.163 313.117 262.9 313.113H168.565L168.564 313.113Z" fill="black"/>
<path id="Path 44" d="M168.564 325.11C168.034 325.11 167.525 325.321 167.15 325.696C166.775 326.071 166.564 326.58 166.564 327.11C166.564 327.641 166.775 328.149 167.15 328.524C167.525 328.899 168.034 329.11 168.564 329.11H262.834C263.097 329.115 263.359 329.068 263.604 328.972C263.848 328.876 264.072 328.732 264.261 328.549C264.45 328.367 264.602 328.149 264.706 327.907C264.811 327.666 264.867 327.406 264.872 327.143C264.876 326.88 264.828 326.619 264.732 326.375C264.635 326.13 264.491 325.907 264.308 325.718C264.124 325.529 263.906 325.379 263.664 325.274C263.423 325.17 263.163 325.115 262.9 325.111H168.565L168.564 325.11Z" fill="black"/>
</g>
<path id="Path 45" d="M139.473 145.057C139.466 145.191 139.466 145.324 139.466 145.424L139.466 145.434L139.466 145.479L139.466 145.48C139.472 160.133 145.3 174.184 155.666 184.542C165.796 194.663 179.449 200.447 193.741 200.699V200.708H194.741H194.747C209.407 200.708 223.466 194.883 233.832 184.517C244.197 174.15 250.02 160.09 250.019 145.43C250.018 130.77 244.194 116.711 233.827 106.346C223.461 95.9803 209.401 90.1575 194.741 90.1583C164.443 90.1583 139.655 114.794 139.473 145.057ZM142.614 145.17L142.615 145.149L142.616 145.128C142.725 131.364 148.262 118.2 158.023 108.495C167.783 98.7907 180.978 93.3297 194.742 93.2986H194.749C205.061 93.2986 215.142 96.3567 223.716 102.086C232.291 107.816 238.974 115.959 242.92 125.486C246.866 135.014 247.898 145.498 245.886 155.612C243.873 165.726 238.907 175.017 231.615 182.308C224.322 189.6 215.031 194.565 204.917 196.576C194.802 198.587 184.319 197.554 174.791 193.606C165.264 189.659 157.122 182.975 151.393 174.4C145.665 165.825 142.608 155.744 142.61 145.431V145.431C142.61 145.341 142.61 145.264 142.614 145.17Z" fill="#6523AC" stroke="#6523AC" stroke-width="2"/>
<g id="triangle1">
<path d="M222.864 168.414H167.911C167.843 168.414 167.774 168.409 167.706 168.397L193.696 123.381C193.855 123.101 194.085 122.868 194.364 122.706C194.642 122.544 194.958 122.458 195.28 122.458C195.602 122.458 195.918 122.544 196.197 122.706C196.475 122.868 196.705 123.101 196.864 123.381L214.306 153.592L215.142 155.037L222.864 168.414Z" fill="#6523AC"/>
<path d="M222.864 168.414H167.911C167.843 168.414 167.774 168.409 167.706 168.397L193.696 123.381C193.855 123.101 194.085 122.868 194.364 122.706C194.642 122.544 194.958 122.458 195.28 122.458C195.602 122.458 195.918 122.544 196.197 122.706C196.475 122.868 196.705 123.101 196.864 123.381L214.306 153.592L215.142 155.037L222.864 168.414Z" fill="url(#paint3_linear)"/>
</g>
<g id="circle1">
<path id="Path 1363" d="M42.8652 283.043L42.5138 282.688L42.1589 283.039L41.6486 283.543L41.2922 283.895L41.6451 284.251L87.0533 330.018L87.0538 330.018L87.1587 330.124L87.3054 330.273H87.5141H109.202H109.702V329.773V329.056V328.556H109.202H88.0219L42.8652 283.043Z" fill="#6C63FF" stroke="#6C63FF"/>
<path id="Path 45_2" d="M7.77087 271.002V271.002C7.77191 268.383 8.28878 265.79 9.29195 263.371C10.2951 260.952 11.7649 258.754 13.6175 256.903C15.4701 255.052 17.6691 253.584 20.089 252.583C22.5089 251.581 25.1022 251.067 27.721 251.068L7.77087 271.002ZM7.77087 271.002V271.018V271.018V271.018V271.019V271.019V271.019V271.019V271.02V271.02V271.02V271.02V271.021V271.021V271.021V271.021V271.022V271.022V271.022V271.022V271.023V271.023V271.023V271.023V271.023V271.024V271.024V271.024V271.024V271.025V271.025V271.025V271.025V271.026V271.026V271.026V271.026V271.027V271.027V271.027V271.027V271.028V271.028V271.028V271.028V271.029V271.029V271.029V271.029V271.029V271.03V271.03V271.03V271.03V271.031V271.031V271.031V271.031V271.032V271.032V271.032V271.032V271.033V271.033V271.033V271.033V271.034V271.034V271.034V271.034V271.035V271.035V271.035V271.035V271.036V271.036V271.036V271.036V271.037V271.037V271.037V271.037V271.037V271.038V271.038V271.038V271.038V271.039V271.039V271.039V271.039V271.04V271.04V271.04V271.04V271.041V271.041V271.041V271.041V271.042V271.042V271.042V271.042V271.043V271.043V271.043V271.043V271.044V271.044V271.044V271.044V271.045V271.045V271.045V271.045V271.046V271.046V271.046V271.046V271.046V271.047V271.047V271.047V271.047V271.048V271.048V271.048V271.048V271.049V271.049V271.049V271.049V271.05V271.05V271.05V271.05V271.051V271.051V271.051V271.051V271.052V271.052V271.052V271.052V271.053V271.053V271.053V271.053V271.054V271.054V271.054V271.054V271.055V271.055V271.055V271.055V271.056V271.056V271.056V271.056V271.056V271.057V271.057V271.057V271.057V271.058V271.058V271.058V271.058V271.059V271.059V271.059V271.059V271.06V271.06V271.06V271.06V271.061V271.061V271.061V271.061V271.062V271.062V271.062V271.062V271.063V271.063V271.063V271.063V271.064V271.064V271.064V271.064V271.065V271.065V271.065V271.065V271.066V271.066V271.066V271.066V271.067V271.067V271.067V271.067V271.067V271.068V271.068V271.068V271.068V271.069V271.069V271.069V271.069V271.07V271.07V271.07V271.07V271.071V271.071V271.071V271.071V271.072V271.072V271.072V271.072V271.073V271.073V271.073V271.073V271.074V271.074V271.074V271.074V271.075V271.075V271.075V271.075V271.076V271.076V271.076V271.076V271.077V271.077V271.077V271.077V271.078V271.078V271.078V271.078V271.079V271.079V271.079V271.079V271.079V271.08V271.08V271.08V271.08V271.081V271.081V271.081V271.081V271.082V271.082V271.082V271.082V271.083V271.083V271.083V271.083V271.084V271.084V271.084V271.084V271.085V271.085V271.085V271.085V271.086V271.086V271.086V271.086V271.087V271.087V271.087V271.087V271.088V271.088V271.088V271.088V271.089V271.089V271.089V271.089V271.09V271.09V271.09V271.09V271.091V271.091V271.091V271.091V271.091V271.092V271.092V271.092V271.092V271.093V271.093V271.093V271.093V271.094V271.094V271.094V271.094V271.095V271.095V271.095V271.095V271.096V271.096V271.096V271.096V271.097V271.097V271.097V271.097V271.098V271.098V271.098V271.098V271.099V271.099V271.099V271.099V271.1V271.1V271.1V271.1V271.101V271.101V271.101V271.101V271.101V271.102V271.102V271.102V271.102V271.103V271.103V271.103V271.103V271.104V271.104V271.104V271.104V271.105V271.105V271.105V271.105V271.106V271.106V271.106V271.106V271.107V271.107V271.107V271.107V271.108V271.108V271.108V271.108V271.109V271.109V271.109V271.109V271.11V271.11V271.11V271.11V271.11V271.111V271.111V271.111V271.111V271.112V271.112V271.112V271.112V271.113V271.113V271.113V271.113V271.114V271.114V271.114V271.114V271.115V271.115V271.115V271.115V271.116V271.116V271.116V271.116V271.117V271.117V271.117V271.117V271.117V271.118V271.118V271.118V271.118V271.119V271.119V271.119V271.119V271.12V271.12V271.12V271.12V271.121V271.121V271.121V271.121V271.122V271.122V271.122V271.122V271.123V271.123V271.123V271.123V271.124V271.124V271.124V271.124V271.124V271.125V271.125V271.125V271.125V271.126V271.126V271.126V271.126V271.127V271.127V271.127V271.127V271.128V271.128V271.128V271.128V271.129V271.129V271.129V271.129V271.129V271.13V271.13V271.13V271.13V271.131V271.131V271.131V271.131V271.132V271.132V271.132V271.132V271.133V271.133V271.133V271.133V271.134V271.134V271.134V271.134V271.135V271.135V271.135V271.135V271.135V271.136V271.136V271.136V271.136V271.137V271.137V271.137V271.137V271.138V271.138V271.138V271.138V271.139V271.139V271.139V271.139V271.139V271.14V271.14V271.14V271.14V271.141V271.141V271.141V271.141V271.142V271.142L7.77086 271.142L7.77088 271.145M7.77087 271.002L7.77088 271.145M7.77088 271.145C7.79603 275.086 8.98743 278.93 11.1948 282.194M7.77088 271.145L11.1948 282.194M11.1948 282.194C13.4022 285.458 16.5267 287.995 20.1742 289.486M11.1948 282.194L20.1742 289.486M20.1742 289.486C23.8218 290.976 27.829 291.353 31.6905 290.569M20.1742 289.486L31.6905 290.569M31.6905 290.569C35.552 289.785 39.0949 287.875 41.8722 285.08M31.6905 290.569L41.8722 285.08M41.8722 285.08C44.6496 282.285 46.537 278.73 47.2965 274.863M41.8722 285.08L47.2965 274.863M47.2965 274.863C48.056 270.997 47.6536 266.992 46.14 263.354M47.2965 274.863L46.14 263.354M46.14 263.354C44.6263 259.716 42.0693 256.608 38.7913 254.421M46.14 263.354L38.7913 254.421M38.7913 254.421C35.5134 252.235 31.6614 251.068 27.7212 251.068L38.7913 254.421ZM38.0266 286.436C34.9906 288.464 31.4237 289.55 27.7733 289.56L27.7713 289.559L27.7221 289.559C22.8269 289.548 18.1338 287.606 14.6624 284.154C11.1916 280.703 9.22254 276.022 9.18297 271.128V271.02V271.02C9.18244 267.352 10.2696 263.766 12.3069 260.717C14.3442 257.667 17.2401 255.29 20.6285 253.886C24.0169 252.482 27.7454 252.115 31.3426 252.83C34.9399 253.545 38.2442 255.311 40.8376 257.905C43.4311 260.498 45.1972 263.802 45.9127 267.4C46.6281 270.997 46.2608 274.725 44.857 278.114C43.4533 281.502 41.0763 284.398 38.0266 286.436Z" fill="white" stroke="white"/>
<path id="Ellipse 193" opacity="0.8" d="M21.5909 273.189C22.7901 273.189 23.7622 272.217 23.7622 271.018C23.7622 269.819 22.7901 268.847 21.5909 268.847C20.3917 268.847 19.4195 269.819 19.4195 271.018C19.4195 272.217 20.3917 273.189 21.5909 273.189Z" fill="#6523AC"/>
<path id="Ellipse 194" opacity="0.4" d="M33.8533 273.189C35.0525 273.189 36.0247 272.217 36.0247 271.018C36.0247 269.819 35.0525 268.847 33.8533 268.847C32.6541 268.847 31.6819 269.819 31.6819 271.018C31.6819 272.217 32.6541 273.189 33.8533 273.189Z" fill="#6523AC"/>
<path id="Ellipse 195" opacity="0.6" d="M27.722 273.189C28.9213 273.189 29.8934 272.217 29.8934 271.018C29.8934 269.819 28.9213 268.847 27.722 268.847C26.5228 268.847 25.5507 269.819 25.5507 271.018C25.5507 272.217 26.5228 273.189 27.722 273.189Z" fill="#6523AC" fill-opacity="0.78"/>
</g>
<g id="circle3">
<path id="Path 1414" d="M328.824 98.6976L328.469 98.3469L328.118 98.7011L282.961 144.214H261.781H261.281V144.714V145.431V145.931H261.781H283.469H283.678L283.824 145.783L283.929 145.677L283.93 145.676L329.338 99.9096L329.691 99.554L329.334 99.2018L328.824 98.6976Z" fill="#6C63FF" stroke="#6C63FF"/>
<path id="Path 45_3" d="M322.126 85.822L322.126 85.8218L322.126 85.8058V85.8056V85.8053V85.8051V85.8048V85.8046V85.8044V85.8041V85.8039V85.8036V85.8034V85.8032V85.8029V85.8027V85.8024V85.8022V85.802V85.8017V85.8015V85.8012V85.801V85.8008V85.8005V85.8003V85.8V85.7998V85.7996V85.7993V85.7991V85.7988V85.7986V85.7984V85.7981V85.7979V85.7976V85.7974V85.7972V85.7969V85.7967V85.7964V85.7962V85.7959V85.7957V85.7955V85.7952V85.795V85.7947V85.7945V85.7943V85.794V85.7938V85.7935V85.7933V85.7931V85.7928V85.7926V85.7923V85.7921V85.7918V85.7916V85.7914V85.7911V85.7909V85.7906V85.7904V85.7901V85.7899V85.7897V85.7894V85.7892V85.7889V85.7887V85.7885V85.7882V85.788V85.7877V85.7875V85.7872V85.787V85.7868V85.7865V85.7863V85.786V85.7858V85.7855V85.7853V85.7851V85.7848V85.7846V85.7843V85.7841V85.7838V85.7836V85.7834V85.7831V85.7829V85.7826V85.7824V85.7821V85.7819V85.7817V85.7814V85.7812V85.7809V85.7807V85.7804V85.7802V85.78V85.7797V85.7795V85.7792V85.779V85.7787V85.7785V85.7783V85.778V85.7778V85.7775V85.7773V85.777V85.7768V85.7765V85.7763V85.7761V85.7758V85.7756V85.7753V85.7751V85.7748V85.7746V85.7744V85.7741V85.7739V85.7736V85.7734V85.7731V85.7729V85.7726V85.7724V85.7722V85.7719V85.7717V85.7714V85.7712V85.7709V85.7707V85.7704V85.7702V85.77V85.7697V85.7695V85.7692V85.769V85.7687V85.7685V85.7682V85.768V85.7678V85.7675V85.7673V85.767V85.7668V85.7665V85.7663V85.7661V85.7658V85.7656V85.7653V85.7651V85.7648V85.7646V85.7643V85.7641V85.7638V85.7636V85.7634V85.7631V85.7629V85.7626V85.7624V85.7621V85.7619V85.7616V85.7614V85.7612V85.7609V85.7607V85.7604V85.7602V85.7599V85.7597V85.7594V85.7592V85.759V85.7587V85.7585V85.7582V85.758V85.7577V85.7575V85.7572V85.757V85.7568V85.7565V85.7563V85.756V85.7558V85.7555V85.7553V85.755V85.7548V85.7545V85.7543V85.7541V85.7538V85.7536V85.7533V85.7531V85.7528V85.7526V85.7523V85.7521V85.7519V85.7516V85.7514V85.7511V85.7509V85.7506V85.7504V85.7501V85.7499V85.7496V85.7494V85.7492V85.7489V85.7487V85.7484V85.7482V85.7479V85.7477V85.7474V85.7472V85.747V85.7467V85.7465V85.7462V85.746V85.7457V85.7455V85.7452V85.745V85.7447V85.7445V85.7443V85.744V85.7438V85.7435V85.7433V85.743V85.7428V85.7425V85.7423V85.7421V85.7418V85.7416V85.7413V85.7411V85.7408V85.7406V85.7403V85.7401V85.7399V85.7396V85.7394V85.7391V85.7389V85.7386V85.7384V85.7381V85.7379V85.7376V85.7374V85.7372V85.7369V85.7367V85.7364V85.7362V85.7359V85.7357V85.7354V85.7352V85.735V85.7347V85.7345V85.7342V85.734V85.7337V85.7335V85.7332V85.733V85.7328V85.7325V85.7323V85.732V85.7318V85.7315V85.7313V85.731V85.7308V85.7306V85.7303V85.7301V85.7298V85.7296V85.7293V85.7291V85.7289V85.7286V85.7284V85.7281V85.7279V85.7276V85.7274V85.7271V85.7269V85.7267V85.7264V85.7262V85.7259V85.7257V85.7254V85.7252V85.7249V85.7247V85.7245V85.7242V85.724V85.7237V85.7235V85.7232V85.723V85.7228V85.7225V85.7223V85.722V85.7218V85.7215V85.7213V85.7211V85.7208V85.7206V85.7203V85.7201V85.7198V85.7196V85.7193V85.7191V85.7189V85.7186V85.7184V85.7181V85.7179V85.7176V85.7174V85.7172V85.7169V85.7167V85.7164V85.7162V85.7159V85.7157V85.7155V85.7152V85.715V85.7147V85.7145V85.7142V85.714V85.7138V85.7135V85.7133V85.713V85.7128V85.7126V85.7123V85.7121V85.7118V85.7116V85.7113V85.7111V85.7109V85.7106V85.7104V85.7101V85.7099V85.7096V85.7094V85.7092V85.7089V85.7087V85.7084V85.7082V85.708V85.7077V85.7075V85.7072V85.707V85.7067V85.7065V85.7063V85.706V85.7058V85.7055V85.7053V85.7051V85.7048V85.7046V85.7043V85.7041V85.7039V85.7036V85.7034V85.7031V85.7029V85.7027V85.7024V85.7022V85.7019V85.7017V85.7014V85.7012V85.701V85.7007V85.7005V85.7002V85.7V85.6998V85.6995V85.6993V85.699V85.6988V85.6986V85.6983V85.6981V85.6978V85.6976V85.6974V85.6971V85.6969V85.6966V85.6964V85.6962V85.6959V85.6957V85.6955V85.6952V85.695V85.6947V85.6945V85.6943V85.694V85.6938V85.6935V85.6933V85.6931V85.6928V85.6926V85.6923V85.6921V85.6919V85.6916V85.6914V85.6912V85.6909V85.6907V85.6904V85.6902V85.69V85.6897V85.6895V85.6892V85.689V85.6888V85.6885V85.6883V85.6881V85.6878V85.6876V85.6873V85.6871V85.6869V85.6866V85.6864V85.6862V85.6859V85.6857V85.6854V85.6852V85.685V85.6847V85.6845V85.6843V85.684V85.6838V85.6836V85.6833V85.6831V85.6828V85.6826V85.6824V85.6821V85.6819V85.6817V85.6785H322.126C322.151 81.7382 323.342 77.8937 325.55 74.6297C327.757 71.3657 330.882 68.8285 334.529 67.338C338.177 65.8476 342.184 65.4706 346.045 66.2547C349.907 67.0388 353.45 68.9488 356.227 71.7439C359.004 74.539 360.892 78.0939 361.651 81.9603C362.411 85.8267 362.008 89.8315 360.495 93.4695C358.981 97.1075 356.424 100.216 353.146 102.402C349.868 104.589 346.016 105.756 342.076 105.756L322.126 85.822ZM322.126 85.822C322.127 88.4408 322.644 91.0338 323.647 93.4529C324.65 95.872 326.12 98.0698 327.972 99.9209C329.825 101.772 332.024 103.24 334.444 104.241C336.864 105.242 339.457 105.757 342.076 105.756L322.126 85.822ZM342.077 67.2645L342.131 67.2644L342.135 67.2635C345.784 67.2741 349.349 68.361 352.383 70.3886C355.432 72.4262 357.809 75.3224 359.212 78.7108C360.616 82.0992 360.983 85.8276 360.267 89.4247C359.552 93.0217 357.785 96.3258 355.192 98.919C352.598 101.512 349.294 103.278 345.697 103.993C342.1 104.709 338.371 104.341 334.983 102.937C331.595 101.533 328.699 99.1563 326.662 96.1067C324.625 93.057 323.537 89.4717 323.538 85.8042V85.8041V85.6958C323.577 80.8015 325.546 76.1204 329.017 72.6693C332.489 69.2178 337.182 67.2755 342.077 67.2645Z" fill="white" stroke="white"/>
<path id="Path 1265" d="M346.771 91.9783C346.771 92.5097 346.718 93.0398 346.612 93.5604C345.159 94.1766 343.597 94.4941 342.019 94.4941C340.441 94.4941 338.879 94.1766 337.426 93.5604C337.32 93.0398 337.267 92.5097 337.267 91.9783C337.267 89.2166 338.673 86.8825 340.61 86.1025C339.837 85.7772 339.2 85.1943 338.807 84.4528C338.415 83.7113 338.291 82.8567 338.457 82.0343C338.623 81.2118 339.068 80.4721 339.717 79.9407C340.367 79.4093 341.18 79.119 342.019 79.119C342.858 79.119 343.671 79.4093 344.32 79.9407C344.97 80.4721 345.415 81.2118 345.581 82.0343C345.747 82.8567 345.623 83.7113 345.23 84.4528C344.838 85.1943 344.201 85.7772 343.427 86.1025C345.365 86.8825 346.771 89.2166 346.771 91.9783Z" fill="#6523AC"/>
</g>
<g id="circle2">
<path id="Path 1362" d="M42.881 214.557L42.5297 214.203L42.1748 214.553L41.6645 215.057L41.3077 215.409L41.6608 215.765L87.0691 261.532L87.0695 261.533L87.1744 261.639L87.3212 261.787H87.5298H109.217H109.717V261.287V260.57V260.07H109.217H88.0377L42.881 214.557Z" fill="#6C63FF" stroke="#6C63FF"/>
<path id="Vector_8" d="M36.6006 201.826H17.1407V204.899H36.6006V201.826Z" fill="#6523AC"/>
<path id="Vector_9" d="M36.6006 210.02C37.7319 210.02 38.649 207.039 38.649 203.363C38.649 199.686 37.7319 196.705 36.6006 196.705C35.4693 196.705 34.5522 199.686 34.5522 203.363C34.5522 207.039 35.4693 210.02 36.6006 210.02Z" fill="#6523AC"/>
<path id="Vector_10" d="M17.6528 210.02C18.5013 210.02 19.1891 207.039 19.1891 203.363C19.1891 199.686 18.5013 196.705 17.6528 196.705C16.8043 196.705 15.6816 199.686 15.6816 203.363C15.6816 207.039 16.8043 210.02 17.6528 210.02Z" fill="#6523AC"/>
<g id="Path 45_4" filter="url(#filter4_d)">
<path d="M27.4501 222.295C24.8969 222.296 22.3685 221.794 20.0093 220.818C17.65 219.842 15.5061 218.411 13.7 216.606C11.8939 214.802 10.461 212.659 9.48294 210.3C8.50492 207.942 8.00101 205.414 8 202.861V202.845C8 202.804 8 202.761 8 202.721C8.02452 198.879 9.18606 195.131 11.3381 191.949C13.4902 188.767 16.5363 186.293 20.0925 184.84C23.6486 183.387 27.5554 183.019 31.3201 183.784C35.0849 184.548 38.5389 186.41 41.2467 189.135C43.9544 191.86 45.7946 195.326 46.535 199.096C47.2755 202.865 46.8832 206.77 45.4075 210.316C43.9317 213.863 41.4388 216.894 38.243 219.025C35.0472 221.157 31.2917 222.295 27.4501 222.295V222.295ZM27.4501 183.804C22.4232 183.815 17.6038 185.809 14.039 189.354C10.4743 192.898 8.4522 197.706 8.4121 202.733C8.4121 202.776 8.4121 202.812 8.4121 202.843C8.41166 206.61 9.52814 210.292 11.6203 213.424C13.7125 216.555 16.6865 218.997 20.1661 220.438C23.6457 221.88 27.4747 222.257 31.1688 221.523C34.8629 220.788 38.2563 218.975 40.9197 216.312C43.5831 213.648 45.397 210.255 46.132 206.561C46.8669 202.867 46.4899 199.038 45.0487 195.559C43.6074 192.079 41.1666 189.104 38.035 187.012C34.9033 184.919 31.2215 183.802 27.4551 183.802L27.4501 183.804Z" fill="white"/>
<path d="M7.5 202.861L7.5 202.861L7.5 202.845V202.845V202.844V202.844V202.844V202.844V202.843V202.843V202.843V202.843V202.842V202.842V202.842V202.842V202.842V202.841V202.841V202.841V202.841V202.84V202.84V202.84V202.84V202.839V202.839V202.839V202.839V202.838V202.838V202.838V202.838V202.837V202.837V202.837V202.837V202.836V202.836V202.836V202.836V202.836V202.835V202.835V202.835V202.835V202.834V202.834V202.834V202.834V202.833V202.833V202.833V202.833V202.832V202.832V202.832V202.832V202.831V202.831V202.831V202.831V202.83V202.83V202.83V202.83V202.829V202.829V202.829V202.829V202.829V202.828V202.828V202.828V202.828V202.827V202.827V202.827V202.827V202.826V202.826V202.826V202.826V202.825V202.825V202.825V202.825V202.824V202.824V202.824V202.824V202.823V202.823V202.823V202.823V202.822V202.822V202.822V202.822V202.821V202.821V202.821V202.821V202.82V202.82V202.82V202.82V202.82V202.819V202.819V202.819V202.819V202.818V202.818V202.818V202.818V202.817V202.817V202.817V202.817V202.816V202.816V202.816V202.816V202.815V202.815V202.815V202.815V202.814V202.814V202.814V202.814V202.813V202.813V202.813V202.813V202.812V202.812V202.812V202.812V202.811V202.811V202.811V202.811V202.811V202.81V202.81V202.81V202.81V202.809V202.809V202.809V202.809V202.808V202.808V202.808V202.808V202.807V202.807V202.807V202.807V202.806V202.806V202.806V202.806V202.805V202.805V202.805V202.805V202.804V202.804V202.804V202.804V202.803V202.803V202.803V202.803V202.802V202.802V202.802V202.802V202.801V202.801V202.801V202.801V202.8V202.8V202.8V202.8V202.799V202.799V202.799V202.799V202.799V202.798V202.798V202.798V202.798V202.797V202.797V202.797V202.797V202.796V202.796V202.796V202.796V202.795V202.795V202.795V202.795V202.794V202.794V202.794V202.794V202.793V202.793V202.793V202.793V202.792V202.792V202.792V202.792V202.791V202.791V202.791V202.791V202.79V202.79V202.79V202.79V202.789V202.789V202.789V202.789V202.788V202.788V202.788V202.788V202.788V202.787V202.787V202.787V202.787V202.786V202.786V202.786V202.786V202.785V202.785V202.785V202.785V202.784V202.784V202.784V202.784V202.783V202.783V202.783V202.783V202.782V202.782V202.782V202.782V202.781V202.781V202.781V202.781V202.78V202.78V202.78V202.78V202.779V202.779V202.779V202.779V202.778V202.778V202.778V202.778V202.777V202.777V202.777V202.777V202.776V202.776V202.776V202.776V202.776V202.775V202.775V202.775V202.775V202.774V202.774V202.774V202.774V202.773V202.773V202.773V202.773V202.772V202.772V202.772V202.772V202.771V202.771V202.771V202.771V202.77V202.77V202.77V202.77V202.769V202.769V202.769V202.769V202.768V202.768V202.768V202.768V202.767V202.767V202.767V202.767V202.766V202.766V202.766V202.766V202.765V202.765V202.765V202.765V202.765V202.764V202.764V202.764V202.764V202.763V202.763V202.763V202.763V202.762V202.762V202.762V202.762V202.761V202.761V202.761V202.761V202.76V202.76V202.76V202.76V202.759V202.759V202.759V202.759V202.758V202.758V202.758V202.758V202.757V202.757V202.757V202.757V202.756V202.756V202.756V202.756V202.756V202.755V202.755V202.755V202.755V202.754V202.754V202.754V202.754V202.753V202.753V202.753V202.753V202.752V202.752V202.752V202.752V202.751V202.751V202.751V202.751V202.75V202.75V202.75V202.75V202.749V202.749V202.749V202.749V202.748V202.748V202.748V202.748V202.748V202.747V202.747V202.747V202.747V202.746V202.746V202.746V202.746V202.745V202.745V202.745V202.745V202.744V202.744V202.744V202.744V202.743V202.743V202.743V202.743V202.742V202.742V202.742V202.742V202.741V202.741V202.741V202.741V202.741V202.74V202.74V202.74V202.74V202.739V202.739V202.739V202.739V202.738V202.738V202.738V202.738V202.737V202.737V202.737V202.737V202.736V202.736V202.736V202.736V202.735V202.735V202.735V202.735V202.735V202.734V202.734V202.734V202.734V202.733V202.733V202.733V202.733V202.732V202.732V202.732V202.732V202.731V202.731V202.731V202.731V202.73V202.73V202.73V202.73V202.73V202.729V202.729V202.729V202.729V202.728V202.728V202.728V202.728V202.727V202.727V202.727V202.727V202.726V202.726V202.726V202.726V202.725V202.725V202.725V202.725V202.725V202.724V202.724V202.724V202.724V202.723V202.723V202.723V202.723V202.722V202.722V202.722V202.722V202.721V202.721V202.721V202.721V202.718H7.50001C7.52516 198.777 8.71656 194.933 10.9239 191.669C13.1313 188.405 16.2558 185.868 19.9033 184.377C23.5509 182.887 27.5581 182.51 31.4196 183.294C35.2812 184.078 38.824 185.988 41.6013 188.783C44.3787 191.578 46.2661 195.133 47.0257 198.999C47.7852 202.866 47.3827 206.871 45.8691 210.509C44.3554 214.147 41.7984 217.255 38.5204 219.441C35.2425 221.628 31.3906 222.795 27.4503 222.795L7.5 202.861ZM7.5 202.861C7.50104 205.48 8.01791 208.073 9.02108 210.492C10.0242 212.911 11.4941 215.109 13.3466 216.96C15.1992 218.811 17.3982 220.279 19.8181 221.28C22.238 222.281 24.8313 222.796 27.4501 222.795L7.5 202.861ZM27.4512 184.304L27.5053 184.303L27.5094 184.303C31.158 184.313 34.7228 185.4 37.7572 187.428C40.8066 189.465 43.1833 192.361 44.5867 195.75C45.9902 199.138 46.3572 202.867 45.6416 206.464C44.9259 210.061 43.1596 213.365 40.5662 215.958C37.9727 218.551 34.6684 220.317 31.0713 221.032C27.4742 221.748 23.7457 221.38 20.3575 219.976C16.9692 218.572 14.0734 216.195 12.0361 213.146C9.99884 210.096 8.91167 206.511 8.9121 202.843V202.843V202.735C8.95166 197.841 10.9207 193.159 14.3916 189.708C17.8629 186.257 22.556 184.315 27.4512 184.304Z" stroke="white"/>
</g>
</g>
</g>
<g id="Guy">
<path id="Vector_11" d="M623.904 292.925C623.904 292.925 619.556 259.596 612.308 268.686C605.061 277.775 612.308 291.41 612.308 291.41L618.106 298.984L623.904 294.439V292.925Z" fill="#9F616A"/>
<path id="Vector_12" d="M641.298 303.529C641.298 303.529 626.803 286.865 623.904 289.895C621.005 292.925 612.308 294.439 613.758 300.499C615.207 306.559 645.646 326.253 645.646 326.253L641.298 303.529Z" fill="#6523AC"/>
<path id="Vector_13" opacity="0.1" d="M641.298 303.529C641.298 303.529 626.803 286.865 623.904 289.895C621.005 292.925 612.308 294.439 613.758 300.499C615.207 306.559 645.646 326.253 645.646 326.253L641.298 303.529Z" fill="#6523AC"/>
<path id="Vector_14" d="M723.916 302.014V314.133C723.916 314.133 725.365 341.402 716.669 339.887C707.972 338.372 712.32 315.648 712.32 315.648L713.77 302.014H723.916Z" fill="#9F616A"/>
<path id="Vector_15" d="M719.568 389.879C719.568 389.879 732.613 411.088 736.961 412.603C741.309 414.117 764.5 427.752 767.399 441.386L787.692 468.654L777.546 482.289C777.546 482.289 731.163 430.782 718.118 426.237C705.073 421.692 692.028 398.968 692.028 398.968L719.568 389.879Z" fill="#9F616A"/>
<path id="Vector_16" d="M616.657 355.036C616.657 355.036 589.117 359.581 593.466 377.76C597.814 395.938 639.848 433.811 639.848 433.811L641.297 442.901L657.241 445.931L664.489 438.356L663.039 433.811C663.039 433.811 645.646 417.147 644.196 411.088C642.747 405.028 626.803 380.789 619.556 379.274L629.702 373.215L616.657 355.036Z" fill="#9F616A"/>
<path id="Vector_17" d="M783.343 468.654C783.343 468.654 777.546 459.565 786.242 461.08C794.939 462.595 800.737 464.11 800.737 470.169C800.737 476.229 793.49 518.646 784.793 515.617C776.096 512.587 783.343 498.953 783.343 498.953C783.343 498.953 778.995 486.833 776.096 485.318C773.197 483.803 773.197 476.229 776.096 476.229C778.995 476.229 784.793 471.684 783.343 468.654Z" fill="#2F2E41"/>
<path id="Vector_18" d="M660.14 435.326C660.14 435.326 660.14 427.752 665.938 435.326C671.736 442.901 674.635 448.96 668.837 453.505C663.039 458.05 642.747 468.654 642.747 468.654C642.747 468.654 621.005 473.199 623.904 462.595C623.904 462.595 638.399 455.02 638.399 448.96C638.399 442.901 638.399 432.296 642.747 435.326C647.095 438.356 660.14 439.871 660.14 435.326Z" fill="#2F2E41"/>
<path id="Vector_19" d="M687.68 321.708C687.68 321.708 707.972 324.738 706.523 355.036C706.523 355.036 732.613 382.304 725.365 391.394C718.118 400.483 702.174 417.147 696.376 412.603C690.579 408.058 673.185 373.215 673.185 373.215C673.185 373.215 632.601 388.364 625.353 380.789C618.106 373.215 610.859 355.036 610.859 355.036L647.095 335.342L687.68 321.708Z" fill="#2F2E41"/>
<path id="Vector_20" d="M631.151 235.358C621.545 235.358 613.758 227.219 613.758 217.179C613.758 207.139 621.545 199 631.151 199C640.757 199 648.545 207.139 648.545 217.179C648.545 227.219 640.757 235.358 631.151 235.358Z" fill="#9F616A"/>
<path id="Vector_21" d="M644.196 218.694C644.196 218.694 654.342 235.358 657.241 236.873C660.14 238.388 636.949 253.537 636.949 253.537C636.949 253.537 636.949 233.843 629.702 229.298L644.196 218.694Z" fill="#9F616A"/>
<path id="Vector_22" d="M645.898 234.601C645.898 234.601 669.09 227.026 673.438 239.145C677.786 251.265 687.932 273.988 686.483 289.138C685.034 304.287 682.135 301.257 686.483 305.802C690.831 310.346 693.73 307.316 692.281 313.376C690.831 319.436 689.382 319.436 690.831 322.466C692.281 325.495 673.438 336.1 657.494 337.615L641.55 339.13C641.55 339.13 641.55 311.861 638.651 305.802C635.752 299.742 629.954 287.623 629.954 283.078V271.053C629.954 263.049 631.953 255.184 635.752 248.235V248.235C635.752 248.235 644.449 234.601 645.898 234.601Z" fill="#6523AC"/>
<path id="Vector_23" d="M663.039 241.418C663.039 241.418 716.669 245.962 722.466 261.111C728.264 276.26 731.163 306.559 725.365 306.559C719.568 306.559 712.32 309.589 710.871 306.559C709.421 303.529 703.624 273.231 702.174 273.231C700.725 273.231 657.241 268.686 657.241 268.686C657.241 268.686 638.399 244.447 663.039 241.418Z" fill="#6523AC"/>
<path id="Vector_24" d="M630.452 212.672C630.452 212.672 625.837 204.289 620.067 211.57C614.298 218.852 610.036 209.507 611.477 206.651C613.325 204.235 610.496 205.506 619.215 202.527C619.215 202.527 645.618 192.874 648.431 212.672C651.245 232.471 646.045 228.237 646.045 228.237C646.045 228.237 642.974 210.694 640.198 215.733L637.423 220.772L635.015 221.391L630.452 212.672Z" fill="#2F2E41"/>
</g>
<g id="girl">
<path id="Vector_25" d="M372.026 272.195C383.067 272.195 392.018 262.84 392.018 251.301C392.018 239.761 383.067 230.407 372.026 230.407C360.985 230.407 352.035 239.761 352.035 251.301C352.035 262.84 360.985 272.195 372.026 272.195Z" fill="#2F2E41"/>
<path id="Vector_26" d="M365.636 266.766C365.636 266.766 366.671 286.228 364.602 286.228C362.533 286.228 377.533 295.419 377.533 295.419L386.844 290.013V283.525C386.844 283.525 374.429 281.903 379.602 267.847C384.774 253.791 365.636 266.766 365.636 266.766Z" fill="#FFB8B8"/>
<path id="Vector_27" d="M322.186 480.31L320.635 496.528L325.807 498.15L329.945 493.825L331.497 480.31H322.186Z" fill="#FFB8B8"/>
<path id="Vector_28" d="M396.672 489.5L399.258 499.772L406.499 504.637L414.258 500.312L405.465 485.175L396.672 489.5Z" fill="#FFB8B8"/>
<path id="Vector_29" d="M370.55 275.146C378.834 275.146 385.55 268.126 385.55 259.468C385.55 250.809 378.834 243.79 370.55 243.79C362.266 243.79 355.55 250.809 355.55 259.468C355.55 268.126 362.266 275.146 370.55 275.146Z" fill="#FFB8B8"/>
<path id="Vector_30" d="M361.498 318.125L357.877 316.503C357.877 316.503 351.67 312.719 351.153 305.15C350.636 297.581 356.325 287.85 356.325 287.85L364.602 285.147L374.325 293.419L374.429 306.772L361.498 318.125Z" fill="#FFB8B8"/>
<path id="Vector_31" d="M363.303 287.988L361.28 286.817C361.28 286.817 350.966 285.821 349.409 298.738C347.853 311.656 343.364 333.102 343.364 333.102C343.364 333.102 334.485 347.861 334.349 364.087L329.648 377.949C329.648 377.949 323.136 398.223 329.854 398.519C336.572 398.816 336.949 376.647 336.949 376.647C336.949 376.647 350.615 345.867 351.866 340.511C357.007 333.102 362.927 310.157 360.626 303.021C358.326 295.885 363.303 287.988 363.303 287.988Z" fill="#FFB8B8"/>
<path id="Vector_32" d="M365.636 322.99V328.937C365.636 328.937 369.257 333.262 367.705 335.965C366.153 338.668 364.602 344.074 364.602 344.074L371.843 355.968L396.154 358.13L400.989 324.277L365.636 322.99Z" fill="#FFB8B8"/>
<path id="Vector_33" d="M388.395 285.147L392.533 282.985C392.533 282.985 401.327 276.497 408.568 275.416L430.81 259.738L445.293 223.517C445.293 223.517 444.776 204.055 448.914 206.217C453.052 208.38 452.535 225.139 452.535 225.139C452.535 225.139 444.776 258.657 438.052 267.847C431.327 277.038 407.016 292.175 407.016 292.175C407.016 292.175 400.292 300.284 400.809 304.069C401.327 307.853 388.395 285.147 388.395 285.147Z" fill="#FFB8B8"/>
<path id="Vector_34" d="M369.257 344.074C369.257 344.074 363.567 340.29 359.946 346.777C356.326 353.265 349.601 354.887 345.463 374.349C341.325 393.811 331.497 424.626 328.911 426.789C326.325 428.951 315.462 451.657 321.669 483.553H332.015L340.808 437.601C340.808 437.601 369.257 400.839 371.326 385.702L380.636 442.467C380.636 442.467 381.154 464.091 388.913 474.363L397.189 494.906L408.051 489.5L395.637 437.601C395.637 437.601 401.844 385.161 397.706 370.565L397.111 351.428C397.111 351.428 380.119 352.184 369.257 344.074Z" fill="#2F2E41"/>
<path id="Vector_35" d="M325.807 493.825H319.6C318.566 493.825 310.29 500.853 313.911 504.637C317.531 508.422 323.221 515.45 323.221 515.45C323.221 515.45 343.394 518.131 343.911 514.347C344.429 510.563 335.118 502.475 335.118 502.475L332.532 493.825C332.532 493.825 327.359 487.878 325.807 493.825Z" fill="#2F2E41"/>
<path id="Vector_36" d="M408.051 499.231C408.051 499.231 399.258 498.691 397.706 498.15C396.154 497.609 393.051 512.206 397.706 513.287C402.361 514.369 421.5 515.99 421.5 515.99C421.5 515.99 436.5 515.45 435.466 511.125C434.431 506.8 414.258 498.15 414.258 498.15C414.258 498.15 411.672 492.744 408.051 499.231Z" fill="#2F2E41"/>
<path id="Vector_37" d="M367.188 284.606L364.602 282.985L361.498 285.688C361.498 285.688 370.962 299.4 368.893 305.346C366.824 311.293 357.877 316.503 357.877 316.503C357.877 316.503 365.636 325.693 365.636 328.937C365.636 328.937 385.809 321.368 400.809 328.937C400.809 328.937 401.69 322.743 402.614 318.877C409.543 318.877 409.081 307.763 400.809 299.744C397.165 294.97 393.88 289.909 390.982 284.607L385.809 281.363L383.145 282.246C383.145 282.246 388.395 288.391 383.223 288.931C378.05 289.472 369.774 287.85 367.188 284.606Z" fill="#6523AC"/>
<path id="Vector_38" d="M386.637 215.678C384.88 217.728 382.473 219.046 379.859 219.389C375.341 220.063 378.891 227.485 378.891 227.485C378.891 227.485 377.6 224.786 380.182 222.425C382.764 220.063 386.637 218.714 386.637 215.678Z" fill="#2F2E41"/>
<path id="Vector_39" d="M377.925 234.859C381.002 234.859 383.497 232.252 383.497 229.036C383.497 225.82 381.002 223.213 377.925 223.213C374.848 223.213 372.354 225.82 372.354 229.036C372.354 232.252 374.848 234.859 377.925 234.859Z" fill="#2F2E41"/>
<path id="Vector_40" d="M384.43 234.77C380.126 232.421 372.721 230.572 368.787 230.705L369.782 226.728C373.265 229.201 380.631 231.084 385.425 230.794L384.43 234.77Z" fill="#6C63FF"/>
<path id="Vector_41" d="M375.538 235.12C375.538 235.12 368.755 244.234 355.19 246.26C341.625 248.285 352.283 270.564 352.283 270.564C352.283 270.564 348.408 262.463 356.159 255.374C363.911 248.285 375.538 244.234 375.538 235.12Z" fill="#2F2E41"/>
<path id="Vector_42" d="M376.055 234.58C376.055 234.58 379.93 248.757 385.744 250.782C391.558 252.808 388.651 274.074 378.962 276.099C378.962 276.099 387.197 264.454 382.353 255.34C377.508 246.225 374.601 239.137 376.055 234.58Z" fill="#2F2E41"/>
<path id="Vector_43" d="M467.277 210.812H431.586V215.137H467.277V210.812Z" fill="#2F2E41"/>
<path id="Vector_44" d="M467.277 225.95C468.991 225.95 470.38 220.141 470.38 212.975C470.38 205.809 468.991 200 467.277 200C465.563 200 464.173 205.809 464.173 212.975C464.173 220.141 465.563 225.95 467.277 225.95Z" fill="#2F2E41"/>
<path id="Vector_45" d="M431.586 225.95C433.3 225.95 434.69 220.141 434.69 212.975C434.69 205.809 433.3 200 431.586 200C429.872 200 428.483 205.809 428.483 212.975C428.483 220.141 429.872 225.95 431.586 225.95Z" fill="#2F2E41"/>
</g>
</g>
<defs>
<filter id="filter0_d" x="0" y="324.564" width="305.609" height="129.59" filterUnits="userSpaceOnUse" color-interpolation-filters="sRGB">
<feFlood flood-opacity="0" result="BackgroundImageFix"/>
<feColorMatrix in="SourceAlpha" type="matrix" values="0 0 0 0 0 0 0 0 0 0 0 0 0 0 0 0 0 0 127 0"/>
<feOffset dx="16"/>
<feGaussianBlur stdDeviation="5"/>
<feColorMatrix type="matrix" values="0 0 0 0 0.933333 0 0 0 0 0.933333 0 0 0 0 0.933333 0 0 0 0.25 0"/>
<feBlend mode="normal" in2="BackgroundImageFix" result="effect1_dropShadow"/>
<feBlend mode="normal" in="SourceGraphic" in2="effect1_dropShadow" result="shape"/>
</filter>
<filter id="filter1_d" x="287" y="362.395" width="344.093" height="187.389" filterUnits="userSpaceOnUse" color-interpolation-filters="sRGB">
<feFlood flood-opacity="0" result="BackgroundImageFix"/>
<feColorMatrix in="SourceAlpha" type="matrix" values="0 0 0 0 0 0 0 0 0 0 0 0 0 0 0 0 0 0 127 0"/>
<feOffset dx="10" dy="12"/>
<feGaussianBlur stdDeviation="11"/>
<feColorMatrix type="matrix" values="0 0 0 0 0 0 0 0 0 0 0 0 0 0 0 0 0 0 1 0"/>
<feBlend mode="normal" in2="BackgroundImageFix" result="effect1_dropShadow"/>
<feBlend mode="normal" in="SourceGraphic" in2="effect1_dropShadow" result="shape"/>
</filter>
<filter id="filter2_d" x="595.622" y="301.564" width="323.609" height="153.59" filterUnits="userSpaceOnUse" color-interpolation-filters="sRGB">
<feFlood flood-opacity="0" result="BackgroundImageFix"/>
<feColorMatrix in="SourceAlpha" type="matrix" values="0 0 0 0 0 0 0 0 0 0 0 0 0 0 0 0 0 0 127 0"/>
<feOffset dx="-1" dy="-11"/>
<feGaussianBlur stdDeviation="11"/>
<feColorMatrix type="matrix" values="0 0 0 0 0 0 0 0 0 0 0 0 0 0 0 0 0 0 1 0"/>
<feBlend mode="normal" in2="BackgroundImageFix" result="effect1_dropShadow"/>
<feBlend mode="normal" in="SourceGraphic" in2="effect1_dropShadow" result="shape"/>
</filter>
<filter id="filter3_d" x="91.1902" y="0" width="228.192" height="429.488" filterUnits="userSpaceOnUse" color-interpolation-filters="sRGB">
<feFlood flood-opacity="0" result="BackgroundImageFix"/>
<feColorMatrix in="SourceAlpha" type="matrix" values="0 0 0 0 0 0 0 0 0 0 0 0 0 0 0 0 0 0 127 0"/>
<feOffset dx="10" dy="4"/>
<feGaussianBlur stdDeviation="7"/>
<feColorMatrix type="matrix" values="0 0 0 0 0 0 0 0 0 0 0 0 0 0 0 0 0 0 0.25 0"/>
<feBlend mode="normal" in2="BackgroundImageFix" result="effect1_dropShadow"/>
<feBlend mode="normal" in="SourceGraphic" in2="effect1_dropShadow" result="shape"/>
</filter>
<filter id="filter4_d" x="3" y="182.395" width="48.8998" height="48.9002" filterUnits="userSpaceOnUse" color-interpolation-filters="sRGB">
<feFlood flood-opacity="0" result="BackgroundImageFix"/>
<feColorMatrix in="SourceAlpha" type="matrix" values="0 0 0 0 0 0 0 0 0 0 0 0 0 0 0 0 0 0 127 0"/>
<feOffset dy="4"/>
<feGaussianBlur stdDeviation="2"/>
<feColorMatrix type="matrix" values="0 0 0 0 0 0 0 0 0 0 0 0 0 0 0 0 0 0 0.25 0"/>
<feBlend mode="normal" in2="BackgroundImageFix" result="effect1_dropShadow"/>
<feBlend mode="normal" in="SourceGraphic" in2="effect1_dropShadow" result="shape"/>
</filter>
<linearGradient id="paint0_linear" x1="925" y1="415.395" x2="43.5" y2="20.8948" gradientUnits="userSpaceOnUse">
<stop stop-color="#7600F4"/>
<stop offset="0.9999"/>
</linearGradient>
<linearGradient id="paint1_linear" x1="141.65" y1="246.367" x2="139.515" y2="270.774" gradientUnits="userSpaceOnUse">
<stop stop-color="#6523AC"/>
<stop offset="0.9999" stop-color="#1D102C"/>
<stop offset="1" stop-color="#6523AC" stop-opacity="0"/>
</linearGradient>
<linearGradient id="paint2_linear" x1="141" y1="331.895" x2="141" y2="307.395" gradientUnits="userSpaceOnUse">
<stop stop-color="#6523AC"/>
<stop offset="0.9999" stop-color="#1D102C"/>
<stop offset="1" stop-color="#6523AC" stop-opacity="0"/>
</linearGradient>
<linearGradient id="paint3_linear" x1="195.619" y1="166.089" x2="195.619" y2="119.167" gradientUnits="userSpaceOnUse">
<stop stop-color="#6523AC"/>
<stop offset="0.9999" stop-color="#1D102C"/>
<stop offset="1" stop-color="#6523AC" stop-opacity="0"/>
</linearGradient>
</defs>
</svg>
