<?xml version="1.0" standalone="no"?>
<!DOCTYPE svg PUBLIC "-//W3C//DTD SVG 20010904//EN"
 "http://www.w3.org/TR/2001/REC-SVG-20010904/DTD/svg10.dtd">
<svg version="1.0" xmlns="http://www.w3.org/2000/svg"
 width="300.000000pt" height="310.000000pt" viewBox="0 0 300.000000 310.000000"
 preserveAspectRatio="xMidYMid meet">
<metadata>
Created by potrace 1.10, written by Peter Selinger 2001-2011
</metadata>
<g transform="translate(0.000000,310.000000) scale(0.050000,-0.050000)"
fill="#000000" stroke="none">
<path d="M3006 6120 c-58 -173 -81 -1049 -36 -1355 18 -127 -16 -142 -98 -43
-60 71 -71 214 -24 326 40 97 57 254 39 365 -16 96 -16 96 -29 -75 -16 -195
-63 -307 -196 -468 -46 -55 -92 -136 -104 -180 -11 -44 -25 -95 -30 -113 -13
-47 19 -61 83 -37 365 139 979 4 1340 -296 l129 -107 0 69 c0 102 36 192 124
308 95 124 156 277 156 387 0 99 -30 89 -47 -16 -16 -102 -98 -221 -206 -301
-49 -37 -103 -97 -121 -135 -40 -83 -66 -71 -66 29 0 128 35 192 160 289 160
124 180 169 175 386 -5 192 28 294 168 512 104 161 50 151 -72 -14 -187 -254
-266 -385 -311 -521 -23 -70 -72 -166 -108 -214 -83 -108 -141 -221 -171 -331
-24 -91 -51 -106 -93 -50 -64 85 -17 210 139 370 109 112 173 212 202 315 8
28 -21 -4 -64 -71 -96 -147 -220 -257 -343 -302 -51 -18 -121 -55 -157 -81
-80 -59 -96 -35 -66 96 45 196 8 449 -77 526 -34 31 -34 25 3 -82 45 -135 38
-213 -37 -390 -34 -83 -46 -138 -38 -178 18 -78 -20 -75 -69 4 -65 109 -68
185 -11 310 88 193 76 393 -29 457 -41 26 -69 171 -80 421 -10 234 -13 253
-35 190z m569 -1510 c-4 -59 -35 -68 -35 -11 0 27 -10 36 -30 28 -16 -6 -30
-1 -30 11 0 12 22 22 50 22 41 0 49 -9 45 -50z"/>
<path d="M1121 5531 c-1 -21 126 -238 246 -421 43 -66 130 -174 193 -240 63
-66 147 -176 188 -244 40 -68 118 -161 173 -207 113 -94 119 -110 49 -127
-103 -26 -245 100 -287 254 -26 97 -122 247 -206 324 -36 33 -56 47 -45 30
182 -265 199 -312 206 -560 4 -150 15 -212 52 -295 57 -125 69 -128 135 -28
100 150 403 382 580 445 88 31 94 52 22 79 -98 37 -168 102 -219 203 -67 132
-191 264 -296 315 -111 54 -162 53 -72 -1 150 -90 223 -194 249 -354 8 -47 38
-112 65 -146 58 -68 51 -89 -23 -70 -103 26 -183 122 -217 263 -48 194 -173
326 -310 329 -52 0 -196 117 -284 231 -128 164 -199 242 -199 220z"/>
<path d="M2739 5135 c-14 -36 -43 -90 -65 -121 -55 -80 -29 -88 31 -9 44 58
93 195 69 195 -5 0 -21 -29 -35 -65z"/>
<path d="M3770 5046 c-44 -38 -111 -86 -150 -107 -41 -22 -56 -38 -36 -38 18
-1 40 9 47 20 7 12 25 17 39 12 23 -9 204 160 188 176 -5 4 -44 -24 -88 -63z"/>
<path d="M1530 4610 c7 -22 19 -92 25 -156 13 -145 45 -170 45 -36 0 69 -14
122 -42 167 -23 36 -36 47 -28 25z"/>
<path d="M2770 4441 c-1072 -192 -1498 -1522 -736 -2293 213 -217 580 -393
802 -386 61 2 53 6 -39 19 -322 48 -726 296 -882 543 -377 596 -316 1259 159
1728 182 180 526 351 695 347 22 -1 -25 -18 -105 -39 -966 -254 -1293 -1475
-582 -2179 598 -593 1587 -478 2027 235 91 148 111 161 43 29 -171 -331 -566
-607 -951 -664 -86 -12 -95 -17 -41 -19 427 -14 944 406 1142 928 79 206 77
663 -2 860 -36 89 -108 241 -119 250 -6 6 -25 36 -41 69 -193 377 -873 661
-1370 572z m398 -141 c126 -1 221 -102 156 -167 -30 -31 -28 -33 30 -33 64 0
146 -92 146 -165 0 -17 14 -36 30 -42 17 -7 30 -28 30 -47 0 -20 10 -49 22
-66 24 -35 7 84 -22 150 -70 160 -94 198 -171 273 -104 101 -103 107 13 66
212 -74 538 -324 538 -412 0 -19 -40 -69 -90 -110 -104 -87 -109 -109 -37
-166 122 -96 214 -43 258 149 l14 60 47 -100 c94 -197 41 -319 -141 -327 -71
-4 -151 -74 -151 -133 0 -80 68 -116 239 -129 153 -11 216 -31 159 -49 -15 -5
-75 -24 -133 -42 -174 -55 -209 -138 -122 -291 37 -66 51 -75 108 -64 111 21
0 -94 -117 -123 -35 -8 -50 -22 -41 -37 11 -17 16 -17 22 1 12 36 45 8 45 -38
0 -22 -9 -35 -20 -28 -11 7 -20 3 -20 -9 0 -11 -16 -38 -35 -58 -19 -21 -70
-79 -114 -130 -43 -51 -89 -93 -102 -93 -13 0 -35 -14 -49 -30 -14 -17 -30
-26 -36 -20 -6 5 -32 -4 -57 -20 -26 -17 -47 -25 -47 -18 0 7 -13 2 -30 -12
-25 -20 -30 -19 -30 8 0 17 -10 32 -22 32 -12 0 -17 -13 -11 -28 13 -34 -28
-52 -114 -51 -52 2 -56 5 -23 18 22 9 45 13 51 10 6 -3 12 16 15 44 2 34 -4
45 -21 35 -20 -11 -20 -8 0 13 14 15 25 45 25 66 0 60 -65 -5 -173 -172 -96
-149 -104 -154 -158 -94 -28 31 -36 68 -33 140 6 138 -28 130 -197 -44 -197
-201 -258 -153 -187 148 17 72 -11 72 -183 -5 -74 -34 -137 -58 -139 -55 -44
52 -71 150 -60 217 13 72 10 78 -33 78 -263 1 -413 264 -428 750 l-8 240 30
-210 c17 -123 48 -247 74 -300 l45 -90 128 7 127 7 113 -119 c134 -142 186
-172 269 -157 83 15 104 -2 119 -96 17 -105 18 -105 223 -141 295 -52 470 -61
422 -22 -21 17 -59 31 -83 31 -25 0 -59 14 -75 30 -17 17 -35 23 -41 13 -18
-28 -200 -2 -227 33 -15 18 -25 22 -25 8 0 -13 -10 -24 -21 -24 -12 0 -17 7
-11 16 5 9 -9 27 -31 41 -23 15 -35 16 -28 4 7 -11 8 -21 1 -21 -7 0 -25 31
-41 70 -29 68 -133 143 -184 133 -14 -3 -23 6 -20 19 3 14 -16 30 -41 36 -26
7 -47 21 -47 32 -1 11 -8 18 -16 16 -8 -2 -14 9 -14 24 0 22 9 23 41 6 23 -12
38 -17 32 -13 -5 5 -66 61 -134 125 l-123 115 -144 -29 -143 -30 -29 70 c-74
178 -83 463 -19 637 l29 79 2 -76 c2 -144 76 -257 186 -285 68 -16 69 1 16
155 -75 210 -103 507 -39 391 11 -19 46 -49 78 -65 64 -33 107 -40 60 -10 -18
12 -21 20 -6 20 13 0 31 -12 40 -27 22 -38 126 -56 112 -20 -6 15 -17 23 -25
17 -9 -5 -32 9 -51 30 -33 36 -33 40 -3 40 36 0 45 33 13 43 -12 4 -25 34 -31
67 -6 33 -14 70 -18 83 -6 16 16 20 70 12 44 -6 79 -2 80 7 1 38 85 117 126
119 24 1 69 19 101 40 65 42 83 47 212 62 50 6 94 15 100 20 5 6 36 5 67 -1
32 -7 104 -12 161 -12z m-918 -380 c-7 -11 -1 -20 14 -21 16 0 11 -12 -13 -30
-46 -34 -71 -37 -71 -8 0 12 10 15 22 8 15 -10 18 0 9 28 -10 32 -5 43 19 43
18 0 27 -9 20 -20z m1883 -646 c17 -18 -12 -54 -44 -54 -16 0 -29 -10 -29 -21
0 -12 -10 -15 -22 -8 -16 10 -14 19 5 31 15 10 20 19 12 20 -8 2 -24 5 -35 8
-11 3 -31 7 -45 9 -14 2 -7 11 15 20 42 17 124 14 143 -5z m40 -456 c2 -48 -1
-68 -6 -43 -6 25 -17 45 -26 45 -8 0 -11 -21 -7 -46 6 -27 -4 -57 -22 -73 -27
-22 -32 -20 -32 14 0 22 -14 52 -31 66 -27 22 -24 32 24 82 72 75 96 64 100
-45z"/>
<path d="M2987 4259 c-12 -12 -38 -24 -58 -27 -19 -3 -38 -21 -41 -40 -5 -33
-2 -33 49 0 29 20 76 47 103 62 45 23 46 26 9 26 -23 0 -51 -10 -62 -21z"/>
<path d="M3017 3272 c-32 -17 -63 -20 -80 -10 -45 29 -62 20 -28 -13 33 -34
42 -58 14 -41 -9 6 -18 -30 -20 -79 -2 -49 6 -89 17 -89 11 0 18 7 16 15 -6
23 63 149 110 200 48 52 43 55 -29 17z"/>
<path d="M3728 2571 c-14 -36 26 -111 58 -109 18 1 18 4 -1 11 -40 16 -29 47
17 47 52 0 40 41 -19 63 -32 11 -48 8 -55 -12z"/>
<path d="M5680 4301 c-16 -9 -134 -48 -260 -88 -130 -41 -279 -104 -340 -143
-61 -39 -173 -90 -250 -113 -143 -42 -288 -116 -331 -168 -32 -38 -99 -37 -99
2 0 125 135 214 360 238 74 8 173 36 230 64 155 77 151 90 -11 34 -166 -58
-319 -57 -519 2 -188 56 -406 -9 -307 -92 106 -87 272 -436 309 -651 l23 -130
71 73 c84 87 139 117 274 149 131 32 246 101 337 201 98 108 93 144 -6 49
-110 -103 -186 -132 -366 -138 -102 -3 -171 -16 -204 -37 -94 -62 -98 -25 -8
77 89 102 128 117 298 120 185 2 262 41 350 175 77 117 187 206 329 268 61 26
126 56 145 67 19 11 48 20 64 20 16 0 34 9 41 20 15 24 -86 25 -130 1z"/>
<path d="M4540 4174 c0 -24 195 -49 270 -34 79 15 79 15 -32 18 -62 1 -141 8
-175 15 -35 6 -63 7 -63 1z"/>
<path d="M926 3973 c-125 -35 -117 -43 41 -43 150 0 145 1 364 -145 53 -36
118 -65 145 -65 60 0 48 -44 -17 -62 -104 -29 -192 -18 -261 31 -245 178 -298
192 -473 131 -144 -51 -259 -51 -446 0 -82 22 -176 46 -209 52 l-60 12 62 -40
c114 -73 509 -206 666 -224 84 -10 229 -45 322 -79 120 -42 207 -60 296 -61
150 0 165 -42 40 -109 -87 -47 -214 -25 -323 57 -113 86 -424 178 -385 115 8
-13 34 -23 58 -23 24 0 98 -26 164 -57 114 -54 167 -103 326 -301 63 -78 192
-162 248 -162 19 0 27 43 29 155 2 189 64 425 158 612 67 132 68 137 24 123
-118 -39 -213 -34 -325 17 -101 47 -157 62 -310 83 -27 3 -88 -4 -134 -17z"/>
<path d="M820 3450 c0 -4 43 -37 95 -73 52 -36 116 -91 142 -121 25 -31 56
-56 67 -56 41 0 -92 132 -196 194 -59 36 -108 61 -108 56z"/>
<path d="M4480 3043 c0 -194 -57 -426 -151 -610 -67 -132 -68 -137 -24 -123
118 39 213 34 324 -17 155 -71 312 -97 426 -72 153 34 150 49 -11 49 -163 0
-153 -4 -375 145 -53 36 -118 65 -145 65 -60 0 -48 44 17 62 117 33 193 19
292 -52 209 -152 319 -174 471 -97 94 47 498 8 565 -55 10 -10 42 -18 70 -18
l51 0 -61 38 c-121 73 -517 204 -679 224 -88 10 -218 43 -290 71 -80 32 -186
56 -275 62 -160 11 -186 28 -134 86 77 85 243 67 396 -44 79 -57 153 -84 303
-107 59 -10 72 -7 50 8 -16 12 -46 22 -66 22 -120 1 -285 127 -470 358 -65 81
-192 162 -253 162 -25 0 -31 -29 -31 -157z"/>
<path d="M4880 2993 c-1 -41 88 -134 173 -181 130 -73 131 -65 6 29 -60 44
-125 100 -144 125 -19 24 -34 36 -35 27z"/>
<path d="M1474 2899 c-52 -74 -186 -154 -299 -178 -132 -28 -248 -97 -342
-200 -90 -100 -97 -149 -8 -62 107 106 204 145 375 151 93 3 178 18 217 38 52
27 63 28 63 5 0 -35 -168 -192 -210 -195 -16 -2 -91 -4 -165 -6 -169 -3 -250
-47 -345 -188 -86 -128 -178 -194 -409 -295 -230 -101 -175 -111 119 -21 265
81 368 124 479 199 43 30 145 73 226 97 86 25 195 76 258 120 161 113 217 89
129 -57 -44 -72 -141 -112 -349 -143 -115 -18 -367 -117 -347 -137 3 -3 73 17
154 46 167 58 319 57 520 -2 93 -28 128 -29 225 -9 134 27 137 36 47 141 -102
120 -208 346 -259 556 -45 186 -46 187 -79 140z"/>
<path d="M4181 2191 c-89 -143 -391 -379 -571 -446 -112 -42 -112 -42 16 -115
82 -47 117 -84 165 -175 75 -141 190 -262 300 -315 125 -61 145 -48 37 25
-103 69 -182 169 -201 254 -34 153 -50 197 -89 238 -86 93 40 79 149 -17 52
-46 74 -88 99 -191 48 -194 173 -326 310 -329 60 -1 208 -130 334 -291 194
-248 192 -211 -6 121 -103 173 -157 245 -285 380 -62 66 -146 176 -187 244
-40 68 -118 161 -173 207 -113 94 -119 110 -49 127 109 28 238 -94 299 -283
19 -58 68 -148 109 -200 93 -118 176 -188 98 -83 -127 170 -172 295 -175 488
-3 204 -11 249 -64 355 -47 93 -62 93 -116 6z"/>
<path d="M1102 2053 c4 -4 94 -12 198 -18 105 -5 168 -3 140 6 -49 15 -355 26
-338 12z"/>
<path d="M1920 1995 c0 -104 -37 -192 -133 -322 -90 -121 -147 -272 -147 -388
0 -87 31 -68 47 30 16 102 98 221 206 301 49 37 103 97 121 135 40 83 66 71
66 -29 0 -128 -35 -192 -160 -289 -160 -124 -180 -169 -175 -386 5 -185 -57
-367 -186 -549 -99 -139 -16 -91 90 51 187 254 266 385 311 521 23 70 74 169
113 219 70 93 150 255 174 356 16 63 47 70 85 20 65 -85 15 -217 -142 -374
-65 -65 -135 -161 -164 -224 -64 -139 -50 -159 21 -29 69 127 228 269 349 314
52 19 123 56 159 82 80 59 96 35 66 -96 -45 -196 -8 -449 77 -526 34 -31 34
-25 -3 82 -45 133 -37 228 31 366 25 53 43 125 42 176 -2 99 24 101 79 6 52
-88 51 -194 -3 -305 -71 -146 -76 -270 -15 -367 111 -176 119 -208 131 -490
10 -254 12 -265 35 -190 43 134 74 563 53 720 -10 79 -11 192 -2 260 16 116
10 238 -18 395 -16 91 20 101 90 27 65 -69 81 -165 48 -283 -61 -212 -72 -300
-51 -401 l20 -98 3 104 c4 176 40 296 123 409 163 224 179 251 196 343 21 108
6 128 -73 96 -366 -145 -990 -2 -1359 312 l-105 89 0 -68z"/>
<path d="M4423 1770 c-2 -55 13 -142 33 -194 48 -128 68 -143 31 -23 -17 53
-38 147 -46 207 l-16 110 -2 -100z"/>
<path d="M2344 1275 c-39 -13 -99 -62 -148 -123 l-83 -102 78 74 c44 40 120
96 169 124 95 55 91 61 -16 27z"/>
<path d="M3307 1207 c-20 -31 -43 -62 -51 -68 -9 -6 -20 -42 -27 -80 -10 -66
-9 -65 39 28 28 53 61 110 74 125 13 16 19 34 12 40 -6 6 -27 -14 -47 -45z"/>
</g>
</svg>
